<svg width="219" height="129" viewBox="0 0 219 129" fill="none" xmlns="http://www.w3.org/2000/svg">
<path fill-rule="evenodd" clip-rule="evenodd" d="M23.3222 93.6395C23.0757 93.6778 22.8267 93.7059 22.5803 93.7263C22.3338 93.7443 22.0747 93.7647 21.8105 93.7827V99.1002H16.9836V78.0857H21.808C23.0071 78.1061 24.1299 78.3261 25.1767 78.7481C26.2234 79.1701 27.1429 79.7354 27.933 80.4388C28.7231 81.1474 29.3405 81.9709 29.7902 82.9122C30.2373 83.8457 30.4608 84.8535 30.4608 85.9251C30.4608 87.0506 30.2221 88.0993 29.747 89.0688C29.2718 90.0355 28.6038 90.8694 27.7476 91.5804L32.3739 99.1028H26.6908L23.3222 93.6395ZM21.808 88.8973C22.3212 88.8795 22.8115 88.7874 23.2789 88.6237C23.7464 88.4599 24.1553 88.2452 24.506 87.9766C24.8591 87.708 25.1335 87.3959 25.3341 87.0429C25.5348 86.6875 25.6339 86.3088 25.6339 85.9074C25.6339 85.5057 25.5348 85.1323 25.3341 84.787C25.1335 84.4418 24.8591 84.1348 24.506 83.8662C24.1528 83.5976 23.7438 83.3829 23.2789 83.2191C22.8115 83.0554 22.3237 82.9659 21.808 82.9455V88.8973Z" fill="#D4D9D8"/>
<path fill-rule="evenodd" clip-rule="evenodd" d="M50.218 82.8585H41.5931V86.0505H48.5897V90.9077H41.5931V94.2431H50.218V99.1002H36.7688V78.0293L50.218 78.0012V82.8585Z" fill="#D4D9D8"/>
<path fill-rule="evenodd" clip-rule="evenodd" d="M67.2899 99.1001L66.4618 96.5423H59.8666L59.0106 99.1001H53.8992L61.0378 77.9985H65.6056L72.3735 99.1001H67.2899ZM61.5205 91.6851H64.9171L63.2608 86.5671L61.5205 91.6851Z" fill="#D4D9D8"/>
<path fill-rule="evenodd" clip-rule="evenodd" d="M88.8739 99.1004H76.395V77.9731H81.2219V94.2431H88.8739V99.1004Z" fill="#D4D9D8"/>
<path fill-rule="evenodd" clip-rule="evenodd" d="M111.428 82.8585H102.806V86.0505H109.8V90.9077H102.806V94.2431H111.428V99.1002H97.979V78.0293L111.428 78.0012V82.8585Z" fill="#D4D9D8"/>
<path fill-rule="evenodd" clip-rule="evenodd" d="M122.733 99.5042C122.068 99.5042 121.405 99.4122 120.749 99.2305C120.094 99.0489 119.469 98.765 118.879 98.3813C117.851 97.7111 117.052 96.8441 116.482 95.7801C115.91 94.716 115.625 93.5523 115.625 92.2861H120.449C120.449 92.8616 120.574 93.3067 120.82 93.6238C121.067 93.941 121.288 94.1559 121.476 94.2709C121.819 94.5012 122.19 94.6266 122.589 94.6445C122.987 94.6623 123.378 94.5881 123.76 94.4142C124.026 94.2991 124.24 94.1559 124.403 93.982C124.565 93.808 124.687 93.6418 124.774 93.4781C124.86 93.3144 124.911 93.1584 124.931 93.0049C124.948 92.8515 124.959 92.7261 124.959 92.6315C124.959 92.5343 124.948 92.4114 124.931 92.2581C124.913 92.1046 124.86 91.9409 124.774 91.7695C124.687 91.5982 124.565 91.4293 124.403 91.2656C124.24 91.1019 124.026 90.9535 123.76 90.8205C123.551 90.7233 123.328 90.6389 123.089 90.5622C122.85 90.4855 122.598 90.3986 122.331 90.3039C121.857 90.1504 121.362 89.9791 120.849 89.7872C120.335 89.5954 119.819 89.337 119.306 89.0122C118.64 88.5902 118.079 88.0632 117.622 87.4315C117.165 86.7998 116.838 86.1194 116.636 85.3904C116.436 84.6615 116.37 83.9096 116.436 83.1345C116.501 82.3595 116.717 81.6151 117.077 80.9066C117.421 80.2544 117.848 79.6892 118.364 79.2109C118.878 78.7326 119.448 78.3541 120.077 78.0752C120.704 77.7964 121.379 77.6301 122.104 77.5714C122.827 77.515 123.559 77.5815 124.301 77.7733C125.025 77.9448 125.675 78.2184 126.262 78.5919C126.851 78.9653 127.356 79.4155 127.781 79.9424C128.211 80.4693 128.539 81.0576 128.762 81.7097C128.991 82.362 129.105 83.0424 129.105 83.7509H124.303C124.303 83.311 124.165 83.004 123.889 82.8301C123.612 82.6587 123.37 82.5436 123.16 82.4847C123.122 82.4847 123.031 82.4694 122.889 82.4414C122.746 82.4132 122.583 82.4132 122.404 82.4414C122.223 82.4694 122.037 82.536 121.846 82.6434C121.657 82.7482 121.503 82.917 121.39 83.1472C121.237 83.4542 121.209 83.7739 121.303 84.1115C121.399 84.4466 121.588 84.7101 121.875 84.9019C122.142 85.0553 122.436 85.1935 122.759 85.3189C123.081 85.4441 123.425 85.5643 123.788 85.6769C124.11 85.7716 124.44 85.879 124.774 85.9941C125.106 86.1092 125.439 86.2421 125.782 86.3956C127.029 86.971 128.01 87.8126 128.718 88.9252C129.428 90.0378 129.786 91.2733 129.786 92.634C129.786 93.9743 129.43 95.202 128.718 96.3146C128.01 97.4273 127.029 98.2688 125.782 98.8443C125.292 99.0744 124.786 99.2407 124.273 99.3481C123.76 99.4504 123.247 99.5042 122.733 99.5042Z" fill="#D4D9D8"/>
<path fill-rule="evenodd" clip-rule="evenodd" d="M146.458 77.9141V82.7738H142.432V99.1001H137.608V82.7738H133.609V77.9141H146.458Z" fill="#D4D9D8"/>
<path fill-rule="evenodd" clip-rule="evenodd" d="M163.101 99.1001L162.273 96.5423H155.678L154.822 99.1001H149.71L156.85 77.9985H161.417L168.184 99.1001H163.101ZM157.335 91.6851H160.732L159.075 86.5671L157.335 91.6851Z" fill="#D4D9D8"/>
<path fill-rule="evenodd" clip-rule="evenodd" d="M184.23 77.9141V82.7738H180.204V99.1001H175.377V82.7738H171.381V77.9141H184.23Z" fill="#D4D9D8"/>
<path fill-rule="evenodd" clip-rule="evenodd" d="M202.016 82.8585H193.394V86.0505H200.388V90.9077H193.394V94.2431H202.016V99.1002H188.568V78.0293L202.016 78.0012V82.8585Z" fill="#D4D9D8"/>
<path fill-rule="evenodd" clip-rule="evenodd" d="M40.8362 111.636C40.8362 112.032 40.7625 112.403 40.6152 112.75C40.4678 113.099 40.2671 113.405 40.0079 113.67C39.7488 113.933 39.4491 114.143 39.1061 114.296C38.7631 114.449 38.3948 114.528 38.0035 114.536V115.638H36.4233V108.725H38.0035C38.3973 108.73 38.7631 108.812 39.1061 108.97C39.4491 109.127 39.7488 109.339 40.0079 109.602C40.2671 109.866 40.4703 110.173 40.6152 110.521C40.765 110.869 40.8362 111.24 40.8362 111.636ZM38.0035 112.943C38.1788 112.938 38.3414 112.897 38.4939 112.825C38.6463 112.754 38.7784 112.655 38.8927 112.541C39.0045 112.426 39.0934 112.288 39.1594 112.129C39.2254 111.973 39.2585 111.804 39.2585 111.628C39.2585 111.451 39.2254 111.285 39.1594 111.126C39.0934 110.968 39.0045 110.833 38.8927 110.715C38.7809 110.599 38.6488 110.503 38.4939 110.43C38.3414 110.36 38.1762 110.318 38.0035 110.314V112.943Z" fill="#D4D9D8"/>
<path fill-rule="evenodd" clip-rule="evenodd" d="M47.6444 113.849C47.5632 113.861 47.4819 113.872 47.4007 113.876C47.3192 113.882 47.2354 113.889 47.149 113.894V115.637H45.5688V108.751H47.149C47.5428 108.756 47.9088 108.83 48.2541 108.968C48.5971 109.106 48.8969 109.291 49.1561 109.523C49.4153 109.756 49.6184 110.024 49.7631 110.335C49.9105 110.64 49.9842 110.971 49.9842 111.321C49.9842 111.69 49.9055 112.035 49.7505 112.351C49.5955 112.669 49.377 112.943 49.0951 113.176L50.6116 115.638H48.7496L47.6444 113.849ZM47.149 112.293C47.3167 112.288 47.4768 112.258 47.6317 112.204C47.7841 112.149 47.9188 112.08 48.0331 111.992C48.1475 111.905 48.2389 111.802 48.305 111.684C48.371 111.57 48.404 111.445 48.404 111.314C48.404 111.181 48.371 111.06 48.305 110.944C48.2389 110.833 48.15 110.734 48.0331 110.643C47.9188 110.556 47.7841 110.485 47.6317 110.431C47.4794 110.377 47.3192 110.347 47.149 110.342V112.293Z" fill="#D4D9D8"/>
<path fill-rule="evenodd" clip-rule="evenodd" d="M58.058 108.715C58.533 108.715 58.9751 108.807 59.3942 108.988C59.8109 109.17 60.1742 109.419 60.4867 109.728C60.7992 110.039 61.0431 110.405 61.2234 110.825C61.4038 111.244 61.4952 111.695 61.4952 112.174C61.4952 112.651 61.4038 113.099 61.2234 113.521C61.0431 113.94 60.7967 114.306 60.4867 114.618C60.1742 114.927 59.8109 115.176 59.3942 115.358C58.9777 115.539 58.533 115.63 58.058 115.63C57.583 115.63 57.1408 115.539 56.7217 115.358C56.3051 115.176 55.9418 114.927 55.6343 114.618C55.3269 114.306 55.0831 113.94 54.9026 113.521C54.7224 113.101 54.6309 112.651 54.6309 112.174C54.6309 111.695 54.7224 111.248 54.9026 110.825C55.0831 110.403 55.3269 110.039 55.6343 109.728C55.9443 109.419 56.3051 109.17 56.7217 108.988C57.1408 108.807 57.5855 108.715 58.058 108.715ZM58.063 114.037C58.3197 114.037 58.5584 113.989 58.782 113.893C59.0056 113.794 59.2038 113.662 59.3714 113.49C59.5391 113.321 59.6711 113.122 59.7677 112.897C59.8642 112.672 59.9126 112.428 59.9126 112.17C59.9126 111.911 59.8642 111.672 59.7677 111.445C59.6711 111.219 59.5391 111.019 59.3714 110.851C59.2038 110.682 59.0056 110.549 58.782 110.451C58.5584 110.354 58.3171 110.306 58.0605 110.306C57.804 110.306 57.5651 110.354 57.3415 110.451C57.1179 110.549 56.9198 110.682 56.7522 110.851C56.5846 111.019 56.4524 111.219 56.3533 111.445C56.2568 111.669 56.2085 111.911 56.2085 112.17C56.2085 112.428 56.2568 112.669 56.3533 112.897C56.4499 113.122 56.5819 113.321 56.7522 113.49C56.9198 113.659 57.1179 113.791 57.3415 113.893C57.5676 113.989 57.8065 114.037 58.063 114.037Z" fill="#D4D9D8"/>
<path fill-rule="evenodd" clip-rule="evenodd" d="M70.1837 111.636C70.1837 112.032 70.1101 112.403 69.9627 112.75C69.8153 113.099 69.6146 113.405 69.3554 113.67C69.0963 113.933 68.7966 114.143 68.4536 114.296C68.1106 114.449 67.7423 114.528 67.3485 114.536V115.638H65.7683V108.725H67.3485C67.7423 108.73 68.1081 108.812 68.4511 108.97C68.794 109.127 69.0938 109.339 69.3529 109.602C69.6121 109.866 69.8153 110.173 69.9601 110.521C70.1101 110.869 70.1837 111.24 70.1837 111.636ZM67.351 112.943C67.5263 112.938 67.6889 112.897 67.8414 112.825C67.9938 112.754 68.1258 112.655 68.2376 112.541C68.3494 112.426 68.4384 112.288 68.5044 112.129C68.5705 111.973 68.6035 111.804 68.6035 111.628C68.6035 111.451 68.5705 111.285 68.5044 111.126C68.4384 110.968 68.3494 110.833 68.2376 110.715C68.1258 110.599 67.9938 110.503 67.8414 110.43C67.6889 110.36 67.5238 110.318 67.351 110.314V112.943Z" fill="#D4D9D8"/>
<path fill-rule="evenodd" clip-rule="evenodd" d="M79.2174 110.316H76.3925V111.362H78.684V112.952H76.3925V114.046H79.2174V115.638H74.8123V108.735L79.2174 108.725V110.316Z" fill="#D4D9D8"/>
<path fill-rule="evenodd" clip-rule="evenodd" d="M85.9039 113.849C85.8227 113.861 85.7414 113.872 85.6601 113.876C85.5788 113.882 85.495 113.889 85.4087 113.894V115.637H83.8284V108.751H85.4087C85.8024 108.756 86.1682 108.83 86.5112 108.968C86.8542 109.106 87.1539 109.291 87.4131 109.523C87.6721 109.756 87.8754 110.024 88.0202 110.335C88.1675 110.64 88.2412 110.971 88.2412 111.321C88.2412 111.69 88.1625 112.035 88.0075 112.351C87.8526 112.669 87.634 112.943 87.3521 113.176L88.8688 115.638H87.0065L85.9039 113.849ZM85.4087 112.293C85.5763 112.288 85.7363 112.258 85.8913 112.204C86.0437 112.149 86.1783 112.08 86.2927 111.992C86.407 111.905 86.4984 111.802 86.5645 111.684C86.6306 111.57 86.6635 111.445 86.6635 111.314C86.6635 111.181 86.6306 111.06 86.5645 110.944C86.4984 110.833 86.4095 110.734 86.2927 110.643C86.1783 110.556 86.0437 110.485 85.8913 110.431C85.7388 110.377 85.5788 110.347 85.4087 110.342V112.293Z" fill="#D4D9D8"/>
<path fill-rule="evenodd" clip-rule="evenodd" d="M97.2956 108.697V110.288H95.977V115.638H94.3942V110.288H93.0859V108.697H97.2956Z" fill="#D4D9D8"/>
<path fill-rule="evenodd" clip-rule="evenodd" d="M102.831 115.638L103.626 113.68L101.279 108.669H103.027L104.439 111.672L105.646 108.669H107.358L104.544 115.638H102.831Z" fill="#D4D9D8"/>
<path fill-rule="evenodd" clip-rule="evenodd" d="M115.719 115.769C115.5 115.769 115.285 115.738 115.069 115.68C114.852 115.621 114.65 115.527 114.456 115.401C114.119 115.18 113.857 114.897 113.672 114.549C113.483 114.201 113.393 113.82 113.393 113.405H114.973C114.973 113.595 115.013 113.74 115.094 113.843C115.175 113.945 115.246 114.017 115.31 114.055C115.422 114.13 115.543 114.17 115.676 114.178C115.808 114.184 115.934 114.16 116.059 114.104C116.145 114.066 116.217 114.02 116.27 113.963C116.324 113.907 116.364 113.851 116.392 113.799C116.419 113.746 116.438 113.695 116.443 113.643C116.448 113.593 116.453 113.552 116.453 113.52C116.453 113.49 116.451 113.449 116.443 113.399C116.438 113.347 116.419 113.293 116.392 113.236C116.364 113.181 116.324 113.124 116.27 113.073C116.217 113.02 116.148 112.971 116.059 112.927C115.991 112.897 115.918 112.868 115.838 112.843C115.76 112.818 115.679 112.79 115.589 112.758C115.434 112.707 115.272 112.651 115.104 112.589C114.937 112.526 114.767 112.442 114.598 112.337C114.38 112.199 114.197 112.025 114.047 111.816C113.897 111.61 113.79 111.387 113.724 111.149C113.659 110.911 113.639 110.664 113.659 110.411C113.681 110.157 113.75 109.911 113.87 109.682C113.982 109.47 114.121 109.283 114.29 109.126C114.459 108.97 114.646 108.845 114.852 108.756C115.058 108.664 115.279 108.61 115.516 108.592C115.752 108.574 115.993 108.594 116.237 108.659C116.474 108.715 116.686 108.804 116.879 108.927C117.073 109.05 117.238 109.198 117.378 109.369C117.517 109.541 117.627 109.735 117.698 109.947C117.775 110.16 117.81 110.385 117.81 110.615H116.237C116.237 110.471 116.191 110.369 116.103 110.314C116.011 110.257 115.933 110.219 115.864 110.2C115.851 110.2 115.82 110.196 115.775 110.185C115.728 110.175 115.676 110.175 115.614 110.185C115.556 110.196 115.495 110.217 115.433 110.252C115.368 110.285 115.32 110.342 115.283 110.416C115.231 110.515 115.223 110.62 115.254 110.73C115.285 110.841 115.348 110.928 115.441 110.988C115.529 111.039 115.625 111.083 115.732 111.124C115.838 111.165 115.95 111.203 116.07 111.241C116.176 111.273 116.282 111.309 116.392 111.343C116.501 111.383 116.611 111.426 116.722 111.478C117.132 111.666 117.452 111.943 117.686 112.306C117.916 112.669 118.033 113.076 118.033 113.52C118.033 113.96 117.916 114.362 117.686 114.725C117.454 115.089 117.132 115.366 116.722 115.554C116.563 115.629 116.397 115.684 116.228 115.718C116.055 115.751 115.886 115.769 115.719 115.769Z" fill="#D4D9D8"/>
<path fill-rule="evenodd" clip-rule="evenodd" d="M125.458 108.715C125.934 108.715 126.376 108.807 126.795 108.988C127.212 109.17 127.575 109.419 127.888 109.728C128.2 110.039 128.445 110.405 128.624 110.825C128.805 111.244 128.897 111.695 128.897 112.174C128.897 112.651 128.805 113.099 128.624 113.521C128.445 113.94 128.198 114.306 127.888 114.618C127.575 114.927 127.212 115.176 126.795 115.358C126.378 115.539 125.934 115.63 125.458 115.63C124.984 115.63 124.542 115.539 124.124 115.358C123.705 115.176 123.343 114.927 123.035 114.618C122.728 114.306 122.484 113.94 122.304 113.521C122.124 113.101 122.032 112.651 122.032 112.174C122.032 111.695 122.124 111.248 122.304 110.825C122.484 110.403 122.728 110.039 123.035 109.728C123.345 109.419 123.705 109.17 124.124 108.988C124.54 108.807 124.984 108.715 125.458 108.715ZM125.465 114.037C125.72 114.037 125.959 113.989 126.186 113.893C126.41 113.794 126.608 113.662 126.775 113.49C126.943 113.321 127.075 113.122 127.171 112.897C127.267 112.672 127.316 112.428 127.316 112.17C127.316 111.911 127.267 111.672 127.171 111.445C127.075 111.219 126.943 111.019 126.775 110.851C126.608 110.682 126.41 110.549 126.186 110.451C125.962 110.354 125.72 110.306 125.465 110.306C125.208 110.306 124.969 110.354 124.742 110.451C124.519 110.549 124.322 110.682 124.153 110.851C123.986 111.019 123.853 111.219 123.757 111.445C123.66 111.669 123.612 111.911 123.612 112.17C123.612 112.428 123.66 112.669 123.757 112.897C123.853 113.122 123.986 113.321 124.153 113.49C124.322 113.659 124.519 113.791 124.742 113.893C124.969 113.989 125.208 114.037 125.465 114.037Z" fill="#D4D9D8"/>
<path fill-rule="evenodd" clip-rule="evenodd" d="M137.257 115.638H133.169V108.715H134.75V114.046H137.257V115.638Z" fill="#D4D9D8"/>
<path fill-rule="evenodd" clip-rule="evenodd" d="M144.307 115.638C143.958 115.638 143.627 115.575 143.317 115.447C143.004 115.319 142.727 115.135 142.482 114.897C142.234 114.647 142.041 114.362 141.909 114.05C141.774 113.736 141.705 113.401 141.697 113.043V108.72H143.277V113.033C143.277 113.308 143.38 113.552 143.585 113.758C143.791 113.953 144.035 114.05 144.314 114.05C144.451 114.05 144.584 114.022 144.709 113.966C144.832 113.91 144.942 113.833 145.036 113.74C145.13 113.647 145.201 113.536 145.252 113.411C145.303 113.285 145.325 113.149 145.325 113.007V108.715H146.906V112.992C146.911 113.35 146.847 113.688 146.715 114.009C146.581 114.329 146.398 114.608 146.164 114.849C145.931 115.087 145.656 115.279 145.34 115.419C145.026 115.56 144.69 115.634 144.335 115.641H144.307V115.638Z" fill="#D4D9D8"/>
<path fill-rule="evenodd" clip-rule="evenodd" d="M155.586 108.697V110.288H154.268V115.638H152.688V110.288H151.377V108.697H155.586Z" fill="#D4D9D8"/>
<path fill-rule="evenodd" clip-rule="evenodd" d="M161.637 115.638H160.055V108.715H161.637V115.638Z" fill="#D4D9D8"/>
<path fill-rule="evenodd" clip-rule="evenodd" d="M169.327 108.715C169.803 108.715 170.245 108.807 170.664 108.988C171.08 109.17 171.444 109.419 171.757 109.728C172.069 110.039 172.312 110.405 172.493 110.825C172.674 111.244 172.765 111.695 172.765 112.174C172.765 112.651 172.674 113.099 172.493 113.521C172.312 113.94 172.066 114.306 171.757 114.618C171.444 114.927 171.08 115.176 170.664 115.358C170.247 115.539 169.803 115.63 169.327 115.63C168.853 115.63 168.411 115.539 167.991 115.358C167.574 115.176 167.212 114.927 166.904 114.618C166.594 114.306 166.353 113.94 166.173 113.521C165.992 113.101 165.901 112.651 165.901 112.174C165.901 111.695 165.992 111.248 166.173 110.825C166.353 110.403 166.596 110.039 166.904 109.728C167.214 109.419 167.578 109.17 167.991 108.988C168.411 108.807 168.855 108.715 169.327 108.715ZM169.334 114.037C169.589 114.037 169.828 113.989 170.052 113.893C170.276 113.794 170.474 113.662 170.641 113.49C170.809 113.321 170.941 113.122 171.038 112.897C171.134 112.672 171.182 112.428 171.182 112.17C171.182 111.911 171.134 111.672 171.038 111.445C170.941 111.219 170.809 111.019 170.641 110.851C170.474 110.682 170.276 110.549 170.052 110.451C169.828 110.354 169.587 110.306 169.334 110.306C169.077 110.306 168.838 110.354 168.611 110.451C168.388 110.549 168.19 110.682 168.022 110.851C167.855 111.019 167.723 111.219 167.624 111.445C167.526 111.669 167.478 111.911 167.478 112.17C167.478 112.428 167.526 112.669 167.624 112.897C167.72 113.122 167.852 113.321 168.022 113.49C168.19 113.659 168.388 113.791 168.611 113.893C168.838 113.989 169.077 114.037 169.334 114.037Z" fill="#D4D9D8"/>
<path fill-rule="evenodd" clip-rule="evenodd" d="M180.996 108.725H182.577V115.638H180.865L178.619 111.607V115.638H177.039V108.743H178.761L180.996 112.763V108.725Z" fill="#D4D9D8"/>
<path fill-rule="evenodd" clip-rule="evenodd" d="M48.0357 62.5599H45.4927V63.4986H47.5556V64.9335H45.4927V65.9156H48.0357V67.348H44.0701V61.1353L48.0357 61.125V62.5599Z" fill="#D4D9D8"/>
<path fill-rule="evenodd" clip-rule="evenodd" d="M55.022 67.4683C54.8265 67.4683 54.6308 67.4427 54.4377 67.3889C54.2446 67.3352 54.0592 67.2508 53.8864 67.1383C53.5842 66.9414 53.3479 66.6856 53.1802 66.3709C53.0125 66.0564 52.9287 65.7136 52.9287 65.3403H54.3513C54.3513 65.5091 54.3869 65.642 54.4606 65.7341C54.5342 65.8262 54.5978 65.8901 54.6537 65.9259C54.7553 65.995 54.8646 66.0308 54.9813 66.036C55.0982 66.0411 55.2151 66.018 55.3269 65.9669C55.4056 65.9336 55.4691 65.8901 55.5175 65.839C55.5657 65.7878 55.6013 65.7393 55.6267 65.6905C55.6521 65.642 55.6673 65.596 55.6723 65.55C55.6775 65.5039 55.68 65.4681 55.68 65.4399C55.68 65.4118 55.6775 65.3761 55.6723 65.33C55.6673 65.2839 55.6521 65.2379 55.6267 65.1868C55.6013 65.1355 55.5657 65.087 55.5175 65.0384C55.4691 64.9899 55.4056 64.9463 55.3269 64.9079C55.2659 64.8797 55.1999 64.8541 55.1287 64.8312C55.0576 64.8082 54.9839 64.7826 54.9052 64.7545C54.7655 64.7085 54.6181 64.6573 54.4683 64.601C54.3157 64.5448 54.1658 64.4679 54.0135 64.3733C53.8179 64.2481 53.6501 64.0946 53.5155 63.9079C53.3809 63.7212 53.2844 63.5217 53.2259 63.3068C53.1674 63.0919 53.1472 62.8693 53.1674 62.6417C53.1879 62.4142 53.2513 62.1942 53.3581 61.9844C53.4597 61.7927 53.5867 61.6264 53.7365 61.4831C53.889 61.3424 54.0567 61.2299 54.2422 61.148C54.4275 61.0662 54.6257 61.0176 54.8391 60.9997C55.0526 60.9818 55.2684 61.0022 55.487 61.0585C55.7004 61.1097 55.8934 61.1889 56.0661 61.2989C56.2414 61.409 56.3888 61.5419 56.5133 61.6979C56.6403 61.854 56.7369 62.0279 56.8029 62.2197C56.8715 62.4115 56.9045 62.6136 56.9045 62.8208H55.4895C55.4895 62.6904 55.4489 62.6008 55.3675 62.5497C55.2862 62.4985 55.2151 62.4653 55.1541 62.4474C55.144 62.4474 55.1161 62.4423 55.0753 62.4346C55.0322 62.427 54.9864 62.427 54.9331 62.4346C54.8798 62.4423 54.8238 62.4628 54.768 62.4933C54.7121 62.5241 54.6664 62.5727 54.6334 62.6417C54.5875 62.7314 54.5801 62.826 54.608 62.9257C54.6359 63.0254 54.6918 63.1022 54.7756 63.1584C54.8544 63.2045 54.9408 63.2454 55.0372 63.2811C55.1338 63.317 55.2329 63.3528 55.3396 63.3861C55.436 63.4142 55.5326 63.4448 55.6292 63.4781C55.7283 63.5114 55.8249 63.5523 55.9264 63.5958C56.2947 63.7647 56.5845 64.0153 56.7927 64.3427C57.001 64.6701 57.1078 65.0358 57.1078 65.4374C57.1078 65.8339 57.0035 66.1944 56.7927 66.5219C56.5845 66.8492 56.2947 67.0974 55.9264 67.2688C55.7816 67.3352 55.6342 67.3864 55.4819 67.4171C55.3244 67.4529 55.1719 67.4683 55.022 67.4683Z" fill="#D4D9D8"/>
<path fill-rule="evenodd" clip-rule="evenodd" d="M65.6692 61.0996V62.5345H64.4828V67.3483H63.0601V62.5345H61.8813V61.0996H65.6692Z" fill="#D4D9D8"/>
<path fill-rule="evenodd" clip-rule="evenodd" d="M71.924 61.0995C72.3328 61.1225 72.719 61.2223 73.0824 61.3962C73.4456 61.5726 73.7581 61.8004 74.0249 62.0816C74.2916 62.363 74.5025 62.693 74.6574 63.0638C74.8124 63.4372 74.8886 63.8362 74.8886 64.2583C74.8886 64.6778 74.8123 65.0691 74.6624 65.4323C74.5101 65.798 74.3017 66.1178 74.035 66.3941C73.7683 66.6703 73.4559 66.8928 73.0949 67.059C72.7368 67.2253 72.3456 67.3199 71.924 67.343H70.5012V61.0867H71.924V61.0995ZM71.924 65.9081C72.1424 65.885 72.3456 65.8288 72.5335 65.7341C72.7217 65.6421 72.8842 65.5217 73.0214 65.3786C73.1586 65.2354 73.2677 65.0666 73.3466 64.8746C73.4253 64.6829 73.4633 64.4783 73.4633 64.2634C73.4633 64.0435 73.4253 63.8337 73.3466 63.6317C73.2677 63.4322 73.1586 63.2531 73.0188 63.0971C72.8791 62.9411 72.7165 62.8132 72.531 62.716C72.3456 62.6161 72.1449 62.5574 71.924 62.5343V65.9081Z" fill="#D4D9D8"/>
<path fill-rule="evenodd" clip-rule="evenodd" d="M143.891 65.9157V67.3481H139.757V65.8031C140.167 65.555 140.539 65.3018 140.873 65.0461C141.208 64.7928 141.492 64.5448 141.726 64.312C141.962 64.0766 142.145 63.8644 142.272 63.67C142.401 63.4781 142.465 63.3221 142.465 63.2045C142.465 63.0229 142.404 62.8694 142.28 62.7441C142.155 62.6187 142.005 62.5574 141.826 62.5574C141.645 62.5574 141.495 62.6212 141.37 62.7466C141.245 62.872 141.185 63.0254 141.185 63.2096H139.755C139.755 62.9206 139.811 62.652 139.92 62.3987C140.029 62.1481 140.179 61.9282 140.367 61.7363C140.554 61.547 140.773 61.3962 141.024 61.2861C141.274 61.1761 141.543 61.1199 141.83 61.1199C142.117 61.1199 142.384 61.1761 142.634 61.2861C142.881 61.3962 143.098 61.547 143.285 61.7363C143.471 61.9256 143.619 62.1456 143.73 62.3987C143.839 62.6495 143.893 62.9206 143.893 63.2096C143.893 64.0281 143.285 64.931 142.074 65.9132L143.891 65.9157Z" fill="#D4D9D8"/>
<path fill-rule="evenodd" clip-rule="evenodd" d="M151.822 61.1174C152.248 61.1174 152.647 61.1992 153.023 61.363C153.398 61.5267 153.727 61.7492 154.007 62.028C154.289 62.3069 154.508 62.6368 154.67 63.0153C154.832 63.3939 154.913 63.798 154.913 64.2277C154.913 64.6574 154.832 65.0615 154.67 65.44C154.508 65.8186 154.287 66.1485 154.007 66.4274C153.727 66.7062 153.397 66.9287 153.023 67.0925C152.647 67.2561 152.248 67.338 151.822 67.338C151.395 67.338 150.996 67.2561 150.619 67.0925C150.247 66.9287 149.92 66.7062 149.639 66.4274C149.362 66.1485 149.141 65.8186 148.979 65.44C148.817 65.0615 148.735 64.6574 148.735 64.2277C148.735 63.798 148.817 63.3939 148.979 63.0153C149.141 62.6368 149.36 62.3069 149.639 62.028C149.916 61.7492 150.244 61.5267 150.619 61.363C150.996 61.1992 151.395 61.1174 151.822 61.1174ZM151.827 65.9082C152.057 65.9082 152.274 65.8646 152.474 65.7778C152.678 65.6908 152.853 65.5705 153.005 65.417C153.159 65.2635 153.277 65.0871 153.365 64.8825C153.45 64.6778 153.494 64.4604 153.494 64.2302C153.494 63.9974 153.45 63.7801 153.365 63.578C153.277 63.3734 153.159 63.1969 153.005 63.0434C152.853 62.8899 152.678 62.7697 152.474 62.6829C152.272 62.5959 152.056 62.5523 151.827 62.5523C151.596 62.5523 151.379 62.5959 151.179 62.6829C150.975 62.7697 150.8 62.8899 150.648 63.0434C150.495 63.1969 150.376 63.3734 150.29 63.578C150.203 63.7827 150.159 64.0001 150.159 64.2302C150.159 64.4629 150.203 64.6805 150.29 64.8825C150.376 65.0871 150.495 65.2635 150.648 65.417C150.8 65.5705 150.975 65.6908 151.179 65.7778C151.379 65.8646 151.596 65.9082 151.827 65.9082Z" fill="#D4D9D8"/>
<path fill-rule="evenodd" clip-rule="evenodd" d="M163.899 65.9157V67.3481H159.766V65.8031C160.174 65.555 160.548 65.3018 160.881 65.0461C161.217 64.7928 161.5 64.5448 161.735 64.312C161.971 64.0766 162.154 63.8644 162.28 63.67C162.41 63.4781 162.474 63.3221 162.474 63.2045C162.474 63.0229 162.413 62.8694 162.288 62.7441C162.164 62.6187 162.014 62.5574 161.834 62.5574C161.654 62.5574 161.504 62.6212 161.379 62.7466C161.254 62.872 161.194 63.0254 161.194 63.2096H159.763C159.763 62.9206 159.82 62.652 159.928 62.3987C160.038 62.1481 160.188 61.9282 160.376 61.7363C160.563 61.547 160.782 61.3962 161.034 61.2861C161.283 61.1761 161.552 61.1199 161.839 61.1199C162.126 61.1199 162.393 61.1761 162.641 61.2861C162.89 61.3962 163.107 61.547 163.294 61.7363C163.479 61.9256 163.628 62.1456 163.739 62.3987C163.848 62.6495 163.902 62.9206 163.902 63.2096C163.902 64.0281 163.294 64.931 162.082 65.9132L163.899 65.9157Z" fill="#D4D9D8"/>
<path fill-rule="evenodd" clip-rule="evenodd" d="M171.831 61.1174C172.258 61.1174 172.656 61.1992 173.032 61.363C173.408 61.5267 173.736 61.7492 174.015 62.028C174.298 62.3069 174.516 62.6368 174.679 63.0153C174.841 63.3939 174.922 63.798 174.922 64.2277C174.922 64.6574 174.841 65.0615 174.679 65.44C174.516 65.8186 174.294 66.1485 174.015 66.4274C173.736 66.7062 173.405 66.9287 173.032 67.0925C172.656 67.2561 172.258 67.338 171.831 67.338C171.404 67.338 171.004 67.2561 170.628 67.0925C170.255 66.9287 169.928 66.7062 169.648 66.4274C169.371 66.1485 169.15 65.8186 168.988 65.44C168.825 65.0615 168.744 64.6574 168.744 64.2277C168.744 63.798 168.825 63.3939 168.988 63.0153C169.15 62.6368 169.368 62.3069 169.648 62.028C169.925 61.7492 170.253 61.5267 170.628 61.363C171.004 61.1992 171.404 61.1174 171.831 61.1174ZM171.835 65.9082C172.066 65.9082 172.283 65.8646 172.483 65.7778C172.687 65.6908 172.861 65.5705 173.014 65.417C173.167 65.2635 173.286 65.0871 173.372 64.8825C173.459 64.6778 173.503 64.4604 173.503 64.2302C173.503 63.9974 173.459 63.7801 173.372 63.578C173.286 63.3734 173.167 63.1969 173.014 63.0434C172.861 62.8899 172.687 62.7697 172.483 62.6829C172.283 62.5959 172.064 62.5523 171.835 62.5523C171.604 62.5523 171.388 62.5959 171.188 62.6829C170.986 62.7697 170.809 62.8899 170.657 63.0434C170.505 63.1969 170.385 63.3734 170.299 63.578C170.212 63.7827 170.168 64.0001 170.168 64.2302C170.168 64.4629 170.212 64.6805 170.299 64.8825C170.385 65.0871 170.505 65.2635 170.657 65.417C170.809 65.5705 170.984 65.6908 171.188 65.7778C171.388 65.8646 171.604 65.9082 171.835 65.9082Z" fill="#D4D9D8"/>
<path fill-rule="evenodd" clip-rule="evenodd" d="M88.7976 63.3784H90.8274V55.5696H88.7976V63.3784Z" fill="#D4D9D8"/>
<path fill-rule="evenodd" clip-rule="evenodd" d="M92.3745 63.3785H94.4069V47.3516H92.3745V63.3785Z" fill="#D4D9D8"/>
<path fill-rule="evenodd" clip-rule="evenodd" d="M95.9541 63.3784H97.9865V39.2305H95.9541V63.3784Z" fill="#D4D9D8"/>
<path fill-rule="evenodd" clip-rule="evenodd" d="M99.5337 63.3784H101.564V30.8564H99.5337V63.3784Z" fill="#D4D9D8"/>
<path fill-rule="evenodd" clip-rule="evenodd" d="M103.113 63.3785H105.143V22.6282H103.113V63.3785Z" fill="#D4D9D8"/>
<path fill-rule="evenodd" clip-rule="evenodd" d="M106.693 63.3785H108.722V14.3333H106.693V63.3785Z" fill="#D4D9D8"/>
<path fill-rule="evenodd" clip-rule="evenodd" d="M130.2 63.3784H128.171V55.5696H130.2V63.3784Z" fill="#D4D9D8"/>
<path fill-rule="evenodd" clip-rule="evenodd" d="M126.62 63.3785H124.59V47.3516H126.62V63.3785Z" fill="#D4D9D8"/>
<path fill-rule="evenodd" clip-rule="evenodd" d="M123.041 63.3784H121.011V39.2305H123.041V63.3784Z" fill="#D4D9D8"/>
<path fill-rule="evenodd" clip-rule="evenodd" d="M119.461 63.3784H117.431V30.8564H119.461V63.3784Z" fill="#D4D9D8"/>
<path fill-rule="evenodd" clip-rule="evenodd" d="M115.882 63.3785H113.852V22.6282H115.882V63.3785Z" fill="#D4D9D8"/>
<path fill-rule="evenodd" clip-rule="evenodd" d="M112.302 63.3785H110.272V14.3333H112.302V63.3785Z" fill="#D4D9D8"/>
<path fill-rule="evenodd" clip-rule="evenodd" d="M133.968 67.4683V65.4246H85.03V67.4683H133.968Z" fill="#D4D9D8"/>
</svg>
