<svg width="219" height="129" viewBox="0 0 219 129" fill="none" xmlns="http://www.w3.org/2000/svg">
<path fill-rule="evenodd" clip-rule="evenodd" d="M34.1464 96.9811C33.8816 97.0219 33.6167 97.0518 33.3519 97.0737C33.0872 97.0926 32.8143 97.1145 32.5279 97.1363V102.821H27.375V80.3523H32.5306C33.8113 80.3741 35.0111 80.6083 36.1297 81.0602C37.2484 81.5123 38.2292 82.1167 39.0723 82.8683C39.9153 83.6253 40.5773 84.5075 41.0556 85.5122C41.5339 86.5115 41.7716 87.5871 41.7716 88.7333C41.7716 89.9369 41.5176 91.0587 41.0096 92.0935C40.5016 93.1281 39.7882 94.0185 38.875 94.7782L43.8171 102.821H37.7455L34.1464 96.9811ZM32.5306 91.911C33.0791 91.8892 33.6033 91.7939 34.1005 91.6197C34.5976 91.4454 35.0354 91.214 35.411 90.9281C35.7866 90.6421 36.081 90.3072 36.2945 89.9287C36.508 89.5503 36.616 89.1446 36.616 88.7144C36.616 88.284 36.508 87.8839 36.2945 87.5162C36.081 87.146 35.7866 86.8192 35.411 86.5333C35.0354 86.2474 34.5976 86.0159 34.1005 85.8417C33.6033 85.6674 33.0791 85.5694 32.5306 85.5503V91.911Z" fill="#D4D9D8"/>
<path fill-rule="evenodd" clip-rule="evenodd" d="M57.8817 85.0169H49.4591V88.1356H56.291V92.8847H49.4591V96.1428H57.8817V100.892H44.7463V80.2952L57.8817 80.2678V85.0169Z" fill="#D4D9D8"/>
<path fill-rule="evenodd" clip-rule="evenodd" d="M72.6054 100.892L71.7978 98.3903H65.356L64.5186 100.892H59.5269L66.4972 80.2678H70.9579L77.5676 100.892H72.6054ZM66.9714 93.6438H70.2885L68.6708 88.6433L66.9714 93.6438Z" fill="#D4D9D8"/>
<path fill-rule="evenodd" clip-rule="evenodd" d="M91.733 100.892H79.5486V80.2405H84.2612V96.1429H91.733V100.892Z" fill="#D4D9D8"/>
<path fill-rule="evenodd" clip-rule="evenodd" d="M111.811 85.0169H103.389V88.1356H110.22V92.8847H103.389V96.1428H111.811V100.892H98.676V80.2952L111.811 80.2678V85.0169Z" fill="#D4D9D8"/>
<path fill-rule="evenodd" clip-rule="evenodd" d="M120.901 101.285C120.252 101.285 119.604 101.196 118.962 101.018C118.32 100.839 117.713 100.563 117.137 100.19C116.134 99.5352 115.351 98.6865 114.795 97.646C114.237 96.6057 113.958 95.4681 113.958 94.2312H118.671C118.671 94.7937 118.792 95.2292 119.034 95.5379C119.276 95.8464 119.489 96.058 119.676 96.1702C120.01 96.3942 120.372 96.5161 120.763 96.536C121.153 96.5558 121.533 96.4788 121.906 96.3119C122.166 96.1999 122.376 96.058 122.534 95.8913C122.691 95.7221 122.813 95.5578 122.897 95.3985C122.982 95.2393 123.033 95.0849 123.05 94.9355C123.07 94.7862 123.077 94.6643 123.077 94.5696C123.077 94.4751 123.067 94.3531 123.05 94.2038C123.033 94.0544 122.982 93.8951 122.897 93.7259C122.813 93.5566 122.691 93.3924 122.534 93.233C122.376 93.0738 122.166 92.9294 121.906 92.7975C121.702 92.7029 121.484 92.6208 121.252 92.5436C121.019 92.4664 120.772 92.3843 120.514 92.2897C120.049 92.1404 119.564 91.9711 119.064 91.7845C118.562 91.5977 118.061 91.3439 117.557 91.0254C116.907 90.6121 116.358 90.0969 115.912 89.4796C115.464 88.8624 115.146 88.1953 114.951 87.4859C114.756 86.774 114.691 86.0398 114.756 85.2807C114.82 84.5215 115.03 83.7972 115.383 83.1028C115.716 82.4655 116.137 81.9129 116.637 81.445C117.139 80.977 117.697 80.6062 118.31 80.3349C118.922 80.0637 119.585 79.8993 120.291 79.8421C120.998 79.7848 121.714 79.8521 122.437 80.0388C123.144 80.208 123.781 80.4743 124.352 80.8402C124.926 81.2061 125.421 81.6466 125.834 82.1618C126.251 82.6771 126.572 83.2521 126.791 83.8892C127.015 84.5265 127.126 85.1909 127.126 85.8854H122.437C122.437 85.4549 122.302 85.1562 122.032 84.987C121.763 84.8177 121.526 84.7057 121.321 84.6509C121.284 84.6509 121.196 84.636 121.057 84.6086C120.918 84.5812 120.76 84.5812 120.583 84.6086C120.405 84.636 120.224 84.7031 120.039 84.8052C119.854 84.9072 119.705 85.0715 119.592 85.298C119.444 85.5968 119.416 85.9128 119.507 86.2389C119.601 86.5674 119.788 86.8238 120.067 87.0105C120.326 87.1599 120.614 87.2967 120.931 87.4187C121.247 87.5407 121.58 87.6576 121.934 87.7697C122.249 87.8642 122.571 87.9663 122.894 88.0782C123.22 88.1902 123.544 88.3222 123.88 88.4716C125.098 89.034 126.055 89.8579 126.747 90.9431C127.439 92.0284 127.788 93.2381 127.788 94.5671C127.788 95.8789 127.439 97.0786 126.747 98.1638C126.055 99.2491 125.098 100.075 123.88 100.636C123.401 100.86 122.909 101.024 122.408 101.129C121.906 101.235 121.403 101.285 120.901 101.285Z" fill="#D4D9D8"/>
<path fill-rule="evenodd" clip-rule="evenodd" d="M142.12 80.1831V84.9322H138.19V100.891H133.478V84.9322H129.573V80.1831H142.12Z" fill="#D4D9D8"/>
<path fill-rule="evenodd" clip-rule="evenodd" d="M156.427 100.892L155.619 98.3903H149.177L148.341 100.892H143.349L150.318 80.2678H154.779L161.387 100.892H156.427ZM150.796 93.6438H154.112L152.495 88.6433L150.796 93.6438Z" fill="#D4D9D8"/>
<path fill-rule="evenodd" clip-rule="evenodd" d="M175.11 80.1831V84.9322H171.178V100.891H166.465V84.9322H162.562V80.1831H175.11Z" fill="#D4D9D8"/>
<path fill-rule="evenodd" clip-rule="evenodd" d="M190.53 85.0169H182.109V88.1356H188.941V92.8847H182.109V96.1428H190.53V100.892H177.396V80.2952L190.53 80.2678V85.0169Z" fill="#D4D9D8"/>
<path fill-rule="evenodd" clip-rule="evenodd" d="M30.5513 117.945L31.4529 115.724L28.7952 110.049H30.7736L32.3718 113.452L33.7377 110.049H35.6766L32.4902 117.945H30.5513Z" fill="#D4D9D8"/>
<path fill-rule="evenodd" clip-rule="evenodd" d="M44.6106 110.101C45.1466 110.101 45.6505 110.203 46.1222 110.41C46.5941 110.617 47.0065 110.896 47.3597 111.247C47.7129 111.597 47.9896 112.013 48.1946 112.488C48.3996 112.963 48.5008 113.474 48.5008 114.014C48.5008 114.554 48.3996 115.064 48.1946 115.54C47.9896 116.015 47.7129 116.431 47.3597 116.782C47.0065 117.133 46.5941 117.414 46.1222 117.618C45.6505 117.824 45.1466 117.927 44.6106 117.927C44.0747 117.927 43.5708 117.824 43.099 117.618C42.6272 117.412 42.2172 117.133 41.8665 116.782C41.5182 116.431 41.2416 116.015 41.0366 115.54C40.8316 115.064 40.7302 114.554 40.7302 114.014C40.7302 113.474 40.8316 112.967 41.0366 112.488C41.2416 112.013 41.5158 111.597 41.8665 111.247C42.2147 110.896 42.6272 110.614 43.099 110.41C43.5708 110.206 44.0747 110.101 44.6106 110.101ZM44.6155 116.13C44.9046 116.13 45.1763 116.075 45.4307 115.965C45.6851 115.856 45.9074 115.704 46.0976 115.512C46.2877 115.32 46.4384 115.097 46.5471 114.84C46.6558 114.584 46.7101 114.311 46.7101 114.019C46.7101 113.728 46.6558 113.454 46.5471 113.197C46.4384 112.941 46.2877 112.717 46.0976 112.525C45.9074 112.334 45.6851 112.183 45.4307 112.072C45.1763 111.962 44.9046 111.908 44.6155 111.908C44.3266 111.908 44.0549 111.962 43.8005 112.072C43.5461 112.183 43.3237 112.334 43.1335 112.525C42.9433 112.717 42.7927 112.941 42.684 113.197C42.5753 113.454 42.521 113.728 42.521 114.019C42.521 114.311 42.5753 114.584 42.684 114.84C42.7927 115.097 42.9433 115.32 43.1335 115.512C43.3237 115.704 43.5461 115.856 43.8005 115.965C44.0549 116.075 44.3266 116.13 44.6155 116.13Z" fill="#D4D9D8"/>
<path fill-rule="evenodd" clip-rule="evenodd" d="M56.5208 117.945C56.1256 117.945 55.7501 117.872 55.3995 117.725C55.0462 117.579 54.7325 117.372 54.4583 117.1C54.1767 116.817 53.9593 116.496 53.8063 116.139C53.6556 115.784 53.5741 115.403 53.5691 114.997V110.101H55.3574V114.988C55.3574 115.301 55.4735 115.575 55.7057 115.809C55.9379 116.029 56.2145 116.139 56.5306 116.139C56.6862 116.139 56.8345 116.108 56.9753 116.043C57.1161 115.978 57.2396 115.893 57.3457 115.787C57.452 115.679 57.5335 115.554 57.5903 115.412C57.6471 115.271 57.6744 115.117 57.6744 114.954V110.101H59.4625V114.946C59.4699 115.35 59.3983 115.734 59.2451 116.097C59.0946 116.461 58.8846 116.777 58.6202 117.046C58.356 117.316 58.0448 117.531 57.6891 117.69C57.3335 117.849 56.953 117.934 56.5504 117.941L56.5208 117.945Z" fill="#D4D9D8"/>
<path fill-rule="evenodd" clip-rule="evenodd" d="M67.4086 115.915C67.3171 115.93 67.2257 115.941 67.1343 115.948C67.0429 115.956 66.9466 115.963 66.8478 115.971V117.945H65.0596V110.146H66.8478C67.2924 110.154 67.7098 110.236 68.0977 110.393C68.4854 110.549 68.8263 110.758 69.1202 111.019C69.4141 111.284 69.6414 111.589 69.8092 111.938C69.9748 112.284 70.0587 112.658 70.0587 113.056C70.0587 113.474 69.9699 113.862 69.7946 114.222C69.619 114.582 69.3721 114.893 69.0535 115.154L70.7677 117.947H68.6608L67.4086 115.915ZM66.8478 114.156C67.038 114.149 67.2208 114.117 67.3937 114.054C67.5666 113.994 67.7172 113.915 67.8482 113.814C67.9791 113.715 68.0804 113.602 68.1544 113.469C68.2285 113.337 68.2656 113.197 68.2656 113.048C68.2656 112.899 68.2285 112.76 68.1544 112.632C68.0804 112.506 67.9791 112.391 67.8482 112.292C67.7172 112.191 67.5666 112.112 67.3937 112.053C67.2208 111.993 67.038 111.958 66.8478 111.95V114.156Z" fill="#D4D9D8"/>
<path fill-rule="evenodd" clip-rule="evenodd" d="M82.3322 110.082V111.883H80.8404V117.945H79.0496V111.883H77.5676V110.082H82.3322Z" fill="#D4D9D8"/>
<path fill-rule="evenodd" clip-rule="evenodd" d="M92.0664 117.945L91.7602 116.995H89.3149L88.9963 117.945H87.1018L89.7496 110.113H91.444L93.9536 117.945H92.0664ZM89.9275 115.191H91.1871L90.5722 113.293L89.9275 115.191Z" fill="#D4D9D8"/>
<path fill-rule="evenodd" clip-rule="evenodd" d="M105.325 113.559V117.945H103.525V117.752C103.327 117.824 103.125 117.875 102.917 117.906C102.71 117.939 102.502 117.955 102.297 117.955C101.796 117.955 101.307 117.858 100.825 117.666C100.346 117.474 99.9136 117.185 99.5332 116.801C99.1528 116.419 98.8688 115.985 98.681 115.505C98.4934 115.025 98.3994 114.531 98.3994 114.026C98.3994 113.521 98.4934 113.026 98.681 112.543C98.8688 112.06 99.1528 111.625 99.5332 111.241C99.9136 110.857 100.346 110.57 100.825 110.378C101.304 110.186 101.796 110.089 102.297 110.089C102.798 110.089 103.288 110.186 103.769 110.378C104.248 110.57 104.681 110.857 105.061 111.241L103.791 112.521C103.586 112.314 103.354 112.159 103.092 112.058C102.831 111.955 102.566 111.904 102.297 111.904C102.028 111.904 101.764 111.955 101.504 112.058C101.242 112.159 101.01 112.316 100.805 112.521C100.6 112.727 100.445 112.961 100.338 113.225C100.232 113.489 100.18 113.756 100.18 114.024C100.18 114.295 100.232 114.562 100.338 114.822C100.445 115.087 100.6 115.321 100.805 115.527C100.988 115.712 101.195 115.856 101.425 115.96C101.655 116.063 101.892 116.125 102.134 116.142C102.379 116.16 102.618 116.138 102.86 116.072C103.1 116.007 103.322 115.902 103.527 115.752V115.355H101.971V113.553H105.325V113.559Z" fill="#D4D9D8"/>
<path fill-rule="evenodd" clip-rule="evenodd" d="M115.327 117.945H110.698V110.101H112.488V116.139H115.327V117.945Z" fill="#D4D9D8"/>
<path fill-rule="evenodd" clip-rule="evenodd" d="M122.371 117.945H120.58V110.101H122.371V117.945Z" fill="#D4D9D8"/>
<path fill-rule="evenodd" clip-rule="evenodd" d="M132.434 110.111H134.222V117.944H132.286L129.743 113.377V117.944H127.955V110.133H129.902L132.434 114.689V110.111Z" fill="#D4D9D8"/>
<path fill-rule="evenodd" clip-rule="evenodd" d="M145.071 112.085H141.572V113.381H144.412V115.352H141.572V116.705H145.071V118.68H139.616V110.125L145.071 110.111V112.085Z" fill="#D4D9D8"/>
<path fill-rule="evenodd" clip-rule="evenodd" d="M155.703 110.111H157.492V117.944H155.703V114.987H153.458V117.944H151.669V110.111H153.458V113.185H155.703V110.111Z" fill="#D4D9D8"/>
<path fill-rule="evenodd" clip-rule="evenodd" d="M167.787 111.916H164.591V113.1H167.184V114.903H164.591V116.138H167.787V117.944H162.8V110.124L167.787 110.111V111.916Z" fill="#D4D9D8"/>
<path fill-rule="evenodd" clip-rule="evenodd" d="M175.583 115.915C175.492 115.93 175.402 115.941 175.307 115.948C175.216 115.956 175.12 115.963 175.02 115.971V117.945H173.233V110.146H175.02C175.465 110.154 175.883 110.236 176.271 110.393C176.659 110.549 176.999 110.758 177.294 111.019C177.587 111.284 177.815 111.589 177.982 111.938C178.148 112.284 178.232 112.658 178.232 113.056C178.232 113.474 178.143 113.862 177.968 114.222C177.793 114.582 177.546 114.893 177.227 115.154L178.941 117.947H176.834L175.583 115.915ZM175.024 114.156C175.213 114.149 175.396 114.117 175.569 114.054C175.742 113.994 175.892 113.915 176.025 113.814C176.155 113.715 176.256 113.602 176.33 113.469C176.403 113.337 176.441 113.197 176.441 113.048C176.441 112.899 176.403 112.76 176.33 112.632C176.256 112.506 176.155 112.391 176.025 112.292C175.892 112.191 175.742 112.112 175.569 112.053C175.396 111.993 175.213 111.958 175.024 111.95V114.156Z" fill="#D4D9D8"/>
<path fill-rule="evenodd" clip-rule="evenodd" d="M189.12 111.916H185.921V113.1H188.517V114.903H185.921V116.138H189.12V117.944H184.133V110.124L189.12 110.111V111.916Z" fill="#D4D9D8"/>
<path fill-rule="evenodd" clip-rule="evenodd" d="M53.1073 66.5308H50.3162V67.5662H52.5812V69.1394H50.3162V70.2195H53.1073V71.7927H48.7551V64.9677L53.1073 64.9578V66.5308Z" fill="#D4D9D8"/>
<path fill-rule="evenodd" clip-rule="evenodd" d="M56.4617 71.9246C56.2468 71.9246 56.0319 71.8947 55.8194 71.835C55.6071 71.7752 55.4045 71.6832 55.2144 71.5612C54.8809 71.3447 54.6216 71.0634 54.4388 70.7174C54.2559 70.3714 54.1621 69.9956 54.1621 69.5849H55.7231C55.7231 69.7716 55.7627 69.916 55.8441 70.0181C55.9232 70.1201 55.9949 70.1897 56.0567 70.2271C56.1678 70.3018 56.2888 70.3416 56.4173 70.3491C56.5457 70.3564 56.674 70.3316 56.7951 70.2744C56.8816 70.237 56.9507 70.1897 57.0025 70.1349C57.0545 70.0802 57.094 70.0255 57.1236 69.9732C57.1508 69.9209 57.1681 69.8687 57.1754 69.8188C57.1829 69.7691 57.1854 69.7293 57.1854 69.6969C57.1854 69.6646 57.1829 69.6248 57.1754 69.5749C57.1705 69.5252 57.1533 69.473 57.1236 69.4157C57.0965 69.3609 57.057 69.3061 57.0025 69.2539C56.9507 69.2016 56.8816 69.1518 56.7951 69.1094C56.7285 69.0796 56.6543 69.0498 56.5778 69.0249C56.5011 69 56.4197 68.9726 56.3332 68.9403C56.1801 68.8905 56.0196 68.8357 55.8516 68.7735C55.6861 68.7112 55.5182 68.6266 55.3527 68.5221C55.1378 68.3852 54.955 68.2159 54.8068 68.0093C54.6586 67.8053 54.5524 67.5837 54.4882 67.3473C54.4239 67.1108 54.4018 66.8668 54.4239 66.6155C54.4461 66.3641 54.5154 66.1226 54.6314 65.8937C54.7426 65.6821 54.8809 65.5004 55.0464 65.3436C55.2118 65.1893 55.397 65.0648 55.5996 64.9753C55.8022 64.8856 56.022 64.8308 56.2566 64.8134C56.4914 64.796 56.7285 64.8159 56.968 64.8781C57.2027 64.9329 57.4126 65.0224 57.6028 65.1445C57.793 65.2664 57.956 65.4108 58.0944 65.5826C58.2327 65.7543 58.3389 65.9434 58.4105 66.155C58.4846 66.3666 58.5216 66.5857 58.5216 66.8171H56.968C56.968 66.6752 56.9236 66.5756 56.8347 66.5184C56.7458 66.4636 56.6667 66.4263 56.5999 66.4064C56.5876 66.4064 56.5581 66.4014 56.5111 66.3914C56.4641 66.3816 56.4122 66.3816 56.353 66.3914C56.2937 66.4014 56.2344 66.4214 56.1726 66.4562C56.1109 66.491 56.0615 66.5458 56.0245 66.618C55.9751 66.7175 55.9652 66.8221 55.9973 66.9291C56.027 67.0386 56.0888 67.1233 56.1826 67.1855C56.269 67.2352 56.3654 67.2801 56.4691 67.3199C56.5729 67.3598 56.684 67.3995 56.8025 67.437C56.9087 67.4667 57.0125 67.5016 57.1211 67.5389C57.2299 67.5762 57.3361 67.6186 57.4472 67.6683C57.8498 67.8551 58.1684 68.1288 58.3982 68.4873C58.6278 68.8482 58.7439 69.2489 58.7439 69.6894C58.7439 70.1251 58.6278 70.5207 58.3982 70.8817C58.1684 71.2426 57.8523 71.5139 57.4472 71.7006C57.2891 71.7752 57.1261 71.83 56.9581 71.8624C56.7926 71.9072 56.6272 71.9246 56.4617 71.9246Z" fill="#D4D9D8"/>
<path fill-rule="evenodd" clip-rule="evenodd" d="M63.8344 64.9302V66.5033H62.5328V71.7924H60.9693V66.5033H59.6775V64.9302H63.8344Z" fill="#D4D9D8"/>
<path fill-rule="evenodd" clip-rule="evenodd" d="M66.386 64.9303C66.8355 64.9552 67.2603 65.0647 67.6555 65.2564C68.0532 65.4481 68.3989 65.6995 68.6904 66.0106C68.9844 66.3217 69.214 66.6802 69.3845 67.0908C69.5549 67.5015 69.639 67.9371 69.639 68.4051C69.639 68.8655 69.5549 69.2936 69.3894 69.6944C69.224 70.0951 68.9943 70.446 68.7003 70.7522C68.4089 71.0558 68.0631 71.2997 67.6703 71.484C67.2751 71.6681 66.8478 71.7702 66.386 71.7951H64.825V64.9204H66.386V64.9303ZM66.386 70.2096C66.6255 70.1847 66.8504 70.12 67.0554 70.0179C67.2627 69.9159 67.4407 69.7839 67.5912 69.6271C67.7419 69.4678 67.8605 69.2837 67.947 69.0721C68.0334 68.8605 68.0753 68.6366 68.0753 68.4026C68.0753 68.1612 68.0334 67.9296 67.947 67.7081C67.8605 67.4866 67.7395 67.2925 67.5863 67.1207C67.4332 66.949 67.2529 66.8095 67.0504 66.7026C66.8478 66.5931 66.6255 66.5283 66.386 66.5035V70.2096Z" fill="#D4D9D8"/>
<path fill-rule="evenodd" clip-rule="evenodd" d="M149.189 64.9404H150.751V71.7926H149.189V67.4343L148.728 68.0118L147.515 67.0162L149.189 64.9404Z" fill="#D4D9D8"/>
<path d="M154.281 69.8835C153.972 69.8536 153.682 69.7664 153.412 69.6271C153.139 69.4877 152.905 69.3085 152.704 69.092C152.504 68.8754 152.346 68.6239 152.232 68.3378C152.12 68.0516 152.063 67.7479 152.063 67.4243C152.063 67.0833 152.126 66.7622 152.258 66.461C152.386 66.1599 152.561 65.8985 152.783 65.6745C153.007 65.4505 153.265 65.2738 153.564 65.1443C153.863 65.0149 154.182 64.9478 154.52 64.9478C154.858 64.9478 155.177 65.0124 155.471 65.1443C155.767 65.2738 156.028 65.4505 156.247 65.6745C156.469 65.8985 156.644 66.1599 156.772 66.461C156.9 66.7622 156.967 67.0833 156.967 67.4243C156.967 67.7902 156.892 68.1436 156.736 68.4871L155.074 71.7926H153.327L154.281 69.8835ZM154.52 66.5232C154.396 66.5232 154.281 66.5456 154.175 66.593C154.066 66.6403 153.972 66.705 153.888 66.7896C153.804 66.8743 153.739 66.9689 153.693 67.0782C153.646 67.1878 153.624 67.3024 153.624 67.4268C153.624 67.5512 153.646 67.6682 153.693 67.7753C153.739 67.8848 153.804 67.9793 153.888 68.059C153.972 68.1387 154.066 68.2034 154.175 68.2507C154.283 68.2979 154.396 68.3203 154.52 68.3203C154.767 68.3203 154.978 68.2332 155.147 68.059C155.32 67.8848 155.407 67.6732 155.407 67.4268C155.407 67.3024 155.384 67.1853 155.338 67.0782C155.291 66.9689 155.229 66.8743 155.147 66.7896C155.069 66.705 154.974 66.6403 154.866 66.593C154.76 66.5456 154.644 66.5232 154.52 66.5232Z" fill="#D4D9D8"/>
<path d="M154.281 69.8835C153.972 69.8536 153.682 69.7664 153.412 69.6271C153.139 69.4877 152.905 69.3085 152.704 69.092C152.504 68.8754 152.346 68.6239 152.232 68.3378C152.12 68.0516 152.063 67.7479 152.063 67.4243C152.063 67.0833 152.126 66.7622 152.258 66.461C152.386 66.1599 152.561 65.8985 152.783 65.6745C153.007 65.4505 153.265 65.2738 153.564 65.1443C153.863 65.0149 154.182 64.9478 154.52 64.9478C154.858 64.9478 155.177 65.0124 155.471 65.1443C155.767 65.2738 156.028 65.4505 156.247 65.6745C156.469 65.8985 156.644 66.1599 156.772 66.461C156.9 66.7622 156.967 67.0833 156.967 67.4243C156.967 67.7902 156.892 68.1436 156.736 68.4871L155.074 71.7926H153.327L154.281 69.8835ZM154.52 66.5232C154.396 66.5232 154.281 66.5456 154.175 66.593C154.066 66.6403 153.972 66.705 153.888 66.7896C153.804 66.8743 153.739 66.9689 153.693 67.0782C153.646 67.1878 153.624 67.3024 153.624 67.4268C153.624 67.5512 153.646 67.6682 153.693 67.7753C153.739 67.8848 153.804 67.9793 153.888 68.059C153.972 68.1387 154.066 68.2034 154.175 68.2507C154.283 68.2979 154.396 68.3203 154.52 68.3203C154.767 68.3203 154.978 68.2332 155.147 68.059C155.32 67.8848 155.407 67.6732 155.407 67.4268C155.407 67.3024 155.384 67.1853 155.338 67.0782C155.291 66.9689 155.229 66.8743 155.147 66.7896C155.069 66.705 154.974 66.6403 154.866 66.593C154.76 66.5456 154.644 66.5232 154.52 66.5232Z" fill="#D4D9D8"/>
<path fill-rule="evenodd" clip-rule="evenodd" d="M160.369 69.8835C160.061 69.8536 159.77 69.7664 159.5 69.6271C159.228 69.4877 158.993 69.3085 158.793 69.092C158.593 68.8754 158.434 68.6239 158.322 68.3378C158.208 68.0516 158.151 67.7479 158.151 67.4243C158.151 67.0833 158.214 66.7622 158.347 66.461C158.475 66.1599 158.65 65.8985 158.871 65.6745C159.095 65.4505 159.354 65.2738 159.652 65.1443C159.952 65.0149 160.27 64.9478 160.609 64.9478C160.948 64.9478 161.266 65.0124 161.56 65.1443C161.856 65.2738 162.113 65.4505 162.335 65.6745C162.558 65.8985 162.733 66.1599 162.862 66.461C162.99 66.7622 163.056 67.0833 163.056 67.4243C163.056 67.7902 162.98 68.1436 162.824 68.4871L161.162 71.7926H159.416L160.369 69.8835ZM160.611 66.5232C160.488 66.5232 160.372 66.5456 160.265 66.593C160.157 66.6403 160.063 66.705 159.978 66.7896C159.894 66.8743 159.831 66.9689 159.784 67.0782C159.736 67.1878 159.715 67.3024 159.715 67.4268C159.715 67.5512 159.736 67.6682 159.784 67.7753C159.831 67.8848 159.894 67.9793 159.978 68.059C160.063 68.1387 160.157 68.2034 160.265 68.2507C160.374 68.2979 160.488 68.3203 160.611 68.3203C160.858 68.3203 161.068 68.2332 161.239 68.059C161.412 67.8848 161.498 67.6732 161.498 67.4268C161.498 67.3024 161.475 67.1853 161.429 67.0782C161.381 66.9689 161.32 66.8743 161.239 66.7896C161.16 66.705 161.066 66.6403 160.957 66.593C160.848 66.5456 160.735 66.5232 160.611 66.5232Z" fill="#D4D9D8"/>
<path fill-rule="evenodd" clip-rule="evenodd" d="M166.46 69.8835C166.152 69.8536 165.862 69.7664 165.591 69.6271C165.319 69.4877 165.084 69.3085 164.884 69.092C164.684 68.8754 164.526 68.6239 164.412 68.3378C164.299 68.0516 164.242 67.7479 164.242 67.4243C164.242 67.0833 164.306 66.7622 164.437 66.461C164.565 66.1599 164.741 65.8985 164.963 65.6745C165.186 65.4505 165.445 65.2738 165.744 65.1443C166.043 65.0149 166.361 64.9478 166.7 64.9478C167.038 64.9478 167.357 65.0124 167.651 65.1443C167.947 65.2738 168.206 65.4505 168.426 65.6745C168.649 65.8985 168.824 66.1599 168.952 66.461C169.08 66.7622 169.147 67.0833 169.147 67.4243C169.147 67.7902 169.07 68.1436 168.916 68.4871L167.254 71.7926H165.507L166.46 69.8835ZM166.7 66.5232C166.576 66.5232 166.46 66.5456 166.355 66.593C166.245 66.6403 166.152 66.705 166.068 66.7896C165.983 66.8743 165.919 66.9689 165.873 67.0782C165.826 67.1878 165.803 67.3024 165.803 67.4268C165.803 67.5512 165.826 67.6682 165.873 67.7753C165.919 67.8848 165.983 67.9793 166.068 68.059C166.152 68.1387 166.245 68.2034 166.355 68.2507C166.463 68.2979 166.576 68.3203 166.7 68.3203C166.946 68.3203 167.157 68.2332 167.327 68.059C167.5 67.8848 167.587 67.6732 167.587 67.4268C167.587 67.3024 167.564 67.1853 167.518 67.0782C167.47 66.9689 167.408 66.8743 167.327 66.7896C167.248 66.705 167.154 66.6403 167.046 66.593C166.939 66.5456 166.823 66.5232 166.7 66.5232Z" fill="#D4D9D8"/>
<path fill-rule="evenodd" clip-rule="evenodd" d="M87.0303 77.543V54.5835L98.1357 47.9314V27.5534L123.892 12.1282V35.2618L134.997 41.9138V77.543H131.452V43.937L123.892 39.4088V77.543H120.346V37.285L112.786 32.7568V39.1529V77.5402H109.241V45.4264L101.681 49.9546V77.543H98.1357V52.0785L90.5753 56.6066V77.543H87.0303ZM101.681 45.8076L109.241 41.2794V26.486L120.346 33.138V18.399L101.681 29.5792V45.8076Z" fill="#D4D9D8"/>
</svg>
