<svg width="219" height="129" viewBox="0 0 219 129" fill="none" xmlns="http://www.w3.org/2000/svg">
<path fill-rule="evenodd" clip-rule="evenodd" d="M29.9778 74.7942V79.831H25.7852V96.7596H20.7615V79.831H16.6001V74.7942H29.9778Z" fill="#D4D9D8"/>
<path fill-rule="evenodd" clip-rule="evenodd" d="M48.4944 79.9202H39.5158V83.2284H46.799V88.2652H39.5158V91.7228H48.4944V96.7596H34.4922V74.9122L48.4944 74.8833V79.9202Z" fill="#D4D9D8"/>
<path fill-rule="evenodd" clip-rule="evenodd" d="M63.2072 96.7306C61.8001 96.7306 60.4289 96.4682 59.089 95.9409C57.7515 95.4136 56.5484 94.6142 55.4774 93.5404C54.4473 92.4883 53.6597 91.2988 53.1145 89.9794C52.5694 88.6576 52.2981 87.2611 52.2981 85.7925C52.2981 84.3022 52.5694 82.8961 53.1145 81.5742C53.6597 80.2524 54.4473 79.075 55.4774 78.0422C56.5484 76.9683 57.7562 76.1642 59.1034 75.6272C60.4506 75.0903 61.824 74.823 63.2216 74.823C64.6193 74.823 65.9856 75.0903 67.3231 75.6272C68.6607 76.1642 69.8636 76.9683 70.9347 78.0422L67.3975 81.5887C66.8237 81.0131 66.1681 80.5798 65.4357 80.2934C64.7032 80.0044 63.9589 79.8599 63.2072 79.8599C62.4556 79.8599 61.716 80.0044 60.9933 80.2934C60.2705 80.5822 59.6197 81.0131 59.0457 81.5887C58.4911 82.1641 58.0661 82.8118 57.7684 83.5269C57.4705 84.2419 57.3216 84.998 57.3216 85.7925C57.3216 86.587 57.4705 87.3383 57.7684 88.0437C58.0661 88.7491 58.4911 89.3896 59.0457 89.9651C59.6197 90.5405 60.2705 90.9739 60.9933 91.2628C61.716 91.5518 62.4556 91.6961 63.2072 91.6961C63.9613 91.6961 64.7032 91.5518 65.4357 91.2628C66.1681 90.9739 66.8237 90.5429 67.3975 89.9651L70.9347 93.5429C69.8636 94.6167 68.6655 95.416 67.3376 95.9434C66.012 96.4658 64.6336 96.7306 63.2072 96.7306Z" fill="#D4D9D8"/>
<path fill-rule="evenodd" clip-rule="evenodd" d="M85.9453 74.8833H90.9689V96.7596H85.9453V88.5036H79.6443V96.7596H74.6184V74.8833H79.6443V83.4668H85.9453V74.8833Z" fill="#D4D9D8"/>
<path fill-rule="evenodd" clip-rule="evenodd" d="M112.072 74.8833H117.097V96.7596H112.072V88.5036H105.77V96.7596H100.747V74.8833H105.77V83.4668H112.072V74.8833Z" fill="#D4D9D8"/>
<path fill-rule="evenodd" clip-rule="evenodd" d="M131.733 74.8521C133.239 74.8521 134.651 75.141 135.979 75.7165C137.303 76.2919 138.463 77.072 139.451 78.0568C140.442 79.0415 141.221 80.1972 141.795 81.5286C142.368 82.86 142.656 84.2806 142.656 85.7903C142.656 87.2998 142.368 88.7204 141.795 90.0519C141.221 91.3833 140.442 92.5414 139.451 93.5238C138.459 94.5061 137.303 95.2862 135.979 95.864C134.651 96.4395 133.239 96.7284 131.733 96.7284C130.227 96.7284 128.816 96.4395 127.488 95.864C126.165 95.2886 125.009 94.5086 124.029 93.5238C123.05 92.5389 122.276 91.3833 121.701 90.0519C121.126 88.7204 120.84 87.2998 120.84 85.7903C120.84 84.2806 121.126 82.86 121.701 81.5286C122.275 80.1972 123.047 79.039 124.029 78.0568C125.013 77.072 126.165 76.2943 127.488 75.7165C128.816 75.141 130.227 74.8521 131.733 74.8521ZM131.75 91.6939C132.562 91.6939 133.326 91.5398 134.039 91.2316C134.752 90.9235 135.377 90.5022 135.912 89.9652C136.447 89.4283 136.867 88.8022 137.175 88.0872C137.481 87.3721 137.636 86.6064 137.636 85.7927C137.636 84.9788 137.481 84.2133 137.175 83.4981C136.867 82.783 136.447 82.157 135.912 81.6201C135.377 81.0832 134.752 80.6618 134.039 80.3536C133.326 80.0455 132.562 79.8914 131.75 79.8914C130.939 79.8914 130.176 80.0455 129.463 80.3536C128.749 80.6618 128.124 81.0832 127.588 81.6201C127.054 82.157 126.633 82.783 126.326 83.4981C126.019 84.2133 125.865 84.9788 125.865 85.7927C125.865 86.6064 126.019 87.3721 126.326 88.0872C126.633 88.8022 127.054 89.4283 127.588 89.9652C128.124 90.5022 128.749 90.9235 129.463 91.2316C130.172 91.5398 130.937 91.6939 131.75 91.6939Z" fill="#D4D9D8"/>
<path fill-rule="evenodd" clip-rule="evenodd" d="M155.171 96.7597C154.061 96.7597 153.01 96.555 152.021 96.1481C151.028 95.7413 150.146 95.1586 149.374 94.405C148.581 93.6104 147.972 92.7171 147.547 91.7228C147.122 90.7284 146.898 89.6666 146.875 88.5326V74.8521H151.899V88.5037C151.899 89.3777 152.227 90.1434 152.879 90.7982C153.532 91.4147 154.306 91.7228 155.2 91.7228C155.637 91.7228 156.052 91.6337 156.448 91.4556C156.843 91.2774 157.189 91.039 157.487 90.7404C157.786 90.4419 158.014 90.0952 158.172 89.698C158.33 89.3006 158.41 88.8721 158.41 88.417V74.8545H163.433V88.3857C163.453 89.5174 163.251 90.5913 162.823 91.6048C162.398 92.6184 161.812 93.502 161.07 94.2581C160.329 95.0141 159.454 95.6135 158.455 96.0614C157.454 96.5093 156.39 96.7429 155.259 96.7621H155.171V96.7597Z" fill="#D4D9D8"/>
<path fill-rule="evenodd" clip-rule="evenodd" d="M175.619 97.1762C174.926 97.1762 174.237 97.0822 173.555 96.8921C172.871 96.7043 172.221 96.4106 171.607 96.0132C170.537 95.3175 169.705 94.4194 169.111 93.3167C168.514 92.214 168.219 91.0077 168.219 89.6955H173.243C173.243 90.2925 173.372 90.7524 173.63 91.0823C173.887 91.4098 174.115 91.6337 174.314 91.754C174.671 91.9925 175.055 92.1225 175.474 92.1417C175.89 92.1609 176.297 92.0816 176.693 91.9034C176.972 91.783 177.193 91.6361 177.364 91.4555C177.532 91.2774 177.661 91.104 177.75 90.933C177.839 90.7646 177.895 90.6007 177.913 90.4418C177.933 90.283 177.942 90.153 177.942 90.0543C177.942 89.9555 177.933 89.8255 177.913 89.6666C177.895 89.5076 177.839 89.3392 177.75 89.161C177.661 88.9828 177.532 88.8095 177.364 88.6385C177.195 88.47 176.972 88.3159 176.693 88.1763C176.476 88.0775 176.242 87.9884 175.995 87.909C175.747 87.8295 175.483 87.7404 175.206 87.6418C174.713 87.4828 174.196 87.3046 173.66 87.1048C173.125 86.905 172.589 86.6378 172.056 86.3006C171.363 85.8624 170.778 85.3159 170.303 84.6611C169.828 84.0061 169.487 83.3007 169.278 82.5447C169.069 81.7886 169 81.0085 169.069 80.2043C169.139 79.4002 169.362 78.6297 169.739 77.8953C170.097 77.2188 170.542 76.6338 171.077 76.1377C171.613 75.6418 172.205 75.2494 172.861 74.9604C173.515 74.6715 174.218 74.4981 174.972 74.4379C175.725 74.3777 176.488 74.4476 177.261 74.6474C178.014 74.8256 178.692 75.1097 179.302 75.4973C179.916 75.8849 180.443 76.3521 180.881 76.8986C181.327 77.4451 181.669 78.0567 181.902 78.7308C182.139 79.4074 182.259 80.1129 182.259 80.8472H177.261C177.261 80.3898 177.116 80.0719 176.828 79.8937C176.539 79.7155 176.287 79.5952 176.069 79.535C176.031 79.535 175.935 79.5205 175.786 79.4893C175.637 79.4604 175.469 79.4604 175.281 79.4893C175.095 79.5182 174.9 79.588 174.703 79.6987C174.506 79.807 174.345 79.9828 174.228 80.2213C174.069 80.539 174.04 80.8714 174.139 81.2204C174.237 81.5671 174.436 81.8416 174.733 82.039C175.013 82.198 175.317 82.3424 175.656 82.4724C175.993 82.6024 176.35 82.7252 176.727 82.8456C177.062 82.9444 177.407 83.0551 177.752 83.173C178.098 83.291 178.447 83.4307 178.802 83.5896C180.101 84.1867 181.122 85.0607 181.859 86.2115C182.597 87.3648 182.968 88.6458 182.968 90.0567C182.968 91.4483 182.597 92.7195 181.859 93.8728C181.122 95.0262 180.101 95.9001 178.802 96.4948C178.292 96.7332 177.767 96.9065 177.231 97.0172C176.691 97.1233 176.156 97.1762 175.619 97.1762Z" fill="#D4D9D8"/>
<path fill-rule="evenodd" clip-rule="evenodd" d="M201.48 79.9202H192.503V83.2284H199.787V88.2652H192.503V91.7228H201.48V96.7596H187.48V74.9122L201.48 74.8833V79.9202Z" fill="#D4D9D8"/>
<path fill-rule="evenodd" clip-rule="evenodd" d="M39.0067 109.036L39.7416 107.228L37.5684 102.608H39.1869L40.4956 105.379L41.6122 102.608H43.1995L40.5917 109.036H39.0067Z" fill="#D4D9D8"/>
<path fill-rule="evenodd" clip-rule="evenodd" d="M51.3496 102.654C51.7891 102.654 52.1996 102.738 52.5863 102.907C52.9729 103.075 53.309 103.301 53.5972 103.588C53.8854 103.875 54.1135 104.212 54.2792 104.6C54.4473 104.986 54.5313 105.4 54.5313 105.841C54.5313 106.282 54.4473 106.696 54.2792 107.084C54.1111 107.472 53.8854 107.808 53.5972 108.095C53.309 108.382 52.9705 108.608 52.5863 108.776C52.1996 108.945 51.7891 109.029 51.3496 109.029C50.9101 109.029 50.4996 108.945 50.1129 108.776C49.7287 108.608 49.3901 108.382 49.1045 108.095C48.8187 107.808 48.5929 107.472 48.4248 107.084C48.2567 106.696 48.1726 106.282 48.1726 105.841C48.1726 105.4 48.2567 104.986 48.4248 104.6C48.5929 104.212 48.8187 103.875 49.1045 103.588C49.3901 103.301 49.7263 103.075 50.1129 102.907C50.4996 102.735 50.9101 102.654 51.3496 102.654ZM51.3545 107.561C51.5921 107.561 51.813 107.514 52.022 107.425C52.2309 107.336 52.411 107.214 52.5671 107.058C52.7232 106.901 52.8456 106.718 52.9344 106.511C53.0233 106.302 53.0689 106.08 53.0689 105.841C53.0689 105.603 53.0233 105.382 52.9344 105.172C52.8456 104.962 52.7232 104.782 52.5671 104.625C52.411 104.469 52.2285 104.346 52.022 104.257C51.8155 104.168 51.5921 104.123 51.3545 104.123C51.1166 104.123 50.8958 104.168 50.6868 104.257C50.4779 104.346 50.2979 104.469 50.1417 104.625C49.9857 104.782 49.8632 104.965 49.7743 105.172C49.6855 105.382 49.6398 105.603 49.6398 105.841C49.6398 106.08 49.6855 106.302 49.7743 106.511C49.8632 106.72 49.9857 106.901 50.1417 107.058C50.2979 107.214 50.4803 107.336 50.6868 107.425C50.8958 107.514 51.1166 107.561 51.3545 107.561Z" fill="#D4D9D8"/>
<path fill-rule="evenodd" clip-rule="evenodd" d="M61.9345 109.036C61.6104 109.036 61.3054 108.976 61.0172 108.858C60.729 108.74 60.4721 108.569 60.2464 108.35C60.0159 108.119 59.8382 107.859 59.7133 107.568C59.5884 107.279 59.5236 106.969 59.5188 106.638V102.652H60.9836V106.629C60.9836 106.884 61.0796 107.105 61.2693 107.298C61.459 107.479 61.6848 107.568 61.9442 107.568C62.0714 107.568 62.1915 107.541 62.3092 107.491C62.4244 107.437 62.5252 107.368 62.6116 107.281C62.6981 107.194 62.7654 107.093 62.811 106.978C62.8566 106.862 62.8807 106.737 62.8807 106.605V102.653H64.3454V106.597C64.3503 106.927 64.2926 107.24 64.1678 107.537C64.0429 107.833 63.8723 108.091 63.6563 108.31C63.4401 108.529 63.1856 108.704 62.895 108.834C62.6045 108.964 62.2923 109.032 61.9633 109.039H61.9345V109.036Z" fill="#D4D9D8"/>
<path fill-rule="evenodd" clip-rule="evenodd" d="M71.6839 107.384C71.6095 107.396 71.5326 107.404 71.4582 107.411C71.3837 107.416 71.3044 107.423 71.2253 107.428V109.034H69.7605V102.685H71.2253C71.5878 102.69 71.9288 102.758 72.2483 102.885C72.5652 103.013 72.8438 103.183 73.0839 103.395C73.324 103.609 73.5113 103.857 73.6458 104.142C73.7826 104.423 73.8499 104.727 73.8499 105.051C73.8499 105.391 73.7779 105.709 73.6337 106.001C73.4897 106.291 73.288 106.545 73.0262 106.759L74.4287 109.032H72.7045L71.6839 107.384ZM71.2253 105.953C71.3814 105.947 71.5303 105.918 71.6719 105.87C71.8136 105.823 71.9385 105.757 72.0441 105.675C72.1522 105.593 72.2339 105.5 72.2963 105.394C72.3563 105.285 72.3875 105.172 72.3875 105.051C72.3875 104.932 72.3563 104.819 72.2963 104.712C72.2363 104.609 72.1522 104.515 72.0441 104.435C71.9385 104.354 71.8136 104.289 71.6719 104.24C71.5303 104.192 71.3814 104.163 71.2253 104.159V105.953Z" fill="#D4D9D8"/>
<path fill-rule="evenodd" clip-rule="evenodd" d="M84.7351 102.634V104.103H83.5127V109.036H82.048V104.103H80.8376V102.634H84.7351Z" fill="#D4D9D8"/>
<path fill-rule="evenodd" clip-rule="evenodd" d="M93.5408 109.036L93.2886 108.263H91.2883L91.029 109.036H89.4778L91.6437 102.661H93.0293L95.0824 109.036H93.5408ZM91.7902 106.795H92.8204L92.3184 105.249L91.7902 106.795Z" fill="#D4D9D8"/>
<path fill-rule="evenodd" clip-rule="evenodd" d="M105.23 105.466V109.036H103.758V108.88C103.597 108.938 103.432 108.981 103.261 109.005C103.091 109.031 102.923 109.044 102.755 109.044C102.344 109.044 101.943 108.967 101.552 108.81C101.158 108.654 100.807 108.42 100.495 108.107C100.183 107.794 99.9498 107.443 99.7986 107.052C99.645 106.662 99.5681 106.261 99.5681 105.848C99.5681 105.436 99.645 105.035 99.7986 104.642C99.9522 104.248 100.185 103.896 100.495 103.583C100.807 103.27 101.16 103.037 101.552 102.88C101.945 102.723 102.346 102.646 102.755 102.646C103.165 102.646 103.566 102.723 103.958 102.88C104.352 103.037 104.702 103.27 105.014 103.583L103.975 104.625C103.806 104.457 103.617 104.332 103.403 104.248C103.189 104.163 102.973 104.122 102.752 104.122C102.534 104.122 102.315 104.163 102.102 104.248C101.888 104.332 101.698 104.457 101.53 104.625C101.362 104.794 101.235 104.985 101.148 105.199C101.062 105.412 101.019 105.63 101.019 105.851C101.019 106.07 101.062 106.289 101.148 106.501C101.235 106.715 101.362 106.906 101.53 107.074C101.681 107.226 101.849 107.342 102.037 107.425C102.224 107.51 102.418 107.558 102.618 107.573C102.817 107.587 103.014 107.568 103.211 107.517C103.408 107.464 103.588 107.378 103.756 107.257V106.937H102.483V105.468H105.23V105.466Z" fill="#D4D9D8"/>
<path fill-rule="evenodd" clip-rule="evenodd" d="M114.252 109.036H110.465V102.654H111.93V107.568H114.252V109.036Z" fill="#D4D9D8"/>
<path fill-rule="evenodd" clip-rule="evenodd" d="M120.856 109.036H119.393V102.654H120.856V109.036Z" fill="#D4D9D8"/>
<path fill-rule="evenodd" clip-rule="evenodd" d="M129.93 102.661H131.394V109.036H129.81L127.731 105.319V109.036H126.267V102.678H127.86L129.93 106.388V102.661Z" fill="#D4D9D8"/>
<path fill-rule="evenodd" clip-rule="evenodd" d="M140.729 104.13H138.111V105.092H140.234V106.561H138.111V107.568H140.729V109.036H136.648V102.67L140.729 102.661V104.13Z" fill="#D4D9D8"/>
<path fill-rule="evenodd" clip-rule="evenodd" d="M150.651 102.661H152.113V109.036H150.651V106.631H148.814V109.036H147.352V102.661H148.814V105.163H150.651V102.661Z" fill="#D4D9D8"/>
<path fill-rule="evenodd" clip-rule="evenodd" d="M161.38 104.13H158.763V105.092H160.885V106.561H158.763V107.568H161.38V109.036H157.3V102.67L161.38 102.661V104.13Z" fill="#D4D9D8"/>
<path fill-rule="evenodd" clip-rule="evenodd" d="M168.599 107.384C168.525 107.396 168.447 107.404 168.373 107.411C168.298 107.416 168.219 107.423 168.14 107.428V109.034H166.675V102.685H168.14C168.502 102.69 168.843 102.758 169.163 102.885C169.48 103.013 169.759 103.183 169.999 103.395C170.238 103.609 170.427 103.857 170.56 104.142C170.698 104.423 170.765 104.727 170.765 105.051C170.765 105.391 170.693 105.709 170.548 106.001C170.405 106.291 170.203 106.545 169.941 106.759L171.343 109.032H169.619L168.599 107.384ZM168.14 105.953C168.296 105.947 168.445 105.918 168.587 105.87C168.728 105.823 168.853 105.757 168.958 105.675C169.067 105.593 169.149 105.5 169.21 105.394C169.272 105.285 169.302 105.172 169.302 105.051C169.302 104.932 169.272 104.819 169.21 104.712C169.151 104.609 169.067 104.515 168.958 104.435C168.853 104.354 168.728 104.289 168.587 104.24C168.445 104.192 168.296 104.163 168.14 104.159V105.953Z" fill="#D4D9D8"/>
<path fill-rule="evenodd" clip-rule="evenodd" d="M180.514 104.13H177.899V105.092H180.022V106.561H177.899V107.568H180.514V109.036H176.434V102.67L180.514 102.661V104.13Z" fill="#D4D9D8"/>
<path fill-rule="evenodd" clip-rule="evenodd" d="M45.8193 61.9924H43.2043V62.9579H45.3245V64.4242H43.2043V65.4331H45.8193V66.8993H41.7395V60.5334L45.8193 60.5261V61.9924Z" fill="#D4D9D8"/>
<path fill-rule="evenodd" clip-rule="evenodd" d="M53.004 67.0222C52.8023 67.0222 52.6006 66.9956 52.4014 66.9403C52.2021 66.8849 52.0123 66.8007 51.8346 66.685C51.5224 66.4828 51.28 66.2204 51.1071 65.9001C50.9342 65.5798 50.8477 65.226 50.8477 64.8455H52.3126C52.3126 65.0189 52.3509 65.1538 52.4254 65.25C52.4998 65.3464 52.567 65.4113 52.6247 65.4451C52.7279 65.5149 52.8408 65.551 52.9633 65.5582C53.0833 65.563 53.2033 65.5413 53.3186 65.4884C53.4003 65.4547 53.4651 65.4113 53.5131 65.3584C53.5612 65.3055 53.5996 65.2549 53.626 65.2067C53.6524 65.1585 53.6668 65.1103 53.6741 65.0647C53.6788 65.0189 53.6837 64.9803 53.6837 64.9516C53.6837 64.9226 53.6813 64.8841 53.6741 64.8383C53.6693 64.7926 53.6524 64.7421 53.626 64.6915C53.5996 64.6385 53.5636 64.5879 53.5131 64.5397C53.4651 64.4916 53.3979 64.4458 53.3186 64.4049C53.2562 64.376 53.1866 64.3496 53.1145 64.3279C53.0425 64.3038 52.9657 64.2798 52.884 64.2509C52.7399 64.2051 52.5887 64.1521 52.4326 64.0943C52.2765 64.0366 52.1204 63.957 51.9643 63.8608C51.7626 63.7332 51.5921 63.5742 51.4528 63.384C51.3136 63.1938 51.2151 62.9868 51.155 62.7677C51.095 62.5485 51.0733 62.32 51.095 62.0863C51.1142 61.8528 51.1791 61.6264 51.2895 61.4121C51.3929 61.2147 51.5224 61.0438 51.6785 60.8993C51.8346 60.7549 52.0075 60.6393 52.1972 60.5575C52.3869 60.4732 52.5934 60.4227 52.812 60.4058C53.0305 60.3889 53.2538 60.4081 53.4796 60.466C53.6981 60.5189 53.8973 60.6008 54.0751 60.714C54.2552 60.8272 54.4065 60.9619 54.5362 61.1232C54.6657 61.2821 54.7667 61.4603 54.8339 61.6578C54.9035 61.8551 54.9372 62.0599 54.9372 62.2742H53.4796C53.4796 62.1418 53.4388 62.0478 53.3547 61.9972C53.2706 61.9442 53.1962 61.9106 53.1337 61.8937C53.1218 61.8937 53.0953 61.8888 53.0521 61.8817C53.009 61.8721 52.9584 61.8721 52.9056 61.8817C52.8504 61.8913 52.7951 61.9106 52.7376 61.9419C52.6799 61.9732 52.6343 62.0237 52.5982 62.0936C52.5526 62.1851 52.543 62.2837 52.5718 62.3849C52.6006 62.486 52.6582 62.5655 52.7447 62.6233C52.8264 62.669 52.9152 62.7124 53.0137 62.7484C53.1121 62.787 53.2154 62.8231 53.3259 62.8568C53.4243 62.8857 53.5227 62.917 53.6236 62.953C53.7244 62.9868 53.8253 63.0278 53.9287 63.0736C54.308 63.2469 54.6034 63.5021 54.8194 63.8368C55.0356 64.1714 55.1437 64.547 55.1437 64.9563C55.1437 65.3607 55.0356 65.7316 54.8194 66.0687C54.6034 66.4033 54.308 66.6585 53.9287 66.8319C53.7797 66.9017 53.626 66.9523 53.47 66.9836C53.3162 67.0052 53.1601 67.0222 53.004 67.0222Z" fill="#D4D9D8"/>
<path fill-rule="evenodd" clip-rule="evenodd" d="M63.9588 60.4995V61.9658H62.7366V66.8991H61.2742V61.9658H60.0615V60.4995H63.9588Z" fill="#D4D9D8"/>
<path fill-rule="evenodd" clip-rule="evenodd" d="M70.3897 60.4996C70.8123 60.5236 71.2085 60.6248 71.5808 60.803C71.9528 60.9836 72.2771 61.2171 72.5508 61.506C72.8246 61.7949 73.0407 62.132 73.2016 62.5124C73.3601 62.8952 73.4393 63.3022 73.4393 63.7379C73.4393 64.1666 73.3624 64.5662 73.2064 64.9418C73.0504 65.3149 72.8341 65.6449 72.5605 65.9265C72.2867 66.2107 71.9649 66.437 71.5951 66.6079C71.2253 66.7789 70.8243 66.8752 70.3921 66.8992H68.9272V60.49H70.3921V60.4996H70.3897ZM70.3897 65.4233C70.6154 65.3993 70.8243 65.3415 71.0164 65.2452C71.2109 65.1489 71.3765 65.0285 71.5182 64.8792C71.6599 64.7323 71.7704 64.559 71.8521 64.3615C71.9337 64.1642 71.9721 63.957 71.9721 63.7355C71.9721 63.5091 71.9313 63.2949 71.8521 63.0879C71.7704 62.8832 71.6575 62.7003 71.5135 62.5413C71.3694 62.3824 71.2013 62.2524 71.0116 62.1512C70.8219 62.0502 70.613 61.9876 70.3872 61.9636V65.4233H70.3897Z" fill="#D4D9D8"/>
<path fill-rule="evenodd" clip-rule="evenodd" d="M144.421 65.4331V66.9017H140.167V65.3175C140.59 65.0623 140.971 64.8047 141.315 64.5422C141.658 64.2823 141.951 64.0294 142.194 63.7886C142.436 63.5479 142.624 63.3289 142.755 63.1314C142.888 62.9339 142.954 62.7749 142.954 62.6547C142.954 62.4692 142.892 62.3127 142.765 62.1852C142.639 62.0576 142.482 61.9949 142.297 61.9949C142.112 61.9949 141.956 62.0599 141.829 62.19C141.702 62.3176 141.639 62.4765 141.639 62.6642H140.167C140.167 62.3682 140.222 62.0937 140.335 61.8361C140.448 61.5783 140.602 61.3521 140.794 61.1595C140.989 60.9644 141.212 60.8127 141.468 60.6996C141.725 60.5865 142.002 60.531 142.294 60.531C142.59 60.531 142.863 60.5865 143.121 60.6996C143.375 60.8127 143.6 60.9668 143.793 61.1595C143.985 61.3545 144.137 61.5783 144.249 61.8361C144.359 62.0937 144.417 62.3705 144.417 62.6642C144.417 63.5046 143.793 64.4267 142.547 65.4355H144.421V65.4331Z" fill="#D4D9D8"/>
<path fill-rule="evenodd" clip-rule="evenodd" d="M152.579 60.5166C153.02 60.5166 153.429 60.6008 153.816 60.7693C154.203 60.9379 154.538 61.1642 154.826 61.4507C155.115 61.7372 155.343 62.0743 155.51 62.4619C155.677 62.8496 155.762 63.2636 155.762 63.7043C155.762 64.1449 155.677 64.559 155.51 64.9467C155.341 65.3343 155.115 65.6713 154.826 65.9579C154.538 66.2444 154.2 66.4708 153.816 66.6393C153.429 66.8077 153.02 66.8922 152.579 66.8922C152.14 66.8922 151.73 66.8077 151.342 66.6393C150.959 66.4708 150.619 66.2444 150.335 65.9579C150.049 65.6713 149.823 65.3343 149.655 64.9467C149.486 64.559 149.403 64.1449 149.403 63.7043C149.403 63.2636 149.486 62.8496 149.655 62.4619C149.823 62.0743 150.049 61.7372 150.335 61.4507C150.619 61.1642 150.957 60.9379 151.342 60.7693C151.73 60.6008 152.14 60.5166 152.579 60.5166ZM152.584 65.4233C152.821 65.4233 153.044 65.3777 153.252 65.2886C153.461 65.1995 153.642 65.0767 153.797 64.9201C153.953 64.7637 154.075 64.5807 154.165 64.3737C154.253 64.1642 154.299 63.9427 154.299 63.7043C154.299 63.466 154.253 63.2445 154.165 63.035C154.075 62.8255 153.953 62.6449 153.797 62.4884C153.642 62.3319 153.458 62.2091 153.252 62.1201C153.045 62.031 152.821 61.9852 152.584 61.9852C152.347 61.9852 152.125 62.031 151.917 62.1201C151.708 62.2091 151.527 62.3319 151.372 62.4884C151.216 62.6449 151.094 62.8279 151.004 63.035C150.916 63.2445 150.87 63.466 150.87 63.7043C150.87 63.9427 150.916 64.1642 151.004 64.3737C151.094 64.5831 151.216 64.7637 151.372 64.9201C151.527 65.0767 151.71 65.1995 151.917 65.2886C152.125 65.3777 152.347 65.4233 152.584 65.4233Z" fill="#D4D9D8"/>
<path fill-rule="evenodd" clip-rule="evenodd" d="M165.001 65.4331V66.9017H160.748V65.3175C161.172 65.0623 161.553 64.8047 161.897 64.5422C162.241 64.2823 162.533 64.0294 162.776 63.7886C163.018 63.5479 163.205 63.3289 163.338 63.1314C163.469 62.9339 163.536 62.7749 163.536 62.6547C163.536 62.4692 163.475 62.3127 163.346 62.1852C163.219 62.0576 163.064 61.9949 162.879 61.9949C162.694 61.9949 162.537 62.0599 162.41 62.19C162.283 62.3176 162.221 62.4765 162.221 62.6642H160.748C160.748 62.3682 160.804 62.0937 160.917 61.8361C161.029 61.5783 161.184 61.3521 161.375 61.1595C161.569 60.9644 161.794 60.8127 162.05 60.6996C162.307 60.5865 162.583 60.531 162.876 60.531C163.172 60.531 163.445 60.5865 163.702 60.6996C163.956 60.8127 164.183 60.9668 164.375 61.1595C164.566 61.3545 164.719 61.5783 164.831 61.8361C164.942 62.0937 164.999 62.3705 164.999 62.6642C164.999 63.5046 164.375 64.4267 163.129 65.4355H165.001V65.4331Z" fill="#D4D9D8"/>
<path fill-rule="evenodd" clip-rule="evenodd" d="M173.161 60.5166C173.601 60.5166 174.011 60.6008 174.398 60.7693C174.785 60.9379 175.12 61.1642 175.409 61.4507C175.697 61.7372 175.925 62.0743 176.09 62.4619C176.259 62.8496 176.343 63.2636 176.343 63.7043C176.343 64.1449 176.259 64.559 176.09 64.9467C175.923 65.3343 175.697 65.6713 175.409 65.9579C175.12 66.2444 174.782 66.4708 174.398 66.6393C174.011 66.8077 173.601 66.8922 173.161 66.8922C172.722 66.8922 172.311 66.8077 171.925 66.6393C171.54 66.4708 171.202 66.2444 170.916 65.9579C170.629 65.6713 170.405 65.3343 170.236 64.9467C170.069 64.559 169.984 64.1449 169.984 63.7043C169.984 63.2636 170.069 62.8496 170.236 62.4619C170.405 62.0743 170.629 61.7372 170.916 61.4507C171.202 61.1642 171.537 60.9379 171.925 60.7693C172.311 60.6008 172.722 60.5166 173.161 60.5166ZM173.165 65.4233C173.404 65.4233 173.624 65.3777 173.833 65.2886C174.042 65.1995 174.222 65.0767 174.379 64.9201C174.534 64.7637 174.658 64.5807 174.745 64.3737C174.835 64.1642 174.88 63.9427 174.88 63.7043C174.88 63.466 174.835 63.2445 174.745 63.035C174.658 62.8255 174.534 62.6449 174.379 62.4884C174.222 62.3319 174.04 62.2091 173.833 62.1201C173.624 62.031 173.404 61.9852 173.165 61.9852C172.929 61.9852 172.708 62.031 172.499 62.1201C172.289 62.2091 172.11 62.3319 171.953 62.4884C171.797 62.6449 171.675 62.8279 171.585 63.035C171.498 63.2445 171.452 63.466 171.452 63.7043C171.452 63.9427 171.498 64.1642 171.585 64.3737C171.675 64.5831 171.797 64.7637 171.953 64.9201C172.11 65.0767 172.292 65.1995 172.499 65.2886C172.708 65.3777 172.929 65.4233 173.165 65.4233Z" fill="#D4D9D8"/>
<path fill-rule="evenodd" clip-rule="evenodd" d="M128.514 67.0222H124.251C124.254 66.8776 124.254 66.7308 124.254 66.5839C124.254 56.8014 120.299 47.9436 113.906 41.5342C108.681 36.295 101.828 32.6908 94.1724 31.5471L108.614 20.1058C108.852 19.9107 109.214 19.9059 109.462 20.1009L128.898 35.4982C129.056 35.6065 129.16 35.7798 129.16 35.9749V66.4346C129.16 66.7573 128.869 67.0222 128.514 67.0222ZM120.495 67.0222H116.992C116.994 66.8776 116.994 66.7308 116.994 66.5839C116.994 58.8118 113.852 51.7742 108.772 46.6819C103.694 41.5897 96.6745 38.438 88.9231 38.438V35.9749C88.9231 35.8087 88.9974 35.645 89.1463 35.5294L89.8907 34.9396C98.2257 35.1924 105.749 38.6811 111.251 44.1995C116.963 49.9275 120.498 57.844 120.498 66.5863C120.498 66.7308 120.498 66.8752 120.495 67.0222ZM113.234 67.0222H109.731C109.733 66.8776 109.735 66.7308 109.735 66.5839C109.735 60.8224 107.406 55.6048 103.638 51.8271C99.8731 48.0519 94.6694 45.714 88.9207 45.714V42.2011C95.6348 42.2011 101.715 44.9315 106.114 49.3425C110.514 53.7533 113.236 59.8497 113.236 66.5839C113.239 66.7308 113.236 66.8752 113.234 67.0222ZM105.972 67.0222H102.466C102.471 66.8776 102.474 66.7308 102.474 66.5839C102.474 62.8303 100.956 59.433 98.5043 56.9748C96.0526 54.5166 92.6619 52.9949 88.9207 52.9949V49.4822C93.6297 49.4822 97.8944 51.3962 100.982 54.4925C104.068 57.5863 105.98 61.8624 105.98 66.5863C105.98 66.7308 105.977 66.8752 105.972 67.0222ZM98.7108 67.0222H95.2026C95.2121 66.8776 95.2169 66.7308 95.2169 66.5839C95.2169 64.8408 94.511 63.2637 93.3727 62.1201C92.2344 60.9788 90.6592 60.271 88.9207 60.271V56.7581C91.6269 56.7581 94.0763 57.8584 95.8485 59.6353C97.6205 61.4122 98.7179 63.8704 98.7179 66.5816C98.7204 66.7308 98.7156 66.8752 98.7108 67.0222Z" fill="#D4D9D8"/>
</svg>
