<svg width="219" height="129" viewBox="0 0 219 129" fill="none" xmlns="http://www.w3.org/2000/svg">
<path fill-rule="evenodd" clip-rule="evenodd" d="M119.944 74.0547H116.659V53.5802L119.944 49.8994V74.0547ZM91.4409 74.9805H91.8997V43.7029L97.668 37.2382L99.236 38.9952V74.9826H104.356V43.3482C102.957 41.7768 101.556 40.2077 100.153 38.6384V17.2422L111.692 25.6369V39.2013C110.291 40.5768 108.891 41.9542 107.49 43.3317V74.9826H112.61V39.5911L119.945 32.3862V48.5137C118.545 50.083 117.144 51.6523 115.744 53.2235C115.744 60.1665 115.739 67.1097 115.744 74.0526V74.9805H120.863V48.8725L122.431 47.1157L128.199 53.5802V74.9805H129.117V53.2255C126.891 50.7263 124.659 48.2312 122.431 45.734L120.863 47.4889V30.1963L112.61 38.3002V25.1647C108.152 21.919 103.693 18.6774 99.236 15.4358V37.6114L97.668 35.8567C95.4394 38.3538 93.2088 40.849 90.9822 43.3482V74.9826H91.4409V74.9805ZM100.153 40.022L103.438 43.7029V74.0547H100.153V40.022ZM111.69 40.4942V74.0547H108.405V43.7193L111.69 40.4942Z" fill="#00C194"/>
<path fill-rule="evenodd" clip-rule="evenodd" d="M47.8148 94.5581C47.615 94.589 47.4151 94.6116 47.2153 94.6281C47.0154 94.6426 46.8096 94.6591 46.5934 94.6756V98.9816H42.7051V81.9648H46.5955C47.5619 81.9814 48.4672 82.1587 49.3114 82.501C50.1556 82.8434 50.8957 83.3011 51.5319 83.8702C52.1681 84.4435 52.6676 85.1116 53.0285 85.8726C53.3893 86.6294 53.5688 87.4439 53.5688 88.312C53.5688 89.2234 53.3772 90.073 52.9938 90.8566C52.6104 91.6402 52.0721 92.3145 51.383 92.8898L55.1123 98.9816H50.5307L47.8148 94.5581ZM46.5955 90.7163C47.0094 90.6999 47.4049 90.6277 47.7801 90.4957C48.1553 90.3637 48.4856 90.1884 48.769 89.972C49.0525 89.7555 49.2746 89.5018 49.4357 89.2152C49.5968 88.9285 49.6784 88.6212 49.6784 88.2955C49.6784 87.9696 49.5968 87.6665 49.4357 87.3882C49.2746 87.1099 49.0525 86.8602 48.769 86.6438C48.4856 86.4273 48.1553 86.2519 47.7801 86.12C47.4049 85.988 47.0094 85.9138 46.5955 85.8993V90.7163Z" fill="#00C194"/>
<path fill-rule="evenodd" clip-rule="evenodd" d="M67.8885 85.8292H60.9356V88.413H66.5754V92.3474H60.9356V95.0467H67.8885V98.9815H57.0452V81.9174L67.8885 81.8948V85.8292Z" fill="#00C194"/>
<path fill-rule="evenodd" clip-rule="evenodd" d="M80.0431 98.9815L79.3763 96.9091H74.0587L73.3674 98.9815H69.2466L75.0007 81.8948H78.6831L84.1393 98.9815H80.0431ZM75.3922 92.9743H78.1305L76.795 88.8316L75.3922 92.9743Z" fill="#00C194"/>
<path fill-rule="evenodd" clip-rule="evenodd" d="M95.8328 98.9816H85.7744V81.8701H89.6648V95.0467H95.8328V98.9816Z" fill="#00C194"/>
<path fill-rule="evenodd" clip-rule="evenodd" d="M112.407 85.8292H105.455V88.413H111.094V92.3474H105.455V95.0467H112.407V98.9815H101.564V81.9174L112.407 81.8948V85.8292Z" fill="#00C194"/>
<path fill-rule="evenodd" clip-rule="evenodd" d="M119.911 99.3072C119.375 99.3072 118.84 99.2331 118.311 99.0866C117.781 98.94 117.279 98.7113 116.804 98.3996C115.976 97.8574 115.33 97.1541 114.871 96.2922C114.41 95.4302 114.18 94.4879 114.18 93.463H118.07C118.07 93.9291 118.17 94.29 118.37 94.5457C118.57 94.8013 118.745 94.9767 118.9 95.0695C119.176 95.255 119.474 95.356 119.798 95.3726C120.119 95.3891 120.434 95.3251 120.741 95.187C120.955 95.0942 121.129 94.9767 121.259 94.8385C121.39 94.6983 121.489 94.5622 121.558 94.4302C121.628 94.2982 121.671 94.1703 121.685 94.0466C121.702 93.9229 121.707 93.8219 121.707 93.7435C121.707 93.6652 121.7 93.564 121.685 93.4403C121.669 93.3166 121.628 93.1847 121.558 93.0445C121.489 92.9043 121.39 92.7681 121.259 92.6362C121.129 92.5041 120.955 92.3846 120.741 92.2754C120.572 92.197 120.392 92.1269 120.2 92.065C120.009 92.0031 119.805 91.933 119.591 91.8546C119.207 91.7309 118.808 91.5907 118.394 91.436C117.98 91.2814 117.566 91.071 117.151 90.8071C116.614 90.4648 116.161 90.0379 115.792 89.5266C115.423 89.0152 115.16 88.4625 114.999 87.8728C114.838 87.2831 114.786 86.6748 114.838 86.0458C114.891 85.4169 115.065 84.8167 115.356 84.2414C115.631 83.7135 115.978 83.2557 116.392 82.8681C116.806 82.4804 117.267 82.1732 117.773 81.9483C118.278 81.7236 118.822 81.5876 119.408 81.5401C119.99 81.4926 120.582 81.5483 121.179 81.703C121.763 81.8432 122.289 82.0639 122.76 82.367C123.235 82.6702 123.643 83.0351 123.983 83.462C124.328 83.8888 124.593 84.3651 124.774 84.893C124.957 85.421 125.049 85.9715 125.049 86.5469H121.179C121.179 86.1901 121.068 85.9426 120.845 85.8024C120.623 85.6622 120.427 85.5694 120.257 85.524C120.227 85.524 120.153 85.5117 120.04 85.489C119.926 85.4664 119.795 85.4664 119.649 85.489C119.503 85.5117 119.353 85.5674 119.2 85.6519C119.046 85.7364 118.925 85.8726 118.831 86.0601C118.708 86.3076 118.684 86.5674 118.762 86.8396C118.838 87.1118 118.992 87.3242 119.222 87.4789C119.436 87.6026 119.675 87.716 119.935 87.8172C120.197 87.9181 120.472 88.0151 120.763 88.1079C121.025 88.1862 121.29 88.2707 121.557 88.3636C121.825 88.4563 122.093 88.5656 122.371 88.6893C123.376 89.1553 124.167 89.8379 124.737 90.7371C125.309 91.6382 125.597 92.6382 125.597 93.7395C125.597 94.8262 125.309 95.818 124.737 96.7191C124.167 97.6205 123.376 98.3026 122.371 98.7667C121.974 98.9523 121.569 99.0882 121.155 99.1753C120.741 99.264 120.325 99.3072 119.911 99.3072Z" fill="#00C194"/>
<path fill-rule="evenodd" clip-rule="evenodd" d="M137.428 81.8247V85.7591H134.185V98.9816H130.294V85.7591H127.071V81.8247H137.428Z" fill="#00C194"/>
<path fill-rule="evenodd" clip-rule="evenodd" d="M149.238 98.9815L148.571 96.9091H143.253L142.562 98.9815H138.441L144.195 81.8948H147.878L153.332 98.9815H149.238ZM144.589 92.9743H147.327L145.992 88.8316L144.589 92.9743Z" fill="#00C194"/>
<path fill-rule="evenodd" clip-rule="evenodd" d="M164.661 81.8247V85.7591H161.415V98.9816H157.526V85.7591H154.302V81.8247H164.661Z" fill="#00C194"/>
<path fill-rule="evenodd" clip-rule="evenodd" d="M177.39 85.8292H170.439V88.413H176.078V92.3474H170.439V95.0467H177.39V98.9815H166.55V81.9174L177.39 81.8948V85.8292Z" fill="#00C194"/>
<path fill-rule="evenodd" clip-rule="evenodd" d="M45.3271 113.106L46.0714 111.27L43.8774 106.566H45.5106L46.832 109.386L47.9574 106.566H49.5581L46.9278 113.106H45.3271Z" fill="#00C194"/>
<path fill-rule="evenodd" clip-rule="evenodd" d="M56.9333 106.611C57.3757 106.611 57.7917 106.695 58.181 106.867C58.5705 107.038 58.9111 107.269 59.2026 107.56C59.4942 107.85 59.7225 108.195 59.8918 108.589C60.0611 108.983 60.1446 109.405 60.1446 109.853C60.1446 110.301 60.0611 110.721 59.8918 111.116C59.7225 111.511 59.4942 111.855 59.2026 112.146C58.9111 112.436 58.5705 112.669 58.181 112.839C57.7917 113.01 57.3757 113.094 56.9333 113.094C56.4907 113.094 56.0748 113.01 55.6853 112.839C55.2959 112.668 54.9574 112.436 54.6679 112.146C54.3804 111.853 54.1521 111.511 53.9828 111.116C53.8135 110.723 53.73 110.301 53.73 109.853C53.73 109.405 53.8135 108.983 53.9828 108.589C54.1521 108.195 54.3783 107.85 54.6679 107.56C54.9554 107.269 55.2959 107.035 55.6853 106.867C56.0768 106.695 56.4907 106.611 56.9333 106.611ZM56.9372 111.605C57.1758 111.605 57.4001 111.56 57.6101 111.469C57.8201 111.378 58.0038 111.253 58.1607 111.094C58.3177 110.936 58.4421 110.749 58.5318 110.538C58.6215 110.325 58.6664 110.098 58.6664 109.857C58.6664 109.616 58.6215 109.389 58.5318 109.176C58.4421 108.964 58.3177 108.778 58.1607 108.62C58.0038 108.461 57.8201 108.335 57.6101 108.244C57.4001 108.153 57.1758 108.108 56.9372 108.108C56.6987 108.108 56.4745 108.153 56.2645 108.244C56.0544 108.335 55.8709 108.461 55.7139 108.62C55.5569 108.778 55.4325 108.964 55.3428 109.176C55.2531 109.389 55.2082 109.616 55.2082 109.857C55.2082 110.098 55.2531 110.325 55.3428 110.538C55.4325 110.749 55.5569 110.936 55.7139 111.094C55.8709 111.253 56.0544 111.378 56.2645 111.469C56.4745 111.56 56.6987 111.605 56.9372 111.605Z" fill="#00C194"/>
<path fill-rule="evenodd" clip-rule="evenodd" d="M66.7651 113.106C66.4389 113.106 66.1289 113.047 65.8394 112.925C65.5478 112.803 65.2888 112.632 65.0605 112.407C64.828 112.173 64.6486 111.907 64.5222 111.611C64.3978 111.316 64.3305 111.002 64.3264 110.665V106.607H65.8027V110.654C65.8027 110.915 65.8985 111.142 66.0902 111.335C66.2819 111.519 66.5102 111.609 66.7712 111.609C66.8997 111.609 67.022 111.583 67.1383 111.529C67.2545 111.476 67.3564 111.405 67.4441 111.316C67.5317 111.229 67.5989 111.125 67.6459 111.007C67.6928 110.889 67.7153 110.762 67.7153 110.628V106.607H69.1915V110.619C69.1976 110.955 69.1384 111.273 69.012 111.574C68.8876 111.875 68.7144 112.137 68.4962 112.36C68.278 112.585 68.0211 112.761 67.7275 112.894C67.4339 113.026 67.1199 113.097 66.7875 113.102L66.7651 113.106Z" fill="#00C194"/>
<path fill-rule="evenodd" clip-rule="evenodd" d="M75.7549 111.427C75.6795 111.441 75.6041 111.449 75.5286 111.455C75.4533 111.462 75.3738 111.467 75.2921 111.474V113.109H73.8159V106.648H75.2921C75.6591 106.654 76.0037 106.722 76.3239 106.852C76.644 106.983 76.9254 107.155 77.168 107.372C77.4106 107.591 77.5982 107.844 77.7369 108.133C77.8734 108.419 77.9429 108.729 77.9429 109.059C77.9429 109.405 77.8694 109.727 77.7246 110.026C77.5799 110.323 77.376 110.581 77.113 110.797L78.528 113.11H76.7887L75.7549 111.427ZM75.2901 109.97C75.4471 109.964 75.598 109.937 75.7407 109.885C75.8834 109.836 76.0078 109.771 76.1159 109.687C76.2239 109.605 76.3076 109.51 76.3687 109.401C76.4299 109.292 76.4605 109.176 76.4605 109.053C76.4605 108.929 76.4299 108.813 76.3687 108.708C76.3076 108.603 76.2239 108.508 76.1159 108.426C76.0078 108.344 75.8834 108.277 75.7407 108.228C75.598 108.178 75.4471 108.149 75.2901 108.143V109.97Z" fill="#00C194"/>
<path fill-rule="evenodd" clip-rule="evenodd" d="M88.0724 106.593V108.087H86.8409V113.106H85.3626V108.087H84.1392V106.593H88.0724Z" fill="#00C194"/>
<path fill-rule="evenodd" clip-rule="evenodd" d="M96.1081 113.106L95.8553 112.32H93.8367L93.5736 113.106H92.0098L94.1955 106.619H95.5942L97.6659 113.106H96.1081ZM94.3423 110.826H95.3823L94.8745 109.253L94.3423 110.826Z" fill="#00C194"/>
<path fill-rule="evenodd" clip-rule="evenodd" d="M107.053 113.109H105.567V112.95C105.404 113.009 105.237 113.051 105.063 113.078C104.892 113.104 104.721 113.116 104.552 113.116C104.138 113.116 103.734 113.036 103.336 112.877C102.941 112.718 102.584 112.479 102.27 112.161C101.956 111.844 101.721 111.486 101.566 111.088C101.411 110.69 101.334 110.282 101.334 109.863C101.334 109.444 101.411 109.034 101.566 108.634C101.721 108.233 101.956 107.873 102.27 107.555C102.584 107.238 102.941 106.999 103.336 106.84C103.732 106.681 104.138 106.601 104.552 106.601C104.965 106.601 105.369 106.681 105.767 106.84C106.162 106.999 106.519 107.238 106.833 107.555L105.785 108.615C105.616 108.444 105.424 108.317 105.208 108.232C104.992 108.147 104.774 108.104 104.554 108.104C104.331 108.104 104.113 108.147 103.899 108.232C103.683 108.317 103.491 108.446 103.322 108.615C103.153 108.786 103.024 108.98 102.937 109.199C102.849 109.417 102.806 109.638 102.806 109.861C102.806 110.085 102.849 110.306 102.937 110.522C103.024 110.741 103.153 110.935 103.322 111.106C103.473 111.26 103.644 111.378 103.834 111.465C104.023 111.55 104.219 111.601 104.419 111.616C104.621 111.63 104.819 111.611 105.018 111.558C105.216 111.504 105.4 111.415 105.569 111.292V110.964H104.284V109.471H107.053V113.109Z" fill="#00C194"/>
<path fill-rule="evenodd" clip-rule="evenodd" d="M115.309 113.107H111.489V106.611H112.967V111.614H115.309V113.107Z" fill="#00C194"/>
<path fill-rule="evenodd" clip-rule="evenodd" d="M121.124 113.107H119.648V106.611H121.124V113.107Z" fill="#00C194"/>
<path fill-rule="evenodd" clip-rule="evenodd" d="M129.431 106.619H130.907V113.106H129.309L127.211 109.324V113.106H125.735V106.638H127.341L129.431 110.411V106.619Z" fill="#00C194"/>
<path fill-rule="evenodd" clip-rule="evenodd" d="M139.478 108.114H136.837V109.094H138.98V110.588H136.837V111.614H139.478V113.106H135.361V106.628L139.478 106.619V108.114Z" fill="#00C194"/>
<path fill-rule="evenodd" clip-rule="evenodd" d="M148.64 106.619H150.117V113.106H148.64V110.659H146.787V113.106H145.311V106.619H146.787V109.166H148.64V106.619Z" fill="#00C194"/>
<path fill-rule="evenodd" clip-rule="evenodd" d="M158.615 108.114H155.976V109.094H158.118V110.588H155.976V111.614H158.615V113.106H154.5V106.628L158.615 106.619V108.114Z" fill="#00C194"/>
<path fill-rule="evenodd" clip-rule="evenodd" d="M165.053 111.427C164.976 111.441 164.902 111.449 164.824 111.455C164.748 111.462 164.67 111.467 164.587 111.474V113.109H163.111V106.648H164.587C164.954 106.654 165.299 106.722 165.619 106.852C165.94 106.983 166.221 107.155 166.463 107.372C166.705 107.591 166.893 107.844 167.033 108.133C167.168 108.419 167.238 108.729 167.238 109.059C167.238 109.405 167.165 109.727 167.02 110.026C166.875 110.323 166.671 110.581 166.408 110.797L167.823 113.11H166.084L165.053 111.427ZM164.59 109.97C164.746 109.964 164.897 109.937 165.041 109.885C165.183 109.836 165.307 109.771 165.415 109.687C165.524 109.605 165.607 109.51 165.668 109.401C165.729 109.292 165.76 109.176 165.76 109.053C165.76 108.929 165.729 108.813 165.668 108.708C165.607 108.603 165.524 108.508 165.415 108.426C165.307 108.344 165.183 108.277 165.041 108.228C164.897 108.178 164.746 108.149 164.59 108.143V109.97Z" fill="#00C194"/>
<path fill-rule="evenodd" clip-rule="evenodd" d="M176.225 108.114H173.585V109.094H175.729V110.588H173.585V111.614H176.225V113.106H172.109V106.628L176.225 106.619V108.114Z" fill="#00C194"/>
<path fill-rule="evenodd" clip-rule="evenodd" d="M63.9472 70.5142H61.6431V71.3699H63.5128V72.6752H61.6431V73.5701H63.9472V74.8734H60.3545V69.2191L63.9472 69.2109V70.5142Z" fill="#00C194"/>
<path fill-rule="evenodd" clip-rule="evenodd" d="M66.7162 74.9806C66.5388 74.9806 66.3614 74.9559 66.1861 74.9064C66.0108 74.8569 65.8436 74.7827 65.6865 74.6796C65.4112 74.5001 65.1993 74.2671 65.0462 73.9806C64.8933 73.696 64.8179 73.3825 64.8179 73.0423H66.1066C66.1066 73.1969 66.1392 73.3166 66.2064 73.401C66.2717 73.4856 66.3308 73.5434 66.3817 73.5743C66.4736 73.6361 66.5735 73.6691 66.6795 73.6753C66.7855 73.6794 66.8916 73.6609 66.9914 73.6135C67.0628 73.5825 67.1199 73.5434 67.1627 73.498C67.2055 73.4526 67.2383 73.4072 67.2627 73.3639C67.285 73.3207 67.2994 73.2773 67.3055 73.2361C67.3095 73.1949 67.3136 73.1619 67.3136 73.135C67.3136 73.1103 67.3116 73.0752 67.3055 73.034C67.3013 72.9928 67.2871 72.9494 67.2627 72.902C67.2402 72.8566 67.2076 72.8113 67.1627 72.768C67.1199 72.7247 67.0628 72.6835 66.9914 72.6484C66.9364 72.6236 66.8752 72.5989 66.8121 72.5783C66.7488 72.5577 66.6816 72.535 66.6102 72.5082C66.4837 72.4669 66.3512 72.4215 66.2126 72.37C66.0759 72.3185 65.9373 72.2483 65.8007 72.1618C65.6232 72.0483 65.4724 71.9082 65.35 71.7369C65.2277 71.5679 65.14 71.3843 65.087 71.1885C65.034 70.9926 65.0156 70.7904 65.034 70.5822C65.0523 70.374 65.1095 70.1739 65.2053 69.9842C65.297 69.8089 65.4112 69.6584 65.5479 69.5285C65.6845 69.4006 65.8374 69.2975 66.0046 69.2233C66.1717 69.1491 66.3533 69.1037 66.547 69.0892C66.7407 69.0748 66.9364 69.0912 67.1341 69.1429C67.3279 69.1883 67.5012 69.2625 67.6582 69.3634C67.8152 69.4646 67.9498 69.5842 68.064 69.7264C68.1782 69.8688 68.2658 70.0254 68.3249 70.2007C68.3861 70.3759 68.4167 70.5574 68.4167 70.7493H67.1341C67.1341 70.6317 67.0974 70.5491 67.0241 70.5017C66.9507 70.4564 66.8854 70.4254 66.8304 70.409C66.8202 70.409 66.7957 70.4048 66.757 70.3967C66.7182 70.3884 66.6754 70.3884 66.6265 70.3967C66.5775 70.4048 66.5286 70.4214 66.4776 70.4502C66.4266 70.4791 66.3859 70.5245 66.3552 70.5842C66.3145 70.6667 66.3064 70.7533 66.3328 70.8421C66.3573 70.9327 66.4084 71.0029 66.4858 71.0545C66.5572 71.0957 66.6367 71.1328 66.7223 71.1658C66.8079 71.1988 66.8997 71.2317 66.9976 71.2627C67.0832 71.2874 67.1709 71.3163 67.2606 71.3472C67.3503 71.3782 67.438 71.4132 67.5297 71.4545C67.8621 71.609 68.1251 71.8359 68.3147 72.1329C68.5044 72.4319 68.6002 72.7639 68.6002 73.1288C68.6002 73.4898 68.5044 73.8176 68.3147 74.1166C68.1251 74.4156 67.8642 74.6403 67.5297 74.795C67.3992 74.8569 67.2646 74.9023 67.126 74.9291C66.9914 74.9682 66.8528 74.9806 66.7162 74.9806Z" fill="#00C194"/>
<path fill-rule="evenodd" clip-rule="evenodd" d="M72.8024 69.1882V70.4915H71.7278V74.8734H70.4372V70.4915H69.3708V69.1882H72.8024Z" fill="#00C194"/>
<path fill-rule="evenodd" clip-rule="evenodd" d="M74.9087 69.1883C75.2799 69.2088 75.6305 69.2997 75.9568 69.4584C76.2851 69.6172 76.5705 69.8255 76.8112 70.0831C77.0517 70.3409 77.2434 70.638 77.3842 70.9782C77.5248 71.3183 77.5941 71.6793 77.5941 72.0669C77.5941 72.4485 77.5248 72.8031 77.3881 73.135C77.2516 73.4671 77.0619 73.7579 76.8194 74.0115C76.5787 74.2631 76.2932 74.4652 75.969 74.6177C75.6428 74.7704 75.2901 74.8549 74.9087 74.8754H73.6201V69.1821H74.9087V69.1883ZM74.9087 73.562C75.1066 73.5413 75.2921 73.4876 75.4614 73.4032C75.6326 73.3186 75.7795 73.2092 75.9038 73.0794C76.0281 72.9474 76.126 72.7949 76.1974 72.6196C76.2687 72.4443 76.3034 72.2587 76.3034 72.0649C76.3034 71.8649 76.2687 71.6732 76.1974 71.4896C76.126 71.306 76.0262 71.1452 75.8997 71.0029C75.7733 70.8607 75.6244 70.7451 75.4572 70.6565C75.2901 70.5657 75.1066 70.512 74.9087 70.4915V73.562Z" fill="#00C194"/>
<path fill-rule="evenodd" clip-rule="evenodd" d="M143.264 69.1943H144.552V74.8733H143.264V71.2626L142.882 71.741L141.88 70.9162L143.264 69.1943Z" fill="#00C194"/>
<path fill-rule="evenodd" clip-rule="evenodd" d="M147.466 73.2918C147.211 73.2671 146.972 73.1949 146.748 73.0794C146.524 72.9639 146.33 72.8155 146.165 72.6361C146 72.4566 145.869 72.2484 145.775 72.0112C145.682 71.7741 145.635 71.5225 145.635 71.2545C145.635 70.972 145.689 70.706 145.796 70.4565C145.902 70.207 146.047 69.9904 146.231 69.8047C146.414 69.6193 146.628 69.4729 146.875 69.3656C147.121 69.2583 147.385 69.2026 147.663 69.2026C147.943 69.2026 148.206 69.2563 148.449 69.3656C148.693 69.4729 148.906 69.6193 149.09 69.8047C149.273 69.9904 149.417 70.207 149.523 70.4565C149.63 70.706 149.684 70.972 149.684 71.2545C149.684 71.5576 149.621 71.8504 149.493 72.135L148.121 74.8735H146.679L147.466 73.2918ZM147.663 70.5059C147.562 70.5059 147.466 70.5245 147.378 70.5636C147.288 70.6029 147.211 70.6565 147.142 70.7266C147.072 70.7966 147.02 70.875 146.981 70.9659C146.941 71.0565 146.924 71.1514 146.924 71.2545C146.924 71.3576 146.941 71.4545 146.981 71.5432C147.02 71.6339 147.072 71.7123 147.142 71.7782C147.211 71.8442 147.288 71.8979 147.378 71.937C147.468 71.9762 147.562 71.9948 147.663 71.9948C147.868 71.9948 148.041 71.9225 148.182 71.7782C148.324 71.6339 148.395 71.4586 148.395 71.2545C148.395 71.1514 148.377 71.0545 148.339 70.9659C148.299 70.875 148.249 70.7966 148.182 70.7266C148.116 70.6565 148.04 70.6029 147.949 70.5636C147.862 70.5266 147.766 70.5059 147.663 70.5059Z" fill="#00C194"/>
<path fill-rule="evenodd" clip-rule="evenodd" d="M152.492 73.2918C152.237 73.2671 151.998 73.1949 151.774 73.0794C151.55 72.9639 151.356 72.8155 151.191 72.6361C151.026 72.4566 150.895 72.2484 150.801 72.0112C150.708 71.7741 150.661 71.5225 150.661 71.2545C150.661 70.972 150.715 70.706 150.822 70.4565C150.928 70.207 151.073 69.9904 151.257 69.8047C151.441 69.6193 151.654 69.4729 151.901 69.3656C152.147 69.2583 152.411 69.2026 152.689 69.2026C152.969 69.2026 153.232 69.2563 153.475 69.3656C153.719 69.4729 153.932 69.6193 154.116 69.8047C154.299 69.9904 154.443 70.207 154.549 70.4565C154.656 70.706 154.71 70.972 154.71 71.2545C154.71 71.5576 154.648 71.8504 154.519 72.135L153.147 74.8735H151.705L152.492 73.2918ZM152.692 70.5059C152.591 70.5059 152.494 70.5245 152.407 70.5636C152.317 70.6029 152.239 70.6565 152.17 70.7266C152.101 70.7966 152.047 70.875 152.009 70.9659C151.97 71.0565 151.951 71.1514 151.951 71.2545C151.951 71.3576 151.97 71.4545 152.009 71.5432C152.047 71.6339 152.101 71.7123 152.17 71.7782C152.239 71.8442 152.317 71.8979 152.407 71.937C152.496 71.9762 152.591 71.9948 152.692 71.9948C152.896 71.9948 153.069 71.9225 153.209 71.7782C153.353 71.6339 153.424 71.4586 153.424 71.2545C153.424 71.1514 153.405 71.0545 153.367 70.9659C153.329 70.875 153.277 70.7966 153.209 70.7266C153.145 70.6565 153.067 70.6029 152.977 70.5636C152.888 70.5266 152.793 70.5059 152.692 70.5059Z" fill="#00C194"/>
<path fill-rule="evenodd" clip-rule="evenodd" d="M157.52 73.2918C157.265 73.2671 157.026 73.1949 156.803 73.0794C156.579 72.9639 156.385 72.8155 156.219 72.6361C156.054 72.4566 155.924 72.2484 155.83 72.0112C155.737 71.7741 155.689 71.5225 155.689 71.2545C155.689 70.972 155.742 70.706 155.85 70.4565C155.957 70.207 156.101 69.9904 156.285 69.8047C156.468 69.6193 156.683 69.4729 156.929 69.3656C157.175 69.2583 157.439 69.2026 157.718 69.2026C157.997 69.2026 158.261 69.2563 158.503 69.3656C158.748 69.4729 158.961 69.6193 159.143 69.8047C159.327 69.9904 159.472 70.207 159.578 70.4565C159.684 70.706 159.739 70.972 159.739 71.2545C159.739 71.5576 159.675 71.8504 159.547 72.135L158.174 74.8735H156.733L157.52 73.2918ZM157.718 70.5059C157.617 70.5059 157.52 70.5245 157.433 70.5636C157.343 70.6029 157.265 70.6565 157.196 70.7266C157.127 70.7966 157.074 70.875 157.035 70.9659C156.996 71.0565 156.977 71.1514 156.977 71.2545C156.977 71.3576 156.996 71.4545 157.035 71.5432C157.074 71.6318 157.127 71.7123 157.196 71.7782C157.265 71.8442 157.343 71.8979 157.433 71.937C157.522 71.9762 157.617 71.9948 157.718 71.9948C157.922 71.9948 158.095 71.9225 158.235 71.7782C158.379 71.6339 158.45 71.4586 158.45 71.2545C158.45 71.1514 158.431 71.0545 158.393 70.9659C158.355 70.875 158.303 70.7966 158.235 70.7266C158.171 70.6565 158.093 70.6029 158.003 70.5636C157.916 70.5266 157.819 70.5059 157.718 70.5059Z" fill="#00C194"/>
</svg>
