<svg width="145" height="18" viewBox="0 0 145 18" fill="none" xmlns="http://www.w3.org/2000/svg">
<path d="M34.17 9.142C34.17 9.982 34.0393 10.7147 33.778 11.34C33.5167 11.956 33.148 12.4693 32.672 12.88C32.196 13.2813 31.6267 13.5847 30.964 13.79C30.3013 13.986 29.5733 14.084 28.78 14.084C28.388 14.084 27.954 14.0653 27.478 14.028C27.0113 14 26.5867 13.9393 26.204 13.846V4.438C26.5867 4.34467 27.0113 4.284 27.478 4.256C27.954 4.21867 28.388 4.2 28.78 4.2C29.5733 4.2 30.3013 4.30267 30.964 4.508C31.6267 4.704 32.196 5.00733 32.672 5.418C33.148 5.81933 33.5167 6.33267 33.778 6.958C34.0393 7.574 34.17 8.302 34.17 9.142ZM28.892 12.894C30.18 12.894 31.1413 12.5673 31.776 11.914C32.4107 11.2513 32.728 10.3273 32.728 9.142C32.728 7.95667 32.4107 7.03733 31.776 6.384C31.1413 5.72133 30.18 5.39 28.892 5.39C28.5093 5.39 28.2107 5.39467 27.996 5.404C27.7907 5.41333 27.646 5.42267 27.562 5.432V12.852C27.646 12.8613 27.7907 12.8707 27.996 12.88C28.2107 12.8893 28.5093 12.894 28.892 12.894ZM42.5265 10.36C42.5265 10.9387 42.4425 11.4613 42.2745 11.928C42.1065 12.3947 41.8685 12.796 41.5605 13.132C41.2618 13.468 40.9025 13.7293 40.4825 13.916C40.0625 14.0933 39.6051 14.182 39.1105 14.182C38.6158 14.182 38.1585 14.0933 37.7385 13.916C37.3185 13.7293 36.9545 13.468 36.6465 13.132C36.3478 12.796 36.1145 12.3947 35.9465 11.928C35.7785 11.4613 35.6945 10.9387 35.6945 10.36C35.6945 9.79067 35.7785 9.27267 35.9465 8.806C36.1145 8.33 36.3478 7.924 36.6465 7.588C36.9545 7.252 37.3185 6.99533 37.7385 6.818C38.1585 6.63133 38.6158 6.538 39.1105 6.538C39.6051 6.538 40.0625 6.63133 40.4825 6.818C40.9025 6.99533 41.2618 7.252 41.5605 7.588C41.8685 7.924 42.1065 8.33 42.2745 8.806C42.4425 9.27267 42.5265 9.79067 42.5265 10.36ZM41.1685 10.36C41.1685 9.53867 40.9818 8.89 40.6085 8.414C40.2445 7.92867 39.7451 7.686 39.1105 7.686C38.4758 7.686 37.9718 7.92867 37.5985 8.414C37.2345 8.89 37.0525 9.53867 37.0525 10.36C37.0525 11.1813 37.2345 11.8347 37.5985 12.32C37.9718 12.796 38.4758 13.034 39.1105 13.034C39.7451 13.034 40.2445 12.796 40.6085 12.32C40.9818 11.8347 41.1685 11.1813 41.1685 10.36ZM50.1305 14C49.8692 13.328 49.5892 12.5627 49.2905 11.704C49.0012 10.836 48.7352 9.93533 48.4925 9.002C48.2499 9.93533 47.9839 10.836 47.6945 11.704C47.4052 12.5627 47.1299 13.328 46.8685 14H45.7345C45.3052 13.0387 44.8852 11.942 44.4745 10.71C44.0639 9.478 43.6765 8.148 43.3125 6.72H44.7125C44.8059 7.15867 44.9179 7.63467 45.0485 8.148C45.1792 8.66133 45.3145 9.17467 45.4545 9.688C45.6039 10.2013 45.7579 10.696 45.9165 11.172C46.0752 11.648 46.2245 12.0633 46.3645 12.418C46.5232 11.9793 46.6772 11.5173 46.8265 11.032C46.9852 10.5373 47.1345 10.0427 47.2745 9.548C47.4145 9.044 47.5452 8.554 47.6665 8.078C47.7972 7.59267 47.9092 7.14 48.0025 6.72H49.0805C49.1645 7.14 49.2672 7.59267 49.3885 8.078C49.5099 8.554 49.6405 9.044 49.7805 9.548C49.9205 10.0427 50.0652 10.5373 50.2145 11.032C50.3732 11.5173 50.5319 11.9793 50.6905 12.418C50.8305 12.0633 50.9752 11.648 51.1245 11.172C51.2832 10.696 51.4372 10.2013 51.5865 9.688C51.7359 9.17467 51.8759 8.66133 52.0065 8.148C52.1372 7.63467 52.2492 7.15867 52.3425 6.72H53.6865C53.3225 8.148 52.9352 9.478 52.5245 10.71C52.1139 11.942 51.6939 13.0387 51.2645 14H50.1305ZM55.0634 6.93C55.362 6.85533 55.7587 6.776 56.2534 6.692C56.748 6.608 57.3174 6.566 57.9614 6.566C58.54 6.566 59.0207 6.65 59.4034 6.818C59.786 6.97667 60.0894 7.20533 60.3134 7.504C60.5467 7.79333 60.71 8.14333 60.8034 8.554C60.8967 8.96467 60.9434 9.41733 60.9434 9.912V14H59.6414V10.192C59.6414 9.744 59.6087 9.36133 59.5434 9.044C59.4874 8.72667 59.3894 8.47 59.2494 8.274C59.1094 8.078 58.9227 7.938 58.6894 7.854C58.456 7.76067 58.1667 7.714 57.8214 7.714C57.6814 7.714 57.5367 7.71867 57.3874 7.728C57.238 7.73733 57.0934 7.75133 56.9534 7.77C56.8227 7.77933 56.7014 7.79333 56.5894 7.812C56.4867 7.83067 56.412 7.84467 56.3654 7.854V14H55.0634V6.93ZM62.6964 10.374C62.6964 9.73 62.7898 9.17 62.9764 8.694C63.1631 8.20867 63.4104 7.80733 63.7184 7.49C64.0264 7.17267 64.3811 6.93467 64.7824 6.776C65.1838 6.61733 65.5944 6.538 66.0144 6.538C66.9944 6.538 67.7458 6.846 68.2684 7.462C68.7911 8.06867 69.0524 8.99733 69.0524 10.248C69.0524 10.304 69.0524 10.3787 69.0524 10.472C69.0524 10.556 69.0478 10.6353 69.0384 10.71H64.0544C64.1104 11.466 64.3298 12.04 64.7124 12.432C65.0951 12.824 65.6924 13.02 66.5044 13.02C66.9618 13.02 67.3444 12.9827 67.6524 12.908C67.9698 12.824 68.2078 12.7447 68.3664 12.67L68.5484 13.762C68.3898 13.846 68.1098 13.9347 67.7084 14.028C67.3164 14.1213 66.8684 14.168 66.3644 14.168C65.7298 14.168 65.1791 14.0747 64.7124 13.888C64.2551 13.692 63.8771 13.426 63.5784 13.09C63.2798 12.754 63.0558 12.3573 62.9064 11.9C62.7664 11.4333 62.6964 10.9247 62.6964 10.374ZM67.6944 9.66C67.7038 9.072 67.5544 8.59133 67.2464 8.218C66.9478 7.83533 66.5324 7.644 66.0004 7.644C65.7018 7.644 65.4358 7.70467 65.2024 7.826C64.9784 7.938 64.7871 8.08733 64.6284 8.274C64.4698 8.46067 64.3438 8.67533 64.2504 8.918C64.1664 9.16067 64.1104 9.408 64.0824 9.66H67.6944ZM70.0687 15.358C70.1714 15.4047 70.3021 15.4467 70.4607 15.484C70.6287 15.5307 70.7921 15.554 70.9507 15.554C71.4641 15.554 71.8654 15.4373 72.1547 15.204C72.4441 14.98 72.7054 14.6113 72.9387 14.098C72.3507 12.978 71.8001 11.7927 71.2867 10.542C70.7827 9.282 70.3627 8.008 70.0267 6.72H71.4267C71.5294 7.14 71.6507 7.59267 71.7907 8.078C71.9401 8.56333 72.1034 9.06267 72.2807 9.576C72.4581 10.0893 72.6494 10.6027 72.8547 11.116C73.0601 11.6293 73.2747 12.124 73.4987 12.6C73.8534 11.62 74.1614 10.6493 74.4227 9.688C74.6841 8.72667 74.9314 7.73733 75.1647 6.72H76.5087C76.1727 8.092 75.7994 9.41267 75.3887 10.682C74.9781 11.942 74.5347 13.1227 74.0587 14.224C73.8721 14.644 73.6761 15.0033 73.4707 15.302C73.2747 15.61 73.0554 15.862 72.8127 16.058C72.5701 16.254 72.2947 16.3987 71.9867 16.492C71.6881 16.5853 71.3474 16.632 70.9647 16.632C70.8621 16.632 70.7547 16.6227 70.6427 16.604C70.5307 16.5947 70.4187 16.576 70.3067 16.548C70.2041 16.5293 70.1061 16.506 70.0127 16.478C69.9287 16.45 69.8681 16.4267 69.8307 16.408L70.0687 15.358ZM79.2537 12.404C79.2631 12.4787 79.2677 12.5533 79.2677 12.628C79.2677 12.6933 79.2677 12.7633 79.2677 12.838C79.2677 13.426 79.1791 14.0047 79.0017 14.574C78.8337 15.1527 78.6004 15.7033 78.3017 16.226L77.2937 15.904C77.5271 15.428 77.6811 14.9427 77.7557 14.448C77.8304 13.9627 77.8677 13.5053 77.8677 13.076C77.8677 12.9547 77.8631 12.838 77.8537 12.726C77.8537 12.614 77.8491 12.5067 77.8397 12.404H79.2537ZM88.8233 14.21C88.1419 14.21 87.5213 14.098 86.9613 13.874C86.4013 13.65 85.9206 13.3233 85.5193 12.894C85.1179 12.4647 84.8053 11.9373 84.5813 11.312C84.3666 10.6773 84.2593 9.954 84.2593 9.142C84.2593 8.33 84.3806 7.61133 84.6233 6.986C84.8753 6.35133 85.2113 5.81933 85.6313 5.39C86.0513 4.96067 86.5413 4.634 87.1013 4.41C87.6613 4.186 88.2586 4.074 88.8933 4.074C89.2946 4.074 89.6539 4.102 89.9713 4.158C90.2979 4.214 90.5779 4.27933 90.8113 4.354C91.0539 4.42867 91.2499 4.50333 91.3993 4.578C91.5486 4.65267 91.6513 4.70867 91.7073 4.746L91.3153 5.866C91.2313 5.81 91.1099 5.74933 90.9513 5.684C90.7926 5.61867 90.6106 5.55333 90.4053 5.488C90.2093 5.42267 89.9899 5.37133 89.7473 5.334C89.5139 5.28733 89.2759 5.264 89.0333 5.264C88.5199 5.264 88.0579 5.35267 87.6473 5.53C87.2366 5.70733 86.8866 5.964 86.5973 6.3C86.3079 6.636 86.0839 7.04667 85.9253 7.532C85.7759 8.008 85.7013 8.54467 85.7013 9.142C85.7013 9.72067 85.7666 10.248 85.8973 10.724C86.0373 11.2 86.2426 11.6107 86.5133 11.956C86.7839 12.292 87.1199 12.5533 87.5213 12.74C87.9319 12.9267 88.4079 13.02 88.9493 13.02C89.5746 13.02 90.0926 12.9547 90.5033 12.824C90.9139 12.6933 91.2219 12.5767 91.4273 12.474L91.7773 13.594C91.7119 13.6407 91.5953 13.7013 91.4273 13.776C91.2593 13.8413 91.0493 13.9067 90.7973 13.972C90.5453 14.0373 90.2513 14.0933 89.9153 14.14C89.5793 14.1867 89.2153 14.21 88.8233 14.21ZM95.7129 13.062C96.0209 13.062 96.2916 13.0573 96.5249 13.048C96.7676 13.0293 96.9682 13.0013 97.1269 12.964V10.794C97.0336 10.7473 96.8796 10.71 96.6649 10.682C96.4596 10.6447 96.2076 10.626 95.9089 10.626C95.7129 10.626 95.5029 10.64 95.2789 10.668C95.0642 10.696 94.8636 10.7567 94.6769 10.85C94.4996 10.934 94.3502 11.0553 94.2289 11.214C94.1076 11.3633 94.0469 11.564 94.0469 11.816C94.0469 12.2827 94.1962 12.6093 94.4949 12.796C94.7936 12.9733 95.1996 13.062 95.7129 13.062ZM95.6009 6.538C96.1236 6.538 96.5622 6.608 96.9169 6.748C97.2809 6.87867 97.5702 7.07 97.7849 7.322C98.0089 7.56467 98.1676 7.85867 98.2609 8.204C98.3542 8.54 98.4009 8.91333 98.4009 9.324V13.874C98.2889 13.8927 98.1302 13.9207 97.9249 13.958C97.7289 13.986 97.5049 14.014 97.2529 14.042C97.0009 14.07 96.7256 14.0933 96.4269 14.112C96.1376 14.14 95.8482 14.154 95.5589 14.154C95.1482 14.154 94.7702 14.112 94.4249 14.028C94.0796 13.944 93.7809 13.8133 93.5289 13.636C93.2769 13.4493 93.0809 13.2067 92.9409 12.908C92.8009 12.6093 92.7309 12.25 92.7309 11.83C92.7309 11.4287 92.8102 11.0833 92.9689 10.794C93.1369 10.5047 93.3609 10.2713 93.6409 10.094C93.9209 9.91667 94.2476 9.786 94.6209 9.702C94.9942 9.618 95.3862 9.576 95.7969 9.576C95.9276 9.576 96.0629 9.58533 96.2029 9.604C96.3429 9.61333 96.4736 9.632 96.5949 9.66C96.7256 9.67867 96.8376 9.69733 96.9309 9.716C97.0242 9.73467 97.0896 9.74867 97.1269 9.758V9.394C97.1269 9.17933 97.1036 8.96933 97.0569 8.764C97.0102 8.54933 96.9262 8.36267 96.8049 8.204C96.6836 8.036 96.5156 7.90533 96.3009 7.812C96.0956 7.70933 95.8249 7.658 95.4889 7.658C95.0596 7.658 94.6816 7.69067 94.3549 7.756C94.0376 7.812 93.7996 7.87267 93.6409 7.938L93.4869 6.86C93.6549 6.78533 93.9349 6.71533 94.3269 6.65C94.7189 6.57533 95.1436 6.538 95.6009 6.538ZM102.747 14.14C101.945 14.1213 101.375 13.9487 101.039 13.622C100.703 13.2953 100.535 12.7867 100.535 12.096V3.36L101.837 3.136V11.886C101.837 12.1007 101.856 12.278 101.893 12.418C101.931 12.558 101.991 12.67 102.075 12.754C102.159 12.838 102.271 12.9033 102.411 12.95C102.551 12.9873 102.724 13.02 102.929 13.048L102.747 14.14ZM105.693 14H104.391V6.72H105.693V14ZM105.035 5.404C104.802 5.404 104.601 5.32933 104.433 5.18C104.275 5.02133 104.195 4.81133 104.195 4.55C104.195 4.28867 104.275 4.08333 104.433 3.934C104.601 3.77533 104.802 3.696 105.035 3.696C105.269 3.696 105.465 3.77533 105.623 3.934C105.791 4.08333 105.875 4.28867 105.875 4.55C105.875 4.81133 105.791 5.02133 105.623 5.18C105.465 5.32933 105.269 5.404 105.035 5.404ZM110.775 3.136C111.157 3.136 111.484 3.164 111.755 3.22C112.035 3.276 112.231 3.32733 112.343 3.374L112.105 4.494C111.993 4.438 111.834 4.38667 111.629 4.34C111.423 4.284 111.171 4.256 110.873 4.256C110.266 4.256 109.841 4.424 109.599 4.76C109.356 5.08667 109.235 5.53 109.235 6.09V6.72H112.035V7.812H109.235V14H107.933V6.062C107.933 5.12867 108.161 4.41 108.619 3.906C109.076 3.39267 109.795 3.136 110.775 3.136ZM119.759 10.36C119.759 10.9387 119.675 11.4613 119.507 11.928C119.339 12.3947 119.101 12.796 118.793 13.132C118.494 13.468 118.135 13.7293 117.715 13.916C117.295 14.0933 116.838 14.182 116.343 14.182C115.848 14.182 115.391 14.0933 114.971 13.916C114.551 13.7293 114.187 13.468 113.879 13.132C113.58 12.796 113.347 12.3947 113.179 11.928C113.011 11.4613 112.927 10.9387 112.927 10.36C112.927 9.79067 113.011 9.27267 113.179 8.806C113.347 8.33 113.58 7.924 113.879 7.588C114.187 7.252 114.551 6.99533 114.971 6.818C115.391 6.63133 115.848 6.538 116.343 6.538C116.838 6.538 117.295 6.63133 117.715 6.818C118.135 6.99533 118.494 7.252 118.793 7.588C119.101 7.924 119.339 8.33 119.507 8.806C119.675 9.27267 119.759 9.79067 119.759 10.36ZM118.401 10.36C118.401 9.53867 118.214 8.89 117.841 8.414C117.477 7.92867 116.978 7.686 116.343 7.686C115.708 7.686 115.204 7.92867 114.831 8.414C114.467 8.89 114.285 9.53867 114.285 10.36C114.285 11.1813 114.467 11.8347 114.831 12.32C115.204 12.796 115.708 13.034 116.343 13.034C116.978 13.034 117.477 12.796 117.841 12.32C118.214 11.8347 118.401 11.1813 118.401 10.36ZM124.279 6.566C124.391 6.566 124.517 6.57533 124.657 6.594C124.806 6.60333 124.951 6.622 125.091 6.65C125.231 6.66867 125.357 6.692 125.469 6.72C125.59 6.73867 125.679 6.75733 125.735 6.776L125.511 7.91C125.408 7.87267 125.235 7.83067 124.993 7.784C124.759 7.728 124.456 7.7 124.083 7.7C123.84 7.7 123.597 7.728 123.355 7.784C123.121 7.83067 122.967 7.86333 122.893 7.882V14H121.591V7.028C121.899 6.916 122.281 6.81333 122.739 6.72C123.196 6.61733 123.709 6.566 124.279 6.566ZM126.991 6.93C127.29 6.85533 127.686 6.776 128.181 6.692C128.676 6.608 129.245 6.566 129.889 6.566C130.468 6.566 130.948 6.65 131.331 6.818C131.714 6.97667 132.017 7.20533 132.241 7.504C132.474 7.79333 132.638 8.14333 132.731 8.554C132.824 8.96467 132.871 9.41733 132.871 9.912V14H131.569V10.192C131.569 9.744 131.536 9.36133 131.471 9.044C131.415 8.72667 131.317 8.47 131.177 8.274C131.037 8.078 130.85 7.938 130.617 7.854C130.384 7.76067 130.094 7.714 129.749 7.714C129.609 7.714 129.464 7.71867 129.315 7.728C129.166 7.73733 129.021 7.75133 128.881 7.77C128.75 7.77933 128.629 7.79333 128.517 7.812C128.414 7.83067 128.34 7.84467 128.293 7.854V14H126.991V6.93ZM136.332 14H135.03V6.72H136.332V14ZM135.674 5.404C135.441 5.404 135.24 5.32933 135.072 5.18C134.913 5.02133 134.834 4.81133 134.834 4.55C134.834 4.28867 134.913 4.08333 135.072 3.934C135.24 3.77533 135.441 3.696 135.674 3.696C135.907 3.696 136.103 3.77533 136.262 3.934C136.43 4.08333 136.514 4.28867 136.514 4.55C136.514 4.81133 136.43 5.02133 136.262 5.18C136.103 5.32933 135.907 5.404 135.674 5.404ZM141.035 13.062C141.343 13.062 141.614 13.0573 141.847 13.048C142.09 13.0293 142.291 13.0013 142.449 12.964V10.794C142.356 10.7473 142.202 10.71 141.987 10.682C141.782 10.6447 141.53 10.626 141.231 10.626C141.035 10.626 140.825 10.64 140.601 10.668C140.387 10.696 140.186 10.7567 139.999 10.85C139.822 10.934 139.673 11.0553 139.551 11.214C139.43 11.3633 139.369 11.564 139.369 11.816C139.369 12.2827 139.519 12.6093 139.817 12.796C140.116 12.9733 140.522 13.062 141.035 13.062ZM140.923 6.538C141.446 6.538 141.885 6.608 142.239 6.748C142.603 6.87867 142.893 7.07 143.107 7.322C143.331 7.56467 143.49 7.85867 143.583 8.204C143.677 8.54 143.723 8.91333 143.723 9.324V13.874C143.611 13.8927 143.453 13.9207 143.247 13.958C143.051 13.986 142.827 14.014 142.575 14.042C142.323 14.07 142.048 14.0933 141.749 14.112C141.46 14.14 141.171 14.154 140.881 14.154C140.471 14.154 140.093 14.112 139.747 14.028C139.402 13.944 139.103 13.8133 138.851 13.636C138.599 13.4493 138.403 13.2067 138.263 12.908C138.123 12.6093 138.053 12.25 138.053 11.83C138.053 11.4287 138.133 11.0833 138.291 10.794C138.459 10.5047 138.683 10.2713 138.963 10.094C139.243 9.91667 139.57 9.786 139.943 9.702C140.317 9.618 140.709 9.576 141.119 9.576C141.25 9.576 141.385 9.58533 141.525 9.604C141.665 9.61333 141.796 9.632 141.917 9.66C142.048 9.67867 142.16 9.69733 142.253 9.716C142.347 9.73467 142.412 9.74867 142.449 9.758V9.394C142.449 9.17933 142.426 8.96933 142.379 8.764C142.333 8.54933 142.249 8.36267 142.127 8.204C142.006 8.036 141.838 7.90533 141.623 7.812C141.418 7.70933 141.147 7.658 140.811 7.658C140.382 7.658 140.004 7.69067 139.677 7.756C139.36 7.812 139.122 7.87267 138.963 7.938L138.809 6.86C138.977 6.78533 139.257 6.71533 139.649 6.65C140.041 6.57533 140.466 6.538 140.923 6.538Z" fill="black"/>
<g clip-path="url(#clip0_408_855)">
<path d="M15.75 7.5C15.75 12.75 9 17.25 9 17.25C9 17.25 2.25 12.75 2.25 7.5C2.25 5.70979 2.96116 3.9929 4.22703 2.72703C5.4929 1.46116 7.20979 0.75 9 0.75C10.7902 0.75 12.5071 1.46116 13.773 2.72703C15.0388 3.9929 15.75 5.70979 15.75 7.5Z" stroke="black" stroke-width="2" stroke-linecap="round" stroke-linejoin="round"/>
<path d="M9 9.75C10.2426 9.75 11.25 8.74264 11.25 7.5C11.25 6.25736 10.2426 5.25 9 5.25C7.75736 5.25 6.75 6.25736 6.75 7.5C6.75 8.74264 7.75736 9.75 9 9.75Z" stroke="black" stroke-width="2" stroke-linecap="round" stroke-linejoin="round"/>
</g>
<defs>
<clipPath id="clip0_408_855">
<rect width="18" height="18" fill="white"/>
</clipPath>
</defs>
</svg>
