<svg width="118" height="14" viewBox="0 0 118 14" fill="none" xmlns="http://www.w3.org/2000/svg">
<path d="M8.17 6.142C8.17 6.982 8.03933 7.71467 7.778 8.34C7.51667 8.956 7.148 9.46933 6.672 9.88C6.196 10.2813 5.62667 10.5847 4.964 10.79C4.30133 10.986 3.57333 11.084 2.78 11.084C2.388 11.084 1.954 11.0653 1.478 11.028C1.01133 11 0.586667 10.9393 0.204 10.846V1.438C0.586667 1.34467 1.01133 1.284 1.478 1.256C1.954 1.21867 2.388 1.2 2.78 1.2C3.57333 1.2 4.30133 1.30267 4.964 1.508C5.62667 1.704 6.196 2.00733 6.672 2.418C7.148 2.81933 7.51667 3.33267 7.778 3.958C8.03933 4.574 8.17 5.302 8.17 6.142ZM2.892 9.894C4.18 9.894 5.14133 9.56733 5.776 8.914C6.41067 8.25133 6.728 7.32733 6.728 6.142C6.728 4.95667 6.41067 4.03733 5.776 3.384C5.14133 2.72133 4.18 2.39 2.892 2.39C2.50933 2.39 2.21067 2.39467 1.996 2.404C1.79067 2.41333 1.646 2.42267 1.562 2.432V9.852C1.646 9.86133 1.79067 9.87067 1.996 9.88C2.21067 9.88933 2.50933 9.894 2.892 9.894ZM16.5265 7.36C16.5265 7.93867 16.4425 8.46133 16.2745 8.928C16.1065 9.39467 15.8685 9.796 15.5605 10.132C15.2618 10.468 14.9025 10.7293 14.4825 10.916C14.0625 11.0933 13.6051 11.182 13.1105 11.182C12.6158 11.182 12.1585 11.0933 11.7385 10.916C11.3185 10.7293 10.9545 10.468 10.6465 10.132C10.3478 9.796 10.1145 9.39467 9.94647 8.928C9.77847 8.46133 9.69447 7.93867 9.69447 7.36C9.69447 6.79067 9.77847 6.27267 9.94647 5.806C10.1145 5.33 10.3478 4.924 10.6465 4.588C10.9545 4.252 11.3185 3.99533 11.7385 3.818C12.1585 3.63133 12.6158 3.538 13.1105 3.538C13.6051 3.538 14.0625 3.63133 14.4825 3.818C14.9025 3.99533 15.2618 4.252 15.5605 4.588C15.8685 4.924 16.1065 5.33 16.2745 5.806C16.4425 6.27267 16.5265 6.79067 16.5265 7.36ZM15.1685 7.36C15.1685 6.53867 14.9818 5.89 14.6085 5.414C14.2445 4.92867 13.7451 4.686 13.1105 4.686C12.4758 4.686 11.9718 4.92867 11.5985 5.414C11.2345 5.89 11.0525 6.53867 11.0525 7.36C11.0525 8.18133 11.2345 8.83467 11.5985 9.32C11.9718 9.796 12.4758 10.034 13.1105 10.034C13.7451 10.034 14.2445 9.796 14.6085 9.32C14.9818 8.83467 15.1685 8.18133 15.1685 7.36ZM24.1305 11C23.8692 10.328 23.5892 9.56267 23.2905 8.704C23.0012 7.836 22.7352 6.93533 22.4925 6.002C22.2499 6.93533 21.9839 7.836 21.6945 8.704C21.4052 9.56267 21.1299 10.328 20.8685 11H19.7345C19.3052 10.0387 18.8852 8.942 18.4745 7.71C18.0639 6.478 17.6765 5.148 17.3125 3.72H18.7125C18.8059 4.15867 18.9179 4.63467 19.0485 5.148C19.1792 5.66133 19.3145 6.17467 19.4545 6.688C19.6039 7.20133 19.7579 7.696 19.9165 8.172C20.0752 8.648 20.2245 9.06333 20.3645 9.418C20.5232 8.97933 20.6772 8.51733 20.8265 8.032C20.9852 7.53733 21.1345 7.04267 21.2745 6.548C21.4145 6.044 21.5452 5.554 21.6665 5.078C21.7972 4.59267 21.9092 4.14 22.0025 3.72H23.0805C23.1645 4.14 23.2672 4.59267 23.3885 5.078C23.5099 5.554 23.6405 6.044 23.7805 6.548C23.9205 7.04267 24.0652 7.53733 24.2145 8.032C24.3732 8.51733 24.5319 8.97933 24.6905 9.418C24.8305 9.06333 24.9752 8.648 25.1245 8.172C25.2832 7.696 25.4372 7.20133 25.5865 6.688C25.7359 6.17467 25.8759 5.66133 26.0065 5.148C26.1372 4.63467 26.2492 4.15867 26.3425 3.72H27.6865C27.3225 5.148 26.9352 6.478 26.5245 7.71C26.1139 8.942 25.6939 10.0387 25.2645 11H24.1305ZM29.0634 3.93C29.362 3.85533 29.7587 3.776 30.2534 3.692C30.748 3.608 31.3174 3.566 31.9614 3.566C32.54 3.566 33.0207 3.65 33.4034 3.818C33.786 3.97667 34.0894 4.20533 34.3134 4.504C34.5467 4.79333 34.71 5.14333 34.8034 5.554C34.8967 5.96467 34.9434 6.41733 34.9434 6.912V11H33.6414V7.192C33.6414 6.744 33.6087 6.36133 33.5434 6.044C33.4874 5.72667 33.3894 5.47 33.2494 5.274C33.1094 5.078 32.9227 4.938 32.6894 4.854C32.456 4.76067 32.1667 4.714 31.8214 4.714C31.6814 4.714 31.5367 4.71867 31.3874 4.728C31.238 4.73733 31.0934 4.75133 30.9534 4.77C30.8227 4.77933 30.7014 4.79333 30.5894 4.812C30.4867 4.83067 30.412 4.84467 30.3654 4.854V11H29.0634V3.93ZM36.6964 7.374C36.6964 6.73 36.7898 6.17 36.9764 5.694C37.1631 5.20867 37.4104 4.80733 37.7184 4.49C38.0264 4.17267 38.3811 3.93467 38.7824 3.776C39.1838 3.61733 39.5944 3.538 40.0144 3.538C40.9944 3.538 41.7458 3.846 42.2684 4.462C42.7911 5.06867 43.0524 5.99733 43.0524 7.248C43.0524 7.304 43.0524 7.37867 43.0524 7.472C43.0524 7.556 43.0478 7.63533 43.0384 7.71H38.0544C38.1104 8.466 38.3298 9.04 38.7124 9.432C39.0951 9.824 39.6924 10.02 40.5044 10.02C40.9618 10.02 41.3444 9.98267 41.6524 9.908C41.9698 9.824 42.2078 9.74467 42.3664 9.67L42.5484 10.762C42.3898 10.846 42.1098 10.9347 41.7084 11.028C41.3164 11.1213 40.8684 11.168 40.3644 11.168C39.7298 11.168 39.1791 11.0747 38.7124 10.888C38.2551 10.692 37.8771 10.426 37.5784 10.09C37.2798 9.754 37.0558 9.35733 36.9064 8.9C36.7664 8.43333 36.6964 7.92467 36.6964 7.374ZM41.6944 6.66C41.7038 6.072 41.5544 5.59133 41.2464 5.218C40.9478 4.83533 40.5324 4.644 40.0004 4.644C39.7018 4.644 39.4358 4.70467 39.2024 4.826C38.9784 4.938 38.7871 5.08733 38.6284 5.274C38.4698 5.46067 38.3438 5.67533 38.2504 5.918C38.1664 6.16067 38.1104 6.408 38.0824 6.66H41.6944ZM44.0687 12.358C44.1714 12.4047 44.3021 12.4467 44.4607 12.484C44.6287 12.5307 44.7921 12.554 44.9507 12.554C45.4641 12.554 45.8654 12.4373 46.1547 12.204C46.4441 11.98 46.7054 11.6113 46.9387 11.098C46.3507 9.978 45.8001 8.79267 45.2867 7.542C44.7827 6.282 44.3627 5.008 44.0267 3.72H45.4267C45.5294 4.14 45.6507 4.59267 45.7907 5.078C45.9401 5.56333 46.1034 6.06267 46.2807 6.576C46.4581 7.08933 46.6494 7.60267 46.8547 8.116C47.0601 8.62933 47.2747 9.124 47.4987 9.6C47.8534 8.62 48.1614 7.64933 48.4227 6.688C48.6841 5.72667 48.9314 4.73733 49.1647 3.72H50.5087C50.1727 5.092 49.7994 6.41267 49.3887 7.682C48.9781 8.942 48.5347 10.1227 48.0587 11.224C47.8721 11.644 47.6761 12.0033 47.4707 12.302C47.2747 12.61 47.0554 12.862 46.8127 13.058C46.5701 13.254 46.2947 13.3987 45.9867 13.492C45.6881 13.5853 45.3474 13.632 44.9647 13.632C44.8621 13.632 44.7547 13.6227 44.6427 13.604C44.5307 13.5947 44.4187 13.576 44.3067 13.548C44.2041 13.5293 44.1061 13.506 44.0127 13.478C43.9287 13.45 43.8681 13.4267 43.8307 13.408L44.0687 12.358ZM53.2537 9.404C53.2631 9.47867 53.2677 9.55333 53.2677 9.628C53.2677 9.69333 53.2677 9.76333 53.2677 9.838C53.2677 10.426 53.1791 11.0047 53.0017 11.574C52.8337 12.1527 52.6004 12.7033 52.3017 13.226L51.2937 12.904C51.5271 12.428 51.6811 11.9427 51.7557 11.448C51.8304 10.9627 51.8677 10.5053 51.8677 10.076C51.8677 9.95467 51.8631 9.838 51.8537 9.726C51.8537 9.614 51.8491 9.50667 51.8397 9.404H53.2537ZM62.8233 11.21C62.1419 11.21 61.5213 11.098 60.9613 10.874C60.4013 10.65 59.9206 10.3233 59.5193 9.894C59.1179 9.46467 58.8053 8.93733 58.5813 8.312C58.3666 7.67733 58.2593 6.954 58.2593 6.142C58.2593 5.33 58.3806 4.61133 58.6233 3.986C58.8753 3.35133 59.2113 2.81933 59.6313 2.39C60.0513 1.96067 60.5413 1.634 61.1013 1.41C61.6613 1.186 62.2586 1.074 62.8933 1.074C63.2946 1.074 63.6539 1.102 63.9713 1.158C64.2979 1.214 64.5779 1.27933 64.8113 1.354C65.0539 1.42867 65.2499 1.50333 65.3993 1.578C65.5486 1.65267 65.6513 1.70867 65.7073 1.746L65.3153 2.866C65.2313 2.81 65.1099 2.74933 64.9513 2.684C64.7926 2.61867 64.6106 2.55333 64.4053 2.488C64.2093 2.42267 63.9899 2.37133 63.7473 2.334C63.5139 2.28733 63.2759 2.264 63.0333 2.264C62.5199 2.264 62.0579 2.35267 61.6473 2.53C61.2366 2.70733 60.8866 2.964 60.5973 3.3C60.3079 3.636 60.0839 4.04667 59.9253 4.532C59.7759 5.008 59.7013 5.54467 59.7013 6.142C59.7013 6.72067 59.7666 7.248 59.8973 7.724C60.0373 8.2 60.2426 8.61067 60.5133 8.956C60.7839 9.292 61.1199 9.55333 61.5213 9.74C61.9319 9.92667 62.4079 10.02 62.9493 10.02C63.5746 10.02 64.0926 9.95467 64.5033 9.824C64.9139 9.69333 65.2219 9.57667 65.4273 9.474L65.7773 10.594C65.7119 10.6407 65.5953 10.7013 65.4273 10.776C65.2593 10.8413 65.0493 10.9067 64.7973 10.972C64.5453 11.0373 64.2513 11.0933 63.9153 11.14C63.5793 11.1867 63.2153 11.21 62.8233 11.21ZM69.7129 10.062C70.0209 10.062 70.2916 10.0573 70.5249 10.048C70.7676 10.0293 70.9682 10.0013 71.1269 9.964V7.794C71.0336 7.74733 70.8796 7.71 70.6649 7.682C70.4596 7.64467 70.2076 7.626 69.9089 7.626C69.7129 7.626 69.5029 7.64 69.2789 7.668C69.0642 7.696 68.8636 7.75667 68.6769 7.85C68.4996 7.934 68.3502 8.05533 68.2289 8.214C68.1076 8.36333 68.0469 8.564 68.0469 8.816C68.0469 9.28267 68.1962 9.60933 68.4949 9.796C68.7936 9.97333 69.1996 10.062 69.7129 10.062ZM69.6009 3.538C70.1236 3.538 70.5622 3.608 70.9169 3.748C71.2809 3.87867 71.5702 4.07 71.7849 4.322C72.0089 4.56467 72.1676 4.85867 72.2609 5.204C72.3542 5.54 72.4009 5.91333 72.4009 6.324V10.874C72.2889 10.8927 72.1302 10.9207 71.9249 10.958C71.7289 10.986 71.5049 11.014 71.2529 11.042C71.0009 11.07 70.7256 11.0933 70.4269 11.112C70.1376 11.14 69.8482 11.154 69.5589 11.154C69.1482 11.154 68.7702 11.112 68.4249 11.028C68.0796 10.944 67.7809 10.8133 67.5289 10.636C67.2769 10.4493 67.0809 10.2067 66.9409 9.908C66.8009 9.60933 66.7309 9.25 66.7309 8.83C66.7309 8.42867 66.8102 8.08333 66.9689 7.794C67.1369 7.50467 67.3609 7.27133 67.6409 7.094C67.9209 6.91667 68.2476 6.786 68.6209 6.702C68.9942 6.618 69.3862 6.576 69.7969 6.576C69.9276 6.576 70.0629 6.58533 70.2029 6.604C70.3429 6.61333 70.4736 6.632 70.5949 6.66C70.7256 6.67867 70.8376 6.69733 70.9309 6.716C71.0242 6.73467 71.0896 6.74867 71.1269 6.758V6.394C71.1269 6.17933 71.1036 5.96933 71.0569 5.764C71.0102 5.54933 70.9262 5.36267 70.8049 5.204C70.6836 5.036 70.5156 4.90533 70.3009 4.812C70.0956 4.70933 69.8249 4.658 69.4889 4.658C69.0596 4.658 68.6816 4.69067 68.3549 4.756C68.0376 4.812 67.7996 4.87267 67.6409 4.938L67.4869 3.86C67.6549 3.78533 67.9349 3.71533 68.3269 3.65C68.7189 3.57533 69.1436 3.538 69.6009 3.538ZM76.7474 11.14C75.9447 11.1213 75.3754 10.9487 75.0394 10.622C74.7034 10.2953 74.5354 9.78667 74.5354 9.096V0.359999L75.8374 0.136V8.886C75.8374 9.10067 75.856 9.278 75.8934 9.418C75.9307 9.558 75.9914 9.67 76.0754 9.754C76.1594 9.838 76.2714 9.90333 76.4114 9.95C76.5514 9.98733 76.724 10.02 76.9294 10.048L76.7474 11.14ZM79.6935 11H78.3915V3.72H79.6935V11ZM79.0355 2.404C78.8022 2.404 78.6015 2.32933 78.4335 2.18C78.2748 2.02133 78.1955 1.81133 78.1955 1.55C78.1955 1.28867 78.2748 1.08333 78.4335 0.933999C78.6015 0.775333 78.8022 0.695999 79.0355 0.695999C79.2688 0.695999 79.4648 0.775333 79.6235 0.933999C79.7915 1.08333 79.8755 1.28867 79.8755 1.55C79.8755 1.81133 79.7915 2.02133 79.6235 2.18C79.4648 2.32933 79.2688 2.404 79.0355 2.404ZM84.7745 0.136C85.1572 0.136 85.4838 0.164 85.7545 0.219999C86.0345 0.275999 86.2305 0.327332 86.3425 0.373999L86.1045 1.494C85.9925 1.438 85.8338 1.38667 85.6285 1.34C85.4232 1.284 85.1712 1.256 84.8725 1.256C84.2658 1.256 83.8412 1.424 83.5985 1.76C83.3558 2.08667 83.2345 2.53 83.2345 3.09V3.72H86.0345V4.812H83.2345V11H81.9325V3.062C81.9325 2.12867 82.1612 1.41 82.6185 0.906C83.0758 0.392666 83.7945 0.136 84.7745 0.136ZM93.7589 7.36C93.7589 7.93867 93.6749 8.46133 93.5069 8.928C93.3389 9.39467 93.1009 9.796 92.7929 10.132C92.4942 10.468 92.1349 10.7293 91.7149 10.916C91.2949 11.0933 90.8376 11.182 90.3429 11.182C89.8482 11.182 89.3909 11.0933 88.9709 10.916C88.5509 10.7293 88.1869 10.468 87.8789 10.132C87.5802 9.796 87.3469 9.39467 87.1789 8.928C87.0109 8.46133 86.9269 7.93867 86.9269 7.36C86.9269 6.79067 87.0109 6.27267 87.1789 5.806C87.3469 5.33 87.5802 4.924 87.8789 4.588C88.1869 4.252 88.5509 3.99533 88.9709 3.818C89.3909 3.63133 89.8482 3.538 90.3429 3.538C90.8376 3.538 91.2949 3.63133 91.7149 3.818C92.1349 3.99533 92.4942 4.252 92.7929 4.588C93.1009 4.924 93.3389 5.33 93.5069 5.806C93.6749 6.27267 93.7589 6.79067 93.7589 7.36ZM92.4009 7.36C92.4009 6.53867 92.2142 5.89 91.8409 5.414C91.4769 4.92867 90.9776 4.686 90.3429 4.686C89.7082 4.686 89.2042 4.92867 88.8309 5.414C88.4669 5.89 88.2849 6.53867 88.2849 7.36C88.2849 8.18133 88.4669 8.83467 88.8309 9.32C89.2042 9.796 89.7082 10.034 90.3429 10.034C90.9776 10.034 91.4769 9.796 91.8409 9.32C92.2142 8.83467 92.4009 8.18133 92.4009 7.36ZM98.2787 3.566C98.3907 3.566 98.5167 3.57533 98.6567 3.594C98.806 3.60333 98.9507 3.622 99.0907 3.65C99.2307 3.66867 99.3567 3.692 99.4687 3.72C99.59 3.73867 99.6787 3.75733 99.7347 3.776L99.5107 4.91C99.408 4.87267 99.2354 4.83067 98.9927 4.784C98.7594 4.728 98.456 4.7 98.0827 4.7C97.84 4.7 97.5974 4.728 97.3547 4.784C97.1214 4.83067 96.9674 4.86333 96.8927 4.882V11H95.5907V4.028C95.8987 3.916 96.2814 3.81333 96.7387 3.72C97.196 3.61733 97.7094 3.566 98.2787 3.566ZM100.991 3.93C101.29 3.85533 101.686 3.776 102.181 3.692C102.676 3.608 103.245 3.566 103.889 3.566C104.468 3.566 104.948 3.65 105.331 3.818C105.714 3.97667 106.017 4.20533 106.241 4.504C106.474 4.79333 106.638 5.14333 106.731 5.554C106.824 5.96467 106.871 6.41733 106.871 6.912V11H105.569V7.192C105.569 6.744 105.536 6.36133 105.471 6.044C105.415 5.72667 105.317 5.47 105.177 5.274C105.037 5.078 104.85 4.938 104.617 4.854C104.384 4.76067 104.094 4.714 103.749 4.714C103.609 4.714 103.464 4.71867 103.315 4.728C103.166 4.73733 103.021 4.75133 102.881 4.77C102.75 4.77933 102.629 4.79333 102.517 4.812C102.414 4.83067 102.34 4.84467 102.293 4.854V11H100.991V3.93ZM110.332 11H109.03V3.72H110.332V11ZM109.674 2.404C109.441 2.404 109.24 2.32933 109.072 2.18C108.913 2.02133 108.834 1.81133 108.834 1.55C108.834 1.28867 108.913 1.08333 109.072 0.933999C109.24 0.775333 109.441 0.695999 109.674 0.695999C109.907 0.695999 110.103 0.775333 110.262 0.933999C110.43 1.08333 110.514 1.28867 110.514 1.55C110.514 1.81133 110.43 2.02133 110.262 2.18C110.103 2.32933 109.907 2.404 109.674 2.404ZM115.035 10.062C115.343 10.062 115.614 10.0573 115.847 10.048C116.09 10.0293 116.291 10.0013 116.449 9.964V7.794C116.356 7.74733 116.202 7.71 115.987 7.682C115.782 7.64467 115.53 7.626 115.231 7.626C115.035 7.626 114.825 7.64 114.601 7.668C114.387 7.696 114.186 7.75667 113.999 7.85C113.822 7.934 113.673 8.05533 113.551 8.214C113.43 8.36333 113.369 8.564 113.369 8.816C113.369 9.28267 113.519 9.60933 113.817 9.796C114.116 9.97333 114.522 10.062 115.035 10.062ZM114.923 3.538C115.446 3.538 115.885 3.608 116.239 3.748C116.603 3.87867 116.893 4.07 117.107 4.322C117.331 4.56467 117.49 4.85867 117.583 5.204C117.677 5.54 117.723 5.91333 117.723 6.324V10.874C117.611 10.8927 117.453 10.9207 117.247 10.958C117.051 10.986 116.827 11.014 116.575 11.042C116.323 11.07 116.048 11.0933 115.749 11.112C115.46 11.14 115.171 11.154 114.881 11.154C114.471 11.154 114.093 11.112 113.747 11.028C113.402 10.944 113.103 10.8133 112.851 10.636C112.599 10.4493 112.403 10.2067 112.263 9.908C112.123 9.60933 112.053 9.25 112.053 8.83C112.053 8.42867 112.133 8.08333 112.291 7.794C112.459 7.50467 112.683 7.27133 112.963 7.094C113.243 6.91667 113.57 6.786 113.943 6.702C114.317 6.618 114.709 6.576 115.119 6.576C115.25 6.576 115.385 6.58533 115.525 6.604C115.665 6.61333 115.796 6.632 115.917 6.66C116.048 6.67867 116.16 6.69733 116.253 6.716C116.347 6.73467 116.412 6.74867 116.449 6.758V6.394C116.449 6.17933 116.426 5.96933 116.379 5.764C116.333 5.54933 116.249 5.36267 116.127 5.204C116.006 5.036 115.838 4.90533 115.623 4.812C115.418 4.70933 115.147 4.658 114.811 4.658C114.382 4.658 114.004 4.69067 113.677 4.756C113.36 4.812 113.122 4.87267 112.963 4.938L112.809 3.86C112.977 3.78533 113.257 3.71533 113.649 3.65C114.041 3.57533 114.466 3.538 114.923 3.538Z" fill="black"/>
</svg>
