<svg width="56" height="56" viewBox="0 0 56 56" fill="none" xmlns="http://www.w3.org/2000/svg">
<g filter="url(#filter0_d_408_954)">
<circle cx="27" cy="27" r="24" fill="white"/>
</g>
<path d="M19 26C18.4477 26 18 26.4477 18 27C18 27.5523 18.4477 28 19 28L19 26ZM35 28C35.5523 28 36 27.5523 36 27C36 26.4477 35.5523 26 35 26V28ZM31.7039 21.2897C31.3117 20.901 30.6785 20.9038 30.2897 21.2961C29.901 21.6883 29.9038 22.3215 30.2961 22.7103L31.7039 21.2897ZM32.763 23.7473L32.059 24.4576V24.4576L32.763 23.7473ZM32.763 30.2527L33.4669 30.9629L32.763 30.2527ZM30.2961 31.2897C29.9038 31.6785 29.901 32.3117 30.2897 32.7039C30.6785 33.0962 31.3117 33.099 31.7039 32.7103L30.2961 31.2897ZM34.9801 26.6867L35.9721 26.5602V26.5602L34.9801 26.6867ZM34.9801 27.3133L35.9721 27.4398V27.4398L34.9801 27.3133ZM19 28L35 28V26L19 26L19 28ZM30.2961 22.7103L32.059 24.4576L33.4669 23.0371L31.7039 21.2897L30.2961 22.7103ZM32.059 29.5424L30.2961 31.2897L31.7039 32.7103L33.4669 30.9629L32.059 29.5424ZM32.059 24.4576C32.7787 25.1708 33.2574 25.6474 33.5785 26.0472C33.8869 26.4313 33.9669 26.6465 33.9881 26.8131L35.9721 26.5602C35.8851 25.8776 35.5594 25.3198 35.1379 24.7949C34.729 24.2858 34.1532 23.7172 33.4669 23.0371L32.059 24.4576ZM33.4669 30.9629C34.1532 30.2828 34.729 29.7142 35.1379 29.2051C35.5594 28.6802 35.8851 28.1224 35.9721 27.4398L33.9881 27.1869C33.9669 27.3535 33.8869 27.5687 33.5785 27.9528C33.2574 28.3526 32.7787 28.8292 32.059 29.5424L33.4669 30.9629ZM33.9881 26.8131C34.004 26.9372 34.004 27.0628 33.9881 27.1869L35.9721 27.4398C36.0093 27.1478 36.0093 26.8522 35.9721 26.5602L33.9881 26.8131Z" fill="#2D264B"/>
<defs>
<filter id="filter0_d_408_954" x="0" y="0" width="56" height="56" filterUnits="userSpaceOnUse" color-interpolation-filters="sRGB">
<feFlood flood-opacity="0" result="BackgroundImageFix"/>
<feColorMatrix in="SourceAlpha" type="matrix" values="0 0 0 0 0 0 0 0 0 0 0 0 0 0 0 0 0 0 127 0" result="hardAlpha"/>
<feOffset dx="1" dy="1"/>
<feGaussianBlur stdDeviation="2"/>
<feComposite in2="hardAlpha" operator="out"/>
<feColorMatrix type="matrix" values="0 0 0 0 0 0 0 0 0 0 0 0 0 0 0 0 0 0 0.1 0"/>
<feBlend mode="normal" in2="BackgroundImageFix" result="effect1_dropShadow_408_954"/>
<feBlend mode="normal" in="SourceGraphic" in2="effect1_dropShadow_408_954" result="shape"/>
</filter>
</defs>
</svg>
