<svg width="169" height="44" viewBox="0 0 169 44" fill="none" xmlns="http://www.w3.org/2000/svg">
<rect width="169" height="44" rx="22" fill="#00C194"/>
<path fill-rule="evenodd" clip-rule="evenodd" d="M43 0H22C9.84974 0 0 9.84974 0 22C0 34.1503 9.84973 44 22 44H43V0Z" fill="#01AC84"/>
<path d="M61.688 28C61.5387 27.5627 61.384 27.1307 61.224 26.704C61.064 26.2773 60.9093 25.84 60.76 25.392H56.088C55.9387 25.84 55.784 26.2827 55.624 26.72C55.4747 27.1467 55.3253 27.5733 55.176 28H53.08C53.496 26.816 53.8907 25.7227 54.264 24.72C54.6373 23.7173 55 22.768 55.352 21.872C55.7147 20.976 56.072 20.1227 56.424 19.312C56.776 18.5013 57.1387 17.7013 57.512 16.912H59.416C59.7893 17.7013 60.152 18.5013 60.504 19.312C60.856 20.1227 61.208 20.976 61.56 21.872C61.9227 22.768 62.2907 23.7173 62.664 24.72C63.048 25.7227 63.448 26.816 63.864 28H61.688ZM58.424 19.056C58.1787 19.6213 57.896 20.3093 57.576 21.12C57.2667 21.9307 56.9413 22.8107 56.6 23.76H60.248C59.9067 22.8107 59.576 21.9253 59.256 21.104C58.936 20.2827 58.6587 19.6 58.424 19.056ZM66.4708 23.792C66.4708 24.6453 66.6734 25.3173 67.0788 25.808C67.4841 26.288 68.0441 26.528 68.7588 26.528C69.0681 26.528 69.3294 26.5173 69.5428 26.496C69.7668 26.464 69.9481 26.432 70.0868 26.4V21.6C69.9161 21.4827 69.6868 21.376 69.3988 21.28C69.1214 21.1733 68.8228 21.12 68.5028 21.12C67.7988 21.12 67.2814 21.36 66.9508 21.84C66.6308 22.32 66.4708 22.9707 66.4708 23.792ZM72.0228 27.744C71.6388 27.8613 71.1534 27.968 70.5668 28.064C69.9908 28.16 69.3828 28.208 68.7428 28.208C68.0814 28.208 67.4894 28.1067 66.9668 27.904C66.4441 27.7013 65.9961 27.4133 65.6228 27.04C65.2601 26.656 64.9774 26.1973 64.7747 25.664C64.5828 25.12 64.4868 24.512 64.4868 23.84C64.4868 23.1787 64.5668 22.5813 64.7268 22.048C64.8974 21.504 65.1428 21.04 65.4628 20.656C65.7828 20.272 66.1721 19.9787 66.6308 19.776C67.0894 19.5627 67.6174 19.456 68.2148 19.456C68.6201 19.456 68.9774 19.504 69.2868 19.6C69.5961 19.696 69.8628 19.8027 70.0868 19.92V15.904L72.0228 15.584V27.744ZM76.002 23.792C76.002 24.6453 76.2047 25.3173 76.61 25.808C77.0153 26.288 77.5753 26.528 78.29 26.528C78.5993 26.528 78.8607 26.5173 79.074 26.496C79.298 26.464 79.4793 26.432 79.618 26.4V21.6C79.4473 21.4827 79.218 21.376 78.93 21.28C78.6527 21.1733 78.354 21.12 78.034 21.12C77.33 21.12 76.8127 21.36 76.482 21.84C76.162 22.32 76.002 22.9707 76.002 23.792ZM81.554 27.744C81.17 27.8613 80.6847 27.968 80.098 28.064C79.522 28.16 78.914 28.208 78.274 28.208C77.6127 28.208 77.0207 28.1067 76.498 27.904C75.9753 27.7013 75.5273 27.4133 75.154 27.04C74.7913 26.656 74.5087 26.1973 74.306 25.664C74.114 25.12 74.018 24.512 74.018 23.84C74.018 23.1787 74.098 22.5813 74.258 22.048C74.4287 21.504 74.674 21.04 74.994 20.656C75.314 20.272 75.7033 19.9787 76.162 19.776C76.6207 19.5627 77.1487 19.456 77.746 19.456C78.1513 19.456 78.5087 19.504 78.818 19.6C79.1273 19.696 79.394 19.8027 79.618 19.92V15.904L81.554 15.584V27.744ZM93.2996 23.856C93.2996 22.992 93.1023 22.32 92.7076 21.84C92.3236 21.36 91.6996 21.12 90.8356 21.12C90.6543 21.12 90.4623 21.1307 90.2596 21.152C90.0676 21.1627 89.8756 21.1947 89.6836 21.248V26.032C89.8543 26.1493 90.0783 26.2613 90.3556 26.368C90.6436 26.464 90.9476 26.512 91.2676 26.512C91.9716 26.512 92.4836 26.272 92.8036 25.792C93.1343 25.312 93.2996 24.6667 93.2996 23.856ZM95.2836 23.824C95.2836 24.464 95.1983 25.0507 95.0276 25.584C94.8676 26.1173 94.633 26.576 94.3236 26.96C94.0143 27.344 93.625 27.6427 93.1556 27.856C92.697 28.0693 92.1743 28.176 91.5876 28.176C91.193 28.176 90.8303 28.128 90.4996 28.032C90.169 27.936 89.897 27.8293 89.6836 27.712V30.96H87.7476V19.904C88.1423 19.7973 88.6276 19.696 89.2036 19.6C89.7796 19.504 90.3876 19.456 91.0276 19.456C91.689 19.456 92.281 19.5573 92.8036 19.76C93.3263 19.9627 93.769 20.256 94.1316 20.64C94.505 21.0133 94.7876 21.472 94.9796 22.016C95.1823 22.5493 95.2836 23.152 95.2836 23.824ZM102.047 21.376C101.887 21.3227 101.663 21.2693 101.375 21.216C101.098 21.152 100.772 21.12 100.399 21.12C100.186 21.12 99.9562 21.1413 99.7109 21.184C99.4762 21.2267 99.3109 21.264 99.2149 21.296V28H97.2789V20.032C97.6522 19.8933 98.1162 19.7653 98.6709 19.648C99.2362 19.52 99.8602 19.456 100.543 19.456C100.671 19.456 100.82 19.4667 100.991 19.488C101.162 19.4987 101.332 19.52 101.503 19.552C101.674 19.5733 101.839 19.6053 101.999 19.648C102.159 19.68 102.287 19.712 102.383 19.744L102.047 21.376ZM111.3 23.808C111.3 24.4693 111.204 25.072 111.012 25.616C110.82 26.16 110.548 26.624 110.196 27.008C109.844 27.392 109.417 27.6907 108.916 27.904C108.425 28.1173 107.881 28.224 107.284 28.224C106.687 28.224 106.143 28.1173 105.652 27.904C105.161 27.6907 104.74 27.392 104.388 27.008C104.036 26.624 103.759 26.16 103.556 25.616C103.364 25.072 103.268 24.4693 103.268 23.808C103.268 23.1467 103.364 22.5493 103.556 22.016C103.759 21.472 104.036 21.008 104.388 20.624C104.751 20.24 105.177 19.9467 105.668 19.744C106.159 19.5307 106.697 19.424 107.284 19.424C107.871 19.424 108.409 19.5307 108.9 19.744C109.401 19.9467 109.828 20.24 110.18 20.624C110.532 21.008 110.804 21.472 110.996 22.016C111.199 22.5493 111.3 23.1467 111.3 23.808ZM109.316 23.808C109.316 22.976 109.135 22.32 108.772 21.84C108.42 21.3493 107.924 21.104 107.284 21.104C106.644 21.104 106.143 21.3493 105.78 21.84C105.428 22.32 105.252 22.976 105.252 23.808C105.252 24.6507 105.428 25.3173 105.78 25.808C106.143 26.2987 106.644 26.544 107.284 26.544C107.924 26.544 108.42 26.2987 108.772 25.808C109.135 25.3173 109.316 24.6507 109.316 23.808ZM118.847 23.856C118.847 22.992 118.649 22.32 118.255 21.84C117.871 21.36 117.247 21.12 116.383 21.12C116.201 21.12 116.009 21.1307 115.807 21.152C115.615 21.1627 115.423 21.1947 115.231 21.248V26.032C115.401 26.1493 115.625 26.2613 115.903 26.368C116.191 26.464 116.495 26.512 116.815 26.512C117.519 26.512 118.031 26.272 118.351 25.792C118.681 25.312 118.847 24.6667 118.847 23.856ZM120.831 23.824C120.831 24.464 120.745 25.0507 120.575 25.584C120.415 26.1173 120.18 26.576 119.871 26.96C119.561 27.344 119.172 27.6427 118.703 27.856C118.244 28.0693 117.721 28.176 117.135 28.176C116.74 28.176 116.377 28.128 116.047 28.032C115.716 27.936 115.444 27.8293 115.231 27.712V30.96H113.295V19.904C113.689 19.7973 114.175 19.696 114.751 19.6C115.327 19.504 115.935 19.456 116.575 19.456C117.236 19.456 117.828 19.5573 118.351 19.76C118.873 19.9627 119.316 20.256 119.679 20.64C120.052 21.0133 120.335 21.472 120.527 22.016C120.729 22.5493 120.831 23.152 120.831 23.824ZM122.362 23.856C122.362 23.12 122.468 22.4747 122.682 21.92C122.906 21.3653 123.199 20.9067 123.562 20.544C123.924 20.1707 124.34 19.8933 124.81 19.712C125.279 19.52 125.759 19.424 126.25 19.424C127.402 19.424 128.298 19.7813 128.938 20.496C129.588 21.2107 129.914 22.2773 129.914 23.696C129.914 23.8027 129.908 23.9253 129.898 24.064C129.898 24.192 129.892 24.3093 129.882 24.416H124.362C124.415 25.088 124.65 25.6107 125.066 25.984C125.492 26.3467 126.106 26.528 126.906 26.528C127.375 26.528 127.802 26.4853 128.186 26.4C128.58 26.3147 128.89 26.224 129.114 26.128L129.37 27.712C129.263 27.7653 129.114 27.824 128.922 27.888C128.74 27.9413 128.527 27.9893 128.282 28.032C128.047 28.0853 127.791 28.128 127.514 28.16C127.236 28.192 126.954 28.208 126.666 28.208C125.93 28.208 125.29 28.1013 124.746 27.888C124.202 27.664 123.754 27.36 123.402 26.976C123.05 26.5813 122.788 26.1227 122.618 25.6C122.447 25.0667 122.362 24.4853 122.362 23.856ZM127.978 22.992C127.978 22.7253 127.94 22.4747 127.866 22.24C127.791 21.9947 127.679 21.7867 127.53 21.616C127.391 21.4347 127.215 21.296 127.002 21.2C126.799 21.0933 126.554 21.04 126.266 21.04C125.967 21.04 125.706 21.0987 125.482 21.216C125.258 21.3227 125.066 21.4667 124.906 21.648C124.756 21.8293 124.639 22.0373 124.554 22.272C124.468 22.5067 124.41 22.7467 124.378 22.992H127.978ZM136.734 21.376C136.574 21.3227 136.35 21.2693 136.062 21.216C135.785 21.152 135.46 21.12 135.086 21.12C134.873 21.12 134.644 21.1413 134.398 21.184C134.164 21.2267 133.998 21.264 133.902 21.296V28H131.966V20.032C132.34 19.8933 132.804 19.7653 133.358 19.648C133.924 19.52 134.548 19.456 135.23 19.456C135.358 19.456 135.508 19.4667 135.678 19.488C135.849 19.4987 136.02 19.52 136.19 19.552C136.361 19.5733 136.526 19.6053 136.686 19.648C136.846 19.68 136.974 19.712 137.07 19.744L136.734 21.376ZM138.324 17.424L140.26 17.104V19.632H143.236V21.248H140.26V24.656C140.26 25.328 140.366 25.808 140.58 26.096C140.793 26.384 141.156 26.528 141.668 26.528C142.02 26.528 142.329 26.4907 142.596 26.416C142.873 26.3413 143.092 26.272 143.252 26.208L143.572 27.744C143.348 27.84 143.054 27.936 142.692 28.032C142.329 28.1387 141.902 28.192 141.411 28.192C140.814 28.192 140.313 28.112 139.908 27.952C139.513 27.792 139.198 27.5627 138.964 27.264C138.729 26.9547 138.564 26.5867 138.468 26.16C138.372 25.7227 138.324 25.2267 138.324 24.672V17.424ZM151.939 19.632C151.075 22.8107 150.072 25.6907 148.931 28.272C148.718 28.752 148.499 29.1627 148.275 29.504C148.051 29.8453 147.8 30.128 147.523 30.352C147.246 30.576 146.936 30.736 146.595 30.832C146.254 30.9387 145.859 30.992 145.411 30.992C145.112 30.992 144.814 30.96 144.515 30.896C144.227 30.832 144.008 30.7627 143.859 30.688L144.211 29.136C144.595 29.2853 144.974 29.36 145.347 29.36C145.848 29.36 146.238 29.2373 146.515 28.992C146.803 28.7573 147.054 28.3893 147.267 27.888C146.659 26.7147 146.072 25.4347 145.507 24.048C144.952 22.6613 144.456 21.1893 144.019 19.632H146.083C146.19 20.08 146.318 20.5653 146.467 21.088C146.627 21.6107 146.798 22.144 146.979 22.688C147.16 23.2213 147.352 23.7547 147.555 24.288C147.758 24.8213 147.96 25.3173 148.163 25.776C148.504 24.8267 148.824 23.8187 149.123 22.752C149.422 21.6747 149.694 20.6347 149.939 19.632H151.939Z" fill="white"/>
<circle cx="21" cy="22" r="8" fill="white"/>
<path d="M16.848 21.576H19.872V18.28H21.152V21.576H24.176V22.84H21.152V26.152H19.872V22.84H16.848V21.576Z" fill="#01AC84"/>
</svg>
