<svg width="153" height="18" viewBox="0 0 153 18" fill="none" xmlns="http://www.w3.org/2000/svg">
<path d="M32.042 12.824V14H26.204V4.298H27.562V12.824H32.042ZM39.6417 10.36C39.6417 10.9387 39.5577 11.4613 39.3897 11.928C39.2217 12.3947 38.9837 12.796 38.6757 13.132C38.377 13.468 38.0177 13.7293 37.5977 13.916C37.1777 14.0933 36.7204 14.182 36.2257 14.182C35.731 14.182 35.2737 14.0933 34.8537 13.916C34.4337 13.7293 34.0697 13.468 33.7617 13.132C33.463 12.796 33.2297 12.3947 33.0617 11.928C32.8937 11.4613 32.8097 10.9387 32.8097 10.36C32.8097 9.79067 32.8937 9.27267 33.0617 8.806C33.2297 8.33 33.463 7.924 33.7617 7.588C34.0697 7.252 34.4337 6.99533 34.8537 6.818C35.2737 6.63133 35.731 6.538 36.2257 6.538C36.7204 6.538 37.1777 6.63133 37.5977 6.818C38.0177 6.99533 38.377 7.252 38.6757 7.588C38.9837 7.924 39.2217 8.33 39.3897 8.806C39.5577 9.27267 39.6417 9.79067 39.6417 10.36ZM38.2837 10.36C38.2837 9.53867 38.097 8.89 37.7237 8.414C37.3597 7.92867 36.8604 7.686 36.2257 7.686C35.591 7.686 35.087 7.92867 34.7137 8.414C34.3497 8.89 34.1677 9.53867 34.1677 10.36C34.1677 11.1813 34.3497 11.8347 34.7137 12.32C35.087 12.796 35.591 13.034 36.2257 13.034C36.8604 13.034 37.3597 12.796 37.7237 12.32C38.097 11.8347 38.2837 11.1813 38.2837 10.36ZM47.2695 13.79C46.9708 13.8647 46.5742 13.944 46.0795 14.028C45.5942 14.112 45.0295 14.154 44.3855 14.154C43.8255 14.154 43.3542 14.0747 42.9715 13.916C42.5888 13.748 42.2808 13.5147 42.0475 13.216C41.8142 12.9173 41.6462 12.5673 41.5435 12.166C41.4408 11.7553 41.3895 11.3027 41.3895 10.808V6.72H42.6915V10.528C42.6915 11.4147 42.8315 12.0493 43.1115 12.432C43.3915 12.8147 43.8628 13.006 44.5255 13.006C44.6655 13.006 44.8102 13.0013 44.9595 12.992C45.1088 12.9827 45.2488 12.9733 45.3795 12.964C45.5102 12.9453 45.6268 12.9313 45.7295 12.922C45.8415 12.9033 45.9208 12.8847 45.9675 12.866V6.72H47.2695V13.79ZM51.6966 14.14C50.8939 14.1213 50.3246 13.9487 49.9886 13.622C49.6526 13.2953 49.4846 12.7867 49.4846 12.096V3.36L50.7866 3.136V11.886C50.7866 12.1007 50.8052 12.278 50.8426 12.418C50.8799 12.558 50.9406 12.67 51.0246 12.754C51.1086 12.838 51.2206 12.9033 51.3606 12.95C51.5006 12.9873 51.6732 13.02 51.8786 13.048L51.6966 14.14ZM55.0347 13.062C55.5667 13.062 55.9587 12.992 56.2107 12.852C56.472 12.712 56.6027 12.488 56.6027 12.18C56.6027 11.8627 56.4767 11.6107 56.2247 11.424C55.9727 11.2373 55.5574 11.0273 54.9787 10.794C54.6987 10.682 54.428 10.57 54.1667 10.458C53.9147 10.3367 53.6954 10.1967 53.5087 10.038C53.322 9.87933 53.1727 9.688 53.0607 9.464C52.9487 9.24 52.8927 8.96467 52.8927 8.638C52.8927 7.994 53.1307 7.48533 53.6067 7.112C54.0827 6.72933 54.7314 6.538 55.5527 6.538C55.758 6.538 55.9634 6.552 56.1687 6.58C56.374 6.59867 56.5654 6.62667 56.7427 6.664C56.92 6.692 57.074 6.72467 57.2047 6.762C57.3447 6.79933 57.452 6.832 57.5267 6.86L57.2887 7.98C57.1487 7.90533 56.9294 7.83067 56.6307 7.756C56.332 7.672 55.9727 7.63 55.5527 7.63C55.1887 7.63 54.8714 7.70467 54.6007 7.854C54.33 7.994 54.1947 8.218 54.1947 8.526C54.1947 8.68467 54.2227 8.82467 54.2787 8.946C54.344 9.06733 54.4374 9.17933 54.5587 9.282C54.6894 9.37533 54.848 9.464 55.0347 9.548C55.2214 9.632 55.4454 9.72067 55.7067 9.814C56.052 9.94467 56.36 10.0753 56.6307 10.206C56.9014 10.3273 57.13 10.472 57.3167 10.64C57.5127 10.808 57.662 11.0133 57.7647 11.256C57.8674 11.4893 57.9187 11.7787 57.9187 12.124C57.9187 12.796 57.6667 13.3047 57.1627 13.65C56.668 13.9953 55.9587 14.168 55.0347 14.168C54.3907 14.168 53.8867 14.112 53.5227 14C53.1587 13.8973 52.9114 13.818 52.7807 13.762L53.0187 12.642C53.168 12.698 53.406 12.782 53.7327 12.894C54.0594 13.006 54.4934 13.062 55.0347 13.062ZM60.8908 14H59.5888V6.72H60.8908V14ZM60.2328 5.404C59.9994 5.404 59.7988 5.32933 59.6308 5.18C59.4721 5.02133 59.3927 4.81133 59.3927 4.55C59.3927 4.28867 59.4721 4.08333 59.6308 3.934C59.7988 3.77533 59.9994 3.696 60.2328 3.696C60.4661 3.696 60.6621 3.77533 60.8208 3.934C60.9888 4.08333 61.0728 4.28867 61.0728 4.55C61.0728 4.81133 60.9888 5.02133 60.8208 5.18C60.6621 5.32933 60.4661 5.404 60.2328 5.404ZM65.5938 13.062C65.9018 13.062 66.1724 13.0573 66.4058 13.048C66.6484 13.0293 66.8491 13.0013 67.0078 12.964V10.794C66.9144 10.7473 66.7604 10.71 66.5458 10.682C66.3404 10.6447 66.0884 10.626 65.7898 10.626C65.5938 10.626 65.3838 10.64 65.1598 10.668C64.9451 10.696 64.7444 10.7567 64.5578 10.85C64.3804 10.934 64.2311 11.0553 64.1098 11.214C63.9884 11.3633 63.9278 11.564 63.9278 11.816C63.9278 12.2827 64.0771 12.6093 64.3758 12.796C64.6744 12.9733 65.0804 13.062 65.5938 13.062ZM65.4818 6.538C66.0044 6.538 66.4431 6.608 66.7978 6.748C67.1618 6.87867 67.4511 7.07 67.6658 7.322C67.8898 7.56467 68.0484 7.85867 68.1418 8.204C68.2351 8.54 68.2818 8.91333 68.2818 9.324V13.874C68.1698 13.8927 68.0111 13.9207 67.8058 13.958C67.6098 13.986 67.3858 14.014 67.1338 14.042C66.8818 14.07 66.6064 14.0933 66.3078 14.112C66.0184 14.14 65.7291 14.154 65.4398 14.154C65.0291 14.154 64.6511 14.112 64.3058 14.028C63.9604 13.944 63.6618 13.8133 63.4098 13.636C63.1578 13.4493 62.9618 13.2067 62.8218 12.908C62.6818 12.6093 62.6118 12.25 62.6118 11.83C62.6118 11.4287 62.6911 11.0833 62.8498 10.794C63.0178 10.5047 63.2418 10.2713 63.5218 10.094C63.8018 9.91667 64.1284 9.786 64.5018 9.702C64.8751 9.618 65.2671 9.576 65.6778 9.576C65.8084 9.576 65.9438 9.58533 66.0838 9.604C66.2238 9.61333 66.3544 9.632 66.4758 9.66C66.6064 9.67867 66.7184 9.69733 66.8118 9.716C66.9051 9.73467 66.9704 9.74867 67.0078 9.758V9.394C67.0078 9.17933 66.9844 8.96933 66.9378 8.764C66.8911 8.54933 66.8071 8.36267 66.6858 8.204C66.5644 8.036 66.3964 7.90533 66.1818 7.812C65.9764 7.70933 65.7058 7.658 65.3698 7.658C64.9404 7.658 64.5624 7.69067 64.2358 7.756C63.9184 7.812 63.6804 7.87267 63.5218 7.938L63.3678 6.86C63.5358 6.78533 63.8158 6.71533 64.2078 6.65C64.5998 6.57533 65.0244 6.538 65.4818 6.538ZM70.4442 6.93C70.7429 6.85533 71.1396 6.776 71.6342 6.692C72.1289 6.608 72.6982 6.566 73.3422 6.566C73.9209 6.566 74.4016 6.65 74.7842 6.818C75.1669 6.97667 75.4702 7.20533 75.6942 7.504C75.9276 7.79333 76.0909 8.14333 76.1842 8.554C76.2776 8.96467 76.3242 9.41733 76.3242 9.912V14H75.0222V10.192C75.0222 9.744 74.9896 9.36133 74.9242 9.044C74.8682 8.72667 74.7702 8.47 74.6302 8.274C74.4902 8.078 74.3036 7.938 74.0702 7.854C73.8369 7.76067 73.5476 7.714 73.2022 7.714C73.0622 7.714 72.9176 7.71867 72.7682 7.728C72.6189 7.73733 72.4742 7.75133 72.3342 7.77C72.2036 7.77933 72.0822 7.79333 71.9702 7.812C71.8676 7.83067 71.7929 7.84467 71.7462 7.854V14H70.4442V6.93ZM80.9473 13.062C81.2553 13.062 81.5259 13.0573 81.7593 13.048C82.0019 13.0293 82.2026 13.0013 82.3613 12.964V10.794C82.2679 10.7473 82.1139 10.71 81.8993 10.682C81.6939 10.6447 81.4419 10.626 81.1433 10.626C80.9473 10.626 80.7373 10.64 80.5133 10.668C80.2986 10.696 80.0979 10.7567 79.9113 10.85C79.7339 10.934 79.5846 11.0553 79.4633 11.214C79.3419 11.3633 79.2813 11.564 79.2813 11.816C79.2813 12.2827 79.4306 12.6093 79.7293 12.796C80.0279 12.9733 80.4339 13.062 80.9473 13.062ZM80.8353 6.538C81.3579 6.538 81.7966 6.608 82.1513 6.748C82.5153 6.87867 82.8046 7.07 83.0193 7.322C83.2433 7.56467 83.4019 7.85867 83.4953 8.204C83.5886 8.54 83.6353 8.91333 83.6353 9.324V13.874C83.5233 13.8927 83.3646 13.9207 83.1593 13.958C82.9633 13.986 82.7393 14.014 82.4873 14.042C82.2353 14.07 81.9599 14.0933 81.6613 14.112C81.3719 14.14 81.0826 14.154 80.7933 14.154C80.3826 14.154 80.0046 14.112 79.6593 14.028C79.3139 13.944 79.0153 13.8133 78.7633 13.636C78.5113 13.4493 78.3153 13.2067 78.1753 12.908C78.0353 12.6093 77.9653 12.25 77.9653 11.83C77.9653 11.4287 78.0446 11.0833 78.2033 10.794C78.3713 10.5047 78.5953 10.2713 78.8753 10.094C79.1553 9.91667 79.4819 9.786 79.8553 9.702C80.2286 9.618 80.6206 9.576 81.0313 9.576C81.1619 9.576 81.2973 9.58533 81.4373 9.604C81.5773 9.61333 81.7079 9.632 81.8293 9.66C81.9599 9.67867 82.0719 9.69733 82.1653 9.716C82.2586 9.73467 82.3239 9.74867 82.3613 9.758V9.394C82.3613 9.17933 82.3379 8.96933 82.2913 8.764C82.2446 8.54933 82.1606 8.36267 82.0393 8.204C81.9179 8.036 81.7499 7.90533 81.5353 7.812C81.3299 7.70933 81.0593 7.658 80.7233 7.658C80.2939 7.658 79.9159 7.69067 79.5893 7.756C79.2719 7.812 79.0339 7.87267 78.8753 7.938L78.7213 6.86C78.8893 6.78533 79.1693 6.71533 79.5613 6.65C79.9533 6.57533 80.3779 6.538 80.8353 6.538ZM87.1697 12.404C87.1791 12.4787 87.1837 12.5533 87.1837 12.628C87.1837 12.6933 87.1837 12.7633 87.1837 12.838C87.1837 13.426 87.0951 14.0047 86.9177 14.574C86.7497 15.1527 86.5164 15.7033 86.2177 16.226L85.2097 15.904C85.4431 15.428 85.5971 14.9427 85.6717 14.448C85.7464 13.9627 85.7837 13.5053 85.7837 13.076C85.7837 12.9547 85.7791 12.838 85.7697 12.726C85.7697 12.614 85.7651 12.5067 85.7557 12.404H87.1697ZM96.7393 14.21C96.0579 14.21 95.4373 14.098 94.8773 13.874C94.3173 13.65 93.8366 13.3233 93.4353 12.894C93.0339 12.4647 92.7213 11.9373 92.4973 11.312C92.2826 10.6773 92.1753 9.954 92.1753 9.142C92.1753 8.33 92.2966 7.61133 92.5393 6.986C92.7913 6.35133 93.1273 5.81933 93.5473 5.39C93.9673 4.96067 94.4573 4.634 95.0173 4.41C95.5773 4.186 96.1746 4.074 96.8093 4.074C97.2106 4.074 97.5699 4.102 97.8873 4.158C98.2139 4.214 98.4939 4.27933 98.7273 4.354C98.9699 4.42867 99.1659 4.50333 99.3153 4.578C99.4646 4.65267 99.5673 4.70867 99.6233 4.746L99.2313 5.866C99.1473 5.81 99.0259 5.74933 98.8673 5.684C98.7086 5.61867 98.5266 5.55333 98.3213 5.488C98.1253 5.42267 97.9059 5.37133 97.6633 5.334C97.4299 5.28733 97.1919 5.264 96.9493 5.264C96.4359 5.264 95.9739 5.35267 95.5633 5.53C95.1526 5.70733 94.8026 5.964 94.5133 6.3C94.2239 6.636 93.9999 7.04667 93.8413 7.532C93.6919 8.008 93.6173 8.54467 93.6173 9.142C93.6173 9.72067 93.6826 10.248 93.8133 10.724C93.9533 11.2 94.1586 11.6107 94.4293 11.956C94.6999 12.292 95.0359 12.5533 95.4373 12.74C95.8479 12.9267 96.3239 13.02 96.8653 13.02C97.4906 13.02 98.0086 12.9547 98.4193 12.824C98.8299 12.6933 99.1379 12.5767 99.3433 12.474L99.6933 13.594C99.6279 13.6407 99.5113 13.7013 99.3433 13.776C99.1753 13.8413 98.9653 13.9067 98.7133 13.972C98.4613 14.0373 98.1673 14.0933 97.8313 14.14C97.4953 14.1867 97.1313 14.21 96.7393 14.21ZM103.629 13.062C103.937 13.062 104.208 13.0573 104.441 13.048C104.684 13.0293 104.884 13.0013 105.043 12.964V10.794C104.95 10.7473 104.796 10.71 104.581 10.682C104.376 10.6447 104.124 10.626 103.825 10.626C103.629 10.626 103.419 10.64 103.195 10.668C102.98 10.696 102.78 10.7567 102.593 10.85C102.416 10.934 102.266 11.0553 102.145 11.214C102.024 11.3633 101.963 11.564 101.963 11.816C101.963 12.2827 102.112 12.6093 102.411 12.796C102.71 12.9733 103.116 13.062 103.629 13.062ZM103.517 6.538C104.04 6.538 104.478 6.608 104.833 6.748C105.197 6.87867 105.486 7.07 105.701 7.322C105.925 7.56467 106.084 7.85867 106.177 8.204C106.27 8.54 106.317 8.91333 106.317 9.324V13.874C106.205 13.8927 106.046 13.9207 105.841 13.958C105.645 13.986 105.421 14.014 105.169 14.042C104.917 14.07 104.642 14.0933 104.343 14.112C104.054 14.14 103.764 14.154 103.475 14.154C103.064 14.154 102.686 14.112 102.341 14.028C101.996 13.944 101.697 13.8133 101.445 13.636C101.193 13.4493 100.997 13.2067 100.857 12.908C100.717 12.6093 100.647 12.25 100.647 11.83C100.647 11.4287 100.726 11.0833 100.885 10.794C101.053 10.5047 101.277 10.2713 101.557 10.094C101.837 9.91667 102.164 9.786 102.537 9.702C102.91 9.618 103.302 9.576 103.713 9.576C103.844 9.576 103.979 9.58533 104.119 9.604C104.259 9.61333 104.39 9.632 104.511 9.66C104.642 9.67867 104.754 9.69733 104.847 9.716C104.94 9.73467 105.006 9.74867 105.043 9.758V9.394C105.043 9.17933 105.02 8.96933 104.973 8.764C104.926 8.54933 104.842 8.36267 104.721 8.204C104.6 8.036 104.432 7.90533 104.217 7.812C104.012 7.70933 103.741 7.658 103.405 7.658C102.976 7.658 102.598 7.69067 102.271 7.756C101.954 7.812 101.716 7.87267 101.557 7.938L101.403 6.86C101.571 6.78533 101.851 6.71533 102.243 6.65C102.635 6.57533 103.06 6.538 103.517 6.538ZM110.663 14.14C109.861 14.1213 109.291 13.9487 108.955 13.622C108.619 13.2953 108.451 12.7867 108.451 12.096V3.36L109.753 3.136V11.886C109.753 12.1007 109.772 12.278 109.809 12.418C109.847 12.558 109.907 12.67 109.991 12.754C110.075 12.838 110.187 12.9033 110.327 12.95C110.467 12.9873 110.64 13.02 110.845 13.048L110.663 14.14ZM113.61 14H112.308V6.72H113.61V14ZM112.952 5.404C112.718 5.404 112.518 5.32933 112.35 5.18C112.191 5.02133 112.111 4.81133 112.111 4.55C112.111 4.28867 112.191 4.08333 112.35 3.934C112.518 3.77533 112.718 3.696 112.952 3.696C113.185 3.696 113.381 3.77533 113.54 3.934C113.708 4.08333 113.792 4.28867 113.792 4.55C113.792 4.81133 113.708 5.02133 113.54 5.18C113.381 5.32933 113.185 5.404 112.952 5.404ZM118.691 3.136C119.073 3.136 119.4 3.164 119.671 3.22C119.951 3.276 120.147 3.32733 120.259 3.374L120.021 4.494C119.909 4.438 119.75 4.38667 119.545 4.34C119.339 4.284 119.087 4.256 118.789 4.256C118.182 4.256 117.757 4.424 117.515 4.76C117.272 5.08667 117.151 5.53 117.151 6.09V6.72H119.951V7.812H117.151V14H115.849V6.062C115.849 5.12867 116.077 4.41 116.535 3.906C116.992 3.39267 117.711 3.136 118.691 3.136ZM127.675 10.36C127.675 10.9387 127.591 11.4613 127.423 11.928C127.255 12.3947 127.017 12.796 126.709 13.132C126.41 13.468 126.051 13.7293 125.631 13.916C125.211 14.0933 124.754 14.182 124.259 14.182C123.764 14.182 123.307 14.0933 122.887 13.916C122.467 13.7293 122.103 13.468 121.795 13.132C121.496 12.796 121.263 12.3947 121.095 11.928C120.927 11.4613 120.843 10.9387 120.843 10.36C120.843 9.79067 120.927 9.27267 121.095 8.806C121.263 8.33 121.496 7.924 121.795 7.588C122.103 7.252 122.467 6.99533 122.887 6.818C123.307 6.63133 123.764 6.538 124.259 6.538C124.754 6.538 125.211 6.63133 125.631 6.818C126.051 6.99533 126.41 7.252 126.709 7.588C127.017 7.924 127.255 8.33 127.423 8.806C127.591 9.27267 127.675 9.79067 127.675 10.36ZM126.317 10.36C126.317 9.53867 126.13 8.89 125.757 8.414C125.393 7.92867 124.894 7.686 124.259 7.686C123.624 7.686 123.12 7.92867 122.747 8.414C122.383 8.89 122.201 9.53867 122.201 10.36C122.201 11.1813 122.383 11.8347 122.747 12.32C123.12 12.796 123.624 13.034 124.259 13.034C124.894 13.034 125.393 12.796 125.757 12.32C126.13 11.8347 126.317 11.1813 126.317 10.36ZM132.195 6.566C132.307 6.566 132.433 6.57533 132.573 6.594C132.722 6.60333 132.867 6.622 133.007 6.65C133.147 6.66867 133.273 6.692 133.385 6.72C133.506 6.73867 133.595 6.75733 133.651 6.776L133.427 7.91C133.324 7.87267 133.151 7.83067 132.909 7.784C132.675 7.728 132.372 7.7 131.999 7.7C131.756 7.7 131.513 7.728 131.271 7.784C131.037 7.83067 130.883 7.86333 130.809 7.882V14H129.507V7.028C129.815 6.916 130.197 6.81333 130.655 6.72C131.112 6.61733 131.625 6.566 132.195 6.566ZM134.907 6.93C135.206 6.85533 135.602 6.776 136.097 6.692C136.592 6.608 137.161 6.566 137.805 6.566C138.384 6.566 138.864 6.65 139.247 6.818C139.63 6.97667 139.933 7.20533 140.157 7.504C140.39 7.79333 140.554 8.14333 140.647 8.554C140.74 8.96467 140.787 9.41733 140.787 9.912V14H139.485V10.192C139.485 9.744 139.452 9.36133 139.387 9.044C139.331 8.72667 139.233 8.47 139.093 8.274C138.953 8.078 138.766 7.938 138.533 7.854C138.3 7.76067 138.01 7.714 137.665 7.714C137.525 7.714 137.38 7.71867 137.231 7.728C137.082 7.73733 136.937 7.75133 136.797 7.77C136.666 7.77933 136.545 7.79333 136.433 7.812C136.33 7.83067 136.256 7.84467 136.209 7.854V14H134.907V6.93ZM144.248 14H142.946V6.72H144.248V14ZM143.59 5.404C143.357 5.404 143.156 5.32933 142.988 5.18C142.83 5.02133 142.75 4.81133 142.75 4.55C142.75 4.28867 142.83 4.08333 142.988 3.934C143.156 3.77533 143.357 3.696 143.59 3.696C143.824 3.696 144.02 3.77533 144.178 3.934C144.346 4.08333 144.43 4.28867 144.43 4.55C144.43 4.81133 144.346 5.02133 144.178 5.18C144.02 5.32933 143.824 5.404 143.59 5.404ZM148.951 13.062C149.259 13.062 149.53 13.0573 149.763 13.048C150.006 13.0293 150.207 13.0013 150.365 12.964V10.794C150.272 10.7473 150.118 10.71 149.903 10.682C149.698 10.6447 149.446 10.626 149.147 10.626C148.951 10.626 148.741 10.64 148.517 10.668C148.303 10.696 148.102 10.7567 147.915 10.85C147.738 10.934 147.589 11.0553 147.467 11.214C147.346 11.3633 147.285 11.564 147.285 11.816C147.285 12.2827 147.435 12.6093 147.733 12.796C148.032 12.9733 148.438 13.062 148.951 13.062ZM148.839 6.538C149.362 6.538 149.801 6.608 150.155 6.748C150.519 6.87867 150.809 7.07 151.023 7.322C151.247 7.56467 151.406 7.85867 151.499 8.204C151.593 8.54 151.639 8.91333 151.639 9.324V13.874C151.527 13.8927 151.369 13.9207 151.163 13.958C150.967 13.986 150.743 14.014 150.491 14.042C150.239 14.07 149.964 14.0933 149.665 14.112C149.376 14.14 149.087 14.154 148.797 14.154C148.387 14.154 148.009 14.112 147.663 14.028C147.318 13.944 147.019 13.8133 146.767 13.636C146.515 13.4493 146.319 13.2067 146.179 12.908C146.039 12.6093 145.969 12.25 145.969 11.83C145.969 11.4287 146.049 11.0833 146.207 10.794C146.375 10.5047 146.599 10.2713 146.879 10.094C147.159 9.91667 147.486 9.786 147.859 9.702C148.233 9.618 148.625 9.576 149.035 9.576C149.166 9.576 149.301 9.58533 149.441 9.604C149.581 9.61333 149.712 9.632 149.833 9.66C149.964 9.67867 150.076 9.69733 150.169 9.716C150.263 9.73467 150.328 9.74867 150.365 9.758V9.394C150.365 9.17933 150.342 8.96933 150.295 8.764C150.249 8.54933 150.165 8.36267 150.043 8.204C149.922 8.036 149.754 7.90533 149.539 7.812C149.334 7.70933 149.063 7.658 148.727 7.658C148.298 7.658 147.92 7.69067 147.593 7.756C147.276 7.812 147.038 7.87267 146.879 7.938L146.725 6.86C146.893 6.78533 147.173 6.71533 147.565 6.65C147.957 6.57533 148.382 6.538 148.839 6.538Z" fill="black"/>
<g clip-path="url(#clip0_408_885)">
<path d="M15.75 7.5C15.75 12.75 9 17.25 9 17.25C9 17.25 2.25 12.75 2.25 7.5C2.25 5.70979 2.96116 3.9929 4.22703 2.72703C5.4929 1.46116 7.20979 0.75 9 0.75C10.7902 0.75 12.5071 1.46116 13.773 2.72703C15.0388 3.9929 15.75 5.70979 15.75 7.5Z" stroke="black" stroke-width="2" stroke-linecap="round" stroke-linejoin="round"/>
<path d="M9 9.75C10.2426 9.75 11.25 8.74264 11.25 7.5C11.25 6.25736 10.2426 5.25 9 5.25C7.75736 5.25 6.75 6.25736 6.75 7.5C6.75 8.74264 7.75736 9.75 9 9.75Z" stroke="black" stroke-width="2" stroke-linecap="round" stroke-linejoin="round"/>
</g>
<defs>
<clipPath id="clip0_408_885">
<rect width="18" height="18" fill="white"/>
</clipPath>
</defs>
</svg>
