<svg width="273" height="58" viewBox="0 0 273 58" fill="none" xmlns="http://www.w3.org/2000/svg">
<path d="M55.5405 4.08C57.7765 5.328 59.5965 7.018 61.0005 9.15C62.4565 11.282 63.1845 13.674 63.1845 16.326C63.1845 18.978 61.5205 22.02 58.1925 25.452C54.8645 28.884 50.8085 31.822 46.0245 34.266C41.2925 36.658 37.1585 37.854 33.6225 37.854C30.1385 37.854 27.6165 36.398 26.0565 33.486C17.1125 45.498 12.0685 52.778 10.9245 55.326C10.9765 55.586 11.0025 55.95 11.0025 56.418C11.0025 56.938 10.7165 57.198 10.1445 57.198C9.57248 57.198 8.81848 56.704 7.88248 55.716C6.99848 54.78 6.55648 53.428 6.55648 51.66C6.55648 51.14 6.58248 50.724 6.63448 50.412C7.10248 46.98 11.8605 40.22 20.9085 30.132C30.0085 20.044 36.5605 13.908 40.5645 11.724C41.3965 11.308 42.0205 11.1 42.4365 11.1C42.8525 11.1 43.2685 11.23 43.6845 11.49C44.1525 11.75 44.3865 12.062 44.3865 12.426C44.3865 12.79 44.2825 13.076 44.0745 13.284C40.1745 17.34 37.8345 19.81 37.0545 20.694L27.7725 31.458C27.6685 31.614 27.6165 31.77 27.6165 31.926C27.6165 32.29 27.8505 32.472 28.3185 32.472C30.3985 32.472 33.2065 31.874 36.7425 30.678C40.3305 29.482 43.8665 28 47.3505 26.232C50.8345 24.412 53.8505 22.306 56.3985 19.914C58.9465 17.47 60.2205 15.208 60.2205 13.128C60.2205 11.412 58.5825 10.138 55.3065 9.306C52.0305 8.474 48.4945 8.058 44.6985 8.058C40.9545 8.058 36.8985 8.604 32.5305 9.696C28.1625 10.736 24.3405 12.036 21.0645 13.596C17.8405 15.156 14.9285 16.794 12.3285 18.51C9.72848 20.174 7.75248 21.656 6.40048 22.956C5.10048 24.204 4.45048 25.036 4.45048 25.452C4.45048 25.816 4.63248 25.998 4.99648 25.998C5.36048 25.998 6.34848 25.738 7.96048 25.218C13.1605 23.502 18.2565 21.188 23.2485 18.276C23.6125 18.068 23.8465 17.964 23.9505 17.964C24.1065 17.964 24.1845 18.042 24.1845 18.198C24.1845 18.302 23.8465 18.796 23.1705 19.68C22.5465 20.512 21.6625 21.552 20.5185 22.8C19.3745 23.996 18.1265 25.166 16.7745 26.31C15.4225 27.454 13.8885 28.442 12.1725 29.274C10.5085 30.054 8.87048 30.444 7.25848 30.444C5.69848 30.444 4.13848 29.82 2.57848 28.572C1.07048 27.272 0.316477 25.53 0.316477 23.346C0.316477 21.11 1.40848 18.692 3.59248 16.092C5.77648 13.492 8.63648 11.022 12.1725 8.682C15.7605 6.342 20.2065 4.366 25.5105 2.754C30.8145 1.142 35.9885 0.335998 41.0325 0.335998C46.0765 0.335998 50.9125 1.584 55.5405 4.08ZM61.1662 50.724L61.7902 45.732C61.7902 45.576 61.7382 45.498 61.6342 45.498C61.5822 45.498 61.4522 45.602 61.2442 45.81C60.5682 46.538 59.7102 47.448 58.6702 48.54C57.6302 49.58 55.8362 51.01 53.2882 52.83C50.7922 54.598 48.7642 55.482 47.2042 55.482C46.9442 55.43 46.6322 55.326 46.2682 55.17C45.8522 55.066 45.3322 54.65 44.7082 53.922C44.0842 53.194 43.7722 52.154 43.7722 50.802C43.7722 49.45 44.8122 47.396 46.8922 44.64C48.9202 41.832 51.3642 39.102 54.2242 36.45C57.0842 33.746 60.2562 31.406 63.7402 29.43C67.2762 27.454 70.3442 26.466 72.9442 26.466C73.9322 26.518 74.7122 27.22 75.2842 28.572C75.8042 28.052 76.2722 27.792 76.6882 27.792C77.1042 27.792 77.5982 28.104 78.1702 28.728C78.4822 28.78 78.7942 28.962 79.1062 29.274C79.4182 29.534 79.5742 29.924 79.5742 30.444C79.5742 30.964 79.2102 31.536 78.4822 32.16C77.3902 33.512 76.1162 35.046 74.6602 36.762C73.2042 38.478 72.1642 39.726 71.5402 40.506C70.9162 41.234 70.2662 42.066 69.5902 43.002C68.4462 44.614 67.8222 45.914 67.7182 46.902C73.0222 44.354 81.3682 38.868 92.7562 30.444C93.2242 30.808 93.4582 31.25 93.4582 31.77C93.4582 32.29 93.2502 32.732 92.8342 33.096C92.4182 33.46 91.8982 33.902 91.2742 34.422C90.7022 34.942 89.5322 35.956 87.7642 37.464C85.9962 38.972 84.2802 40.428 82.6162 41.832C81.0042 43.184 79.1322 44.718 77.0002 46.434C74.9202 48.098 73.0482 49.528 71.3842 50.724C67.3802 53.584 64.8842 55.014 63.8962 55.014C62.9082 55.014 62.2062 54.702 61.7902 54.078C61.3742 53.454 61.1662 52.336 61.1662 50.724ZM53.2102 47.448C53.8342 47.448 55.7322 46.174 58.9042 43.626C62.1282 41.078 65.1702 38.53 68.0302 35.982L72.3982 32.16C72.6062 31.952 72.7102 31.822 72.7102 31.77C72.7102 31.666 72.6322 31.614 72.4762 31.614C70.5002 31.614 67.9262 32.758 64.7542 35.046C61.5822 37.282 58.8262 39.674 56.4862 42.222C54.1982 44.718 53.0542 46.408 53.0542 47.292C53.0542 47.396 53.1062 47.448 53.2102 47.448ZM80.4085 39.414C83.2685 37.438 86.2585 35.306 89.3785 33.018C87.7145 31.874 86.6485 30.756 86.1805 29.664C86.0245 29.3 85.9465 29.04 85.9465 28.884C85.9465 27.844 86.2845 27.168 86.9605 26.856C87.6365 26.492 88.7285 26.31 90.2365 26.31C90.8085 26.31 92.4985 27.012 95.3065 28.416C98.1145 29.82 99.8825 30.522 100.61 30.522C101.39 30.522 102.456 30.314 103.808 29.898C105.16 29.43 106.226 29.196 107.006 29.196C107.838 29.196 108.436 29.378 108.8 29.742C110.1 31.458 110.75 32.498 110.75 32.862C110.75 33.226 110.568 33.538 110.204 33.798C109.892 34.006 108.826 34.734 107.006 35.982C105.238 37.23 103.496 38.504 101.78 39.804C100.064 41.104 98.4525 42.56 96.9445 44.172C95.4365 45.784 94.6825 47.084 94.6825 48.072C94.6825 48.228 94.8125 48.306 95.0725 48.306C97.8805 48.306 107.344 42.612 123.464 31.224C123.828 31.224 124.01 31.562 124.01 32.238C124.01 32.862 121.956 35.098 117.848 38.946C113.74 42.742 109.086 46.486 103.886 50.178C98.7385 53.818 94.9945 55.638 92.6545 55.638C89.0145 55.638 87.1945 53.818 87.1945 50.178C87.1945 48.202 87.8445 46.304 89.1445 44.484C90.4965 42.612 93.3045 40.116 97.5685 36.996C96.6845 36.996 95.4885 36.788 93.9805 36.372C92.4725 35.904 91.5105 35.358 91.0945 34.734C89.7425 35.93 87.4025 37.932 84.0745 40.74C83.2945 41.312 82.2805 41.598 81.0325 41.598C79.7845 41.598 79.1605 41.416 79.1605 41.052C79.1605 40.636 79.5765 40.09 80.4085 39.414ZM145.698 17.964L149.676 17.886C154.824 17.886 158.568 18.614 160.908 20.07C162.052 20.434 162.624 20.902 162.624 21.474C162.624 21.89 162.104 22.176 161.064 22.332C160.076 22.488 156.566 22.904 150.534 23.58C144.554 24.204 140.446 24.568 138.21 24.672C137.222 24.724 134.934 26.44 131.346 29.82C127.81 33.2 124.43 36.918 121.206 40.974C117.982 45.03 116.37 47.864 116.37 49.476C116.37 49.736 116.5 49.97 116.76 50.178C117.02 50.334 117.332 50.412 117.696 50.412C118.112 50.412 118.736 50.256 119.568 49.944C129.448 44.12 139.042 37.75 148.35 30.834C148.818 31.198 149.052 31.64 149.052 32.16C149.052 32.68 148.792 33.2 148.272 33.72C147.752 34.188 146.972 34.89 145.932 35.826C144.944 36.762 143.072 38.452 140.316 40.896C137.56 43.34 134.96 45.524 132.516 47.448C125.964 52.752 121.388 55.82 118.788 56.652C117.852 56.912 116.734 57.042 115.434 57.042C114.186 57.042 113.016 56.392 111.924 55.092C110.884 53.792 110.364 52.024 110.364 49.788C110.364 47.552 111.794 44.328 114.654 40.116C117.566 35.904 121.518 31.588 126.51 27.168C126.978 26.804 127.212 26.466 127.212 26.154C127.212 25.842 126.666 25.686 125.574 25.686L120.66 25.842C113.744 25.842 110.182 25.062 109.974 23.502C108.362 23.19 107.556 22.722 107.556 22.098C107.556 21.89 107.66 21.786 107.868 21.786C108.076 21.734 108.258 21.708 108.414 21.708C108.57 21.656 108.83 21.604 109.194 21.552C109.558 21.5 112.418 21.084 117.774 20.304C123.182 19.524 129.318 18.874 136.182 18.354L141.564 11.178C141.876 10.554 142.968 10.242 144.84 10.242C146.712 10.242 147.648 10.632 147.648 11.412C147.648 11.672 147.44 12.14 147.024 12.816L145.074 15.546C144.814 16.378 144.658 17.002 144.606 17.418C144.606 17.782 144.97 17.964 145.698 17.964ZM151.429 28.182C151.845 28.182 152.521 28.39 153.457 28.806C154.445 29.222 154.939 29.69 154.939 30.21C154.939 30.574 154.809 30.938 154.549 31.302L148.699 39.414C148.023 40.246 147.685 40.714 147.685 40.818C147.685 40.922 147.711 40.974 147.763 40.974L148.153 40.74C154.185 36.528 159.151 32.836 163.051 29.664C163.779 29.144 164.377 28.884 164.845 28.884C165.365 28.884 165.703 28.936 165.859 29.04L168.043 29.664C168.563 29.924 168.823 30.262 168.823 30.678C168.823 31.094 168.719 31.432 168.511 31.692C167.523 32.784 166.379 34.032 165.079 35.436C163.831 36.788 162.895 37.828 162.271 38.556C161.647 39.232 160.945 40.012 160.165 40.896C159.385 41.78 158.813 42.456 158.449 42.924C158.137 43.392 157.773 43.938 157.357 44.562C156.941 45.134 156.655 45.628 156.499 46.044C156.187 47.24 156.031 48.28 156.031 49.164C156.031 49.632 156.317 49.866 156.889 49.866C157.513 49.866 158.605 49.502 160.165 48.774C161.777 48.046 163.675 46.928 165.859 45.42C168.095 43.912 171.033 41.78 174.673 39.024C178.365 36.216 181.589 33.85 184.345 31.926C184.813 32.29 185.047 32.732 185.047 33.252C185.047 33.772 184.813 34.24 184.345 34.656C182.681 36.268 180.575 38.296 178.027 40.74C175.479 43.132 171.579 46.356 166.327 50.412C161.127 54.468 157.487 56.496 155.407 56.496C151.403 56.496 149.401 54.364 149.401 50.1C149.401 48.488 150.025 46.798 151.273 45.03L154.627 40.428C154.939 39.96 155.095 39.7 155.095 39.648C155.095 39.544 154.939 39.622 154.627 39.882C145.579 47.422 139.807 51.842 137.311 53.142C136.895 53.402 136.375 53.532 135.751 53.532C134.035 53.532 133.177 52.752 133.177 51.192C133.177 50.672 133.307 50.204 133.567 49.788C137.415 46.252 140.119 43.366 141.679 41.13C142.927 39.882 144.227 38.14 145.579 35.904C146.983 33.668 148.153 31.822 149.089 30.366C150.077 28.91 150.857 28.182 151.429 28.182ZM194.404 30.444C193.052 30.444 190.764 31.848 187.54 34.656C184.316 37.412 182.704 39.102 182.704 39.726C182.704 39.83 182.782 39.882 182.938 39.882C184.082 39.882 186.344 38.608 189.724 36.06C193.156 33.512 194.872 31.77 194.872 30.834C194.872 30.574 194.716 30.444 194.404 30.444ZM177.79 55.404C173.786 55.404 171.784 52.96 171.784 48.072C171.784 45.004 173.11 41.754 175.762 38.322C178.466 34.838 181.638 32.004 185.278 29.82C188.918 27.584 192.142 26.466 194.95 26.466C196.198 26.466 197.342 26.96 198.382 27.948C199.474 28.936 200.02 29.898 200.02 30.834C200.02 32.55 198.798 34.5 196.354 36.684C193.91 38.816 191.336 40.558 188.632 41.91C185.98 43.21 184.212 43.86 183.328 43.86C182.496 43.86 181.872 43.47 181.456 42.69C181.248 42.534 180.962 42.456 180.598 42.456C180.234 42.456 179.636 43.158 178.804 44.562C177.972 45.914 177.556 47.032 177.556 47.916C177.556 48.748 177.868 49.268 178.492 49.476C182.444 49.476 186.734 48.332 191.362 46.044C195.99 43.704 202.386 39.622 210.55 33.798C211.122 33.382 211.98 32.758 213.124 31.926C214.32 31.094 215.022 30.6 215.23 30.444C215.698 30.808 215.932 31.25 215.932 31.77C215.932 32.29 215.698 32.758 215.23 33.174C212.63 35.774 209.25 38.686 205.09 41.91C200.982 45.134 196.25 48.202 190.894 51.114C185.538 53.974 181.17 55.404 177.79 55.404ZM202.207 39.414C205.067 37.438 208.057 35.306 211.177 33.018C209.513 31.874 208.447 30.756 207.979 29.664C207.823 29.3 207.745 29.04 207.745 28.884C207.745 27.844 208.083 27.168 208.759 26.856C209.435 26.492 210.527 26.31 212.035 26.31C212.607 26.31 214.297 27.012 217.105 28.416C219.913 29.82 221.681 30.522 222.409 30.522C223.189 30.522 224.255 30.314 225.607 29.898C226.959 29.43 228.025 29.196 228.805 29.196C229.637 29.196 230.235 29.378 230.599 29.742C231.899 31.458 232.549 32.498 232.549 32.862C232.549 33.226 232.367 33.538 232.003 33.798C231.691 34.006 230.625 34.734 228.805 35.982C227.037 37.23 225.295 38.504 223.579 39.804C221.863 41.104 220.251 42.56 218.743 44.172C217.235 45.784 216.481 47.084 216.481 48.072C216.481 48.228 216.611 48.306 216.871 48.306C219.679 48.306 229.143 42.612 245.263 31.224C245.627 31.224 245.809 31.562 245.809 32.238C245.809 32.862 243.755 35.098 239.647 38.946C235.539 42.742 230.885 46.486 225.685 50.178C220.537 53.818 216.793 55.638 214.453 55.638C210.813 55.638 208.993 53.818 208.993 50.178C208.993 48.202 209.643 46.304 210.943 44.484C212.295 42.612 215.103 40.116 219.367 36.996C218.483 36.996 217.287 36.788 215.779 36.372C214.271 35.904 213.309 35.358 212.893 34.734C211.541 35.93 209.201 37.932 205.873 40.74C205.093 41.312 204.079 41.598 202.831 41.598C201.583 41.598 200.959 41.416 200.959 41.052C200.959 40.636 201.375 40.09 202.207 39.414ZM240.898 48.306C242.718 48.306 244.382 47.214 245.89 45.03C247.45 42.794 248.542 40.558 249.166 38.322C249.79 36.034 250.102 34.214 250.102 32.862C250.102 32.498 249.816 32.316 249.244 32.316C248.724 32.316 248.1 32.602 247.372 33.174L237.154 41.052C236.426 41.468 235.594 41.676 234.658 41.676C233.722 41.676 233.254 41.338 233.254 40.662C233.254 40.194 233.306 39.882 233.41 39.726C233.566 39.57 233.956 39.31 234.58 38.946C238.428 36.294 243.68 31.978 250.336 25.998C251.116 24.958 251.818 24.438 252.442 24.438C253.066 24.438 254.106 24.646 255.562 25.062C257.018 25.426 257.746 25.868 257.746 26.388C257.746 29.508 257.46 32.342 256.888 34.89C256.316 37.438 255.718 39.388 255.094 40.74C254.522 42.04 254.236 42.742 254.236 42.846C254.236 42.95 254.288 43.002 254.392 43.002C254.496 43.002 254.704 42.924 255.016 42.768C258.916 40.792 263.882 37.568 269.914 33.096L271.786 31.692C272.254 32.056 272.488 32.498 272.488 33.018C272.488 33.538 272.254 34.006 271.786 34.422C271.682 34.422 270.33 35.514 267.73 37.698C265.182 39.882 262.322 42.274 259.15 44.874C256.03 47.422 252.676 49.762 249.088 51.894C245.5 54.026 242.718 55.092 240.742 55.092C235.854 55.092 233.41 52.154 233.41 46.278C233.41 45.81 233.592 45.394 233.956 45.03C234.372 44.614 234.892 44.406 235.516 44.406C235.516 44.666 235.646 45.082 235.906 45.654C236.218 46.174 236.53 46.616 236.842 46.98C237.778 47.864 239.13 48.306 240.898 48.306Z" fill="#DBEEEA"/>
</svg>
