<svg width="324" height="82" viewBox="0 0 324 82" fill="none" xmlns="http://www.w3.org/2000/svg">
<path d="M56.036 4.44C58.3007 5.704 60.144 7.41566 61.566 9.575C63.0407 11.7343 63.778 14.157 63.778 16.843C63.778 19.529 62.0927 22.61 58.722 26.086C55.3513 29.562 51.2433 32.5377 46.398 35.013C41.6053 37.4357 37.4183 38.647 33.837 38.647C30.3083 38.647 27.754 37.1723 26.174 34.223C17.1153 46.389 12.0067 53.7623 10.848 56.343C10.9007 56.6063 10.927 56.975 10.927 57.449C10.927 57.9757 10.6373 58.239 10.058 58.239C9.47867 58.239 8.715 57.7387 7.767 56.738C6.87167 55.79 6.424 54.4207 6.424 52.63C6.424 52.1033 6.45033 51.682 6.503 51.366C6.977 47.89 11.796 41.0433 20.96 30.826C30.1767 20.6087 36.8127 14.394 40.868 12.182C41.7107 11.7607 42.3427 11.55 42.764 11.55C43.1853 11.55 43.6067 11.6817 44.028 11.945C44.502 12.2083 44.739 12.5243 44.739 12.893C44.739 13.2617 44.6337 13.5513 44.423 13.762C40.473 17.87 38.103 20.3717 37.313 21.267L27.912 32.169C27.8067 32.327 27.754 32.485 27.754 32.643C27.754 33.0117 27.991 33.196 28.465 33.196C30.5717 33.196 33.4157 32.5903 36.997 31.379C40.631 30.1677 44.2123 28.6667 47.741 26.876C51.2697 25.0327 54.3243 22.8997 56.905 20.477C59.4857 18.0017 60.776 15.7107 60.776 13.604C60.776 11.866 59.117 10.5757 55.799 9.733C52.481 8.89033 48.8997 8.469 45.055 8.469C41.263 8.469 37.155 9.022 32.731 10.128C28.307 11.1813 24.436 12.498 21.118 14.078C17.8527 15.658 14.9033 17.317 12.27 19.055C9.63667 20.7403 7.63533 22.2413 6.266 23.558C4.94933 24.822 4.291 25.6647 4.291 26.086C4.291 26.4547 4.47533 26.639 4.844 26.639C5.21267 26.639 6.21333 26.3757 7.846 25.849C13.1127 24.111 18.274 21.7673 23.33 18.818C23.6987 18.6073 23.9357 18.502 24.041 18.502C24.199 18.502 24.278 18.581 24.278 18.739C24.278 18.8443 23.9357 19.3447 23.251 20.24C22.619 21.0827 21.7237 22.136 20.565 23.4C19.4063 24.6113 18.1423 25.7963 16.773 26.955C15.4037 28.1137 13.85 29.1143 12.112 29.957C10.4267 30.747 8.76767 31.142 7.135 31.142C5.555 31.142 3.975 30.51 2.395 29.246C0.867667 27.9293 0.104 26.165 0.104 23.953C0.104 21.6883 1.21 19.2393 3.422 16.606C5.634 13.9727 8.53067 11.471 12.112 9.101C15.746 6.731 20.249 4.72966 25.621 3.097C30.993 1.46433 36.2333 0.647998 41.342 0.647998C46.4507 0.647998 51.3487 1.912 56.036 4.44ZM52.6779 40.227C55.5745 38.2257 58.6029 36.0663 61.7629 33.749C60.0775 32.5903 58.9979 31.458 58.5239 30.352C58.3659 29.9833 58.2869 29.72 58.2869 29.562C58.2869 28.5087 58.6292 27.824 59.3139 27.508C59.9985 27.1393 61.1045 26.955 62.6319 26.955C63.2112 26.955 64.9229 27.666 67.7669 29.088C70.6109 30.51 72.4015 31.221 73.1389 31.221C73.9289 31.221 75.0086 31.0103 76.3779 30.589C77.7472 30.115 78.8269 29.878 79.6169 29.878C80.4596 29.878 81.0652 30.0623 81.4339 30.431C82.7506 32.169 83.4089 33.2223 83.4089 33.591C83.4089 33.9597 83.2246 34.2757 82.8559 34.539C82.5399 34.7497 81.4602 35.487 79.6169 36.751C77.8262 38.015 76.0619 39.3053 74.3239 40.622C72.5859 41.9387 70.9532 43.4133 69.4259 45.046C67.8986 46.6787 67.1349 47.9953 67.1349 48.996C67.1349 49.154 67.2666 49.233 67.5299 49.233C70.3739 49.233 79.9592 43.466 96.2859 31.932C96.6546 31.932 96.8389 32.2743 96.8389 32.959C96.8389 33.591 94.7586 35.8557 90.5979 39.753C86.4372 43.5977 81.7236 47.3897 76.4569 51.129C71.2429 54.8157 67.4509 56.659 65.0809 56.659C61.3942 56.659 59.5509 54.8157 59.5509 51.129C59.5509 49.1277 60.2092 47.2053 61.5259 45.362C62.8952 43.466 65.7392 40.938 70.0579 37.778C69.1625 37.778 67.9512 37.5673 66.4239 37.146C64.8966 36.672 63.9222 36.119 63.5009 35.487C62.1315 36.6983 59.7615 38.726 56.3909 41.57C55.6009 42.1493 54.5739 42.439 53.3099 42.439C52.0459 42.439 51.4139 42.2547 51.4139 41.886C51.4139 41.4647 51.8352 40.9117 52.6779 40.227ZM87.046 51.524C88.7313 51.524 90.8116 50.418 93.287 48.206C95.7623 45.994 97.0526 44.4667 97.158 43.624C96.526 43.0973 95.8413 42.1493 95.104 40.78C94.4193 39.358 94.0506 38.647 93.998 38.647C92.3653 40.1743 90.917 41.9387 89.653 43.94C87.6516 47.3107 86.651 49.628 86.651 50.892C86.651 51.3133 86.7826 51.524 87.046 51.524ZM104.11 32.169C103.583 32.169 102.477 32.9853 100.792 34.618C99.1593 36.2507 98.343 37.383 98.343 38.015C98.343 38.173 98.501 38.489 98.817 38.963C99.133 39.437 99.37 39.674 99.528 39.674C100.423 39.674 101.424 38.5943 102.53 36.435C103.689 34.2757 104.268 33.038 104.268 32.722C104.268 32.3533 104.215 32.169 104.11 32.169ZM104.268 42.36C105.743 42.36 108.034 41.4647 111.141 39.674C114.301 37.8833 117.066 36.0927 119.436 34.302L122.991 31.537C123.465 31.9057 123.702 32.3533 123.702 32.88C123.702 33.4067 123.465 33.8807 122.991 34.302C114.301 42.36 107.718 46.389 103.241 46.389C102.925 46.389 102.451 46.3363 101.819 46.231C95.8676 53.1303 90.759 56.58 86.493 56.58C83.649 56.1587 81.8583 55.158 81.121 53.578C80.6996 52.788 80.489 51.7873 80.489 50.576C80.489 47.1 82.4903 42.9657 86.493 38.173C90.4956 33.3277 95.5253 29.7727 101.582 27.508C102.109 27.508 102.504 27.6397 102.767 27.903C103.03 28.1137 103.267 28.2453 103.478 28.298C103.689 28.298 103.952 28.1927 104.268 27.982C104.637 27.7187 105.111 27.587 105.69 27.587C106.269 27.5343 106.875 27.8503 107.507 28.535C108.35 29.2197 108.771 30.0623 108.771 31.063C108.771 34.0123 107.27 37.778 104.268 42.36ZM116.997 52.63C118.735 52.63 121.368 51.6293 124.897 49.628C128.478 47.574 131.665 45.362 134.456 42.992C137.3 40.622 138.722 38.963 138.722 38.015C138.722 37.857 138.643 37.778 138.485 37.778C137.326 37.778 134.877 38.963 131.138 41.333C127.451 43.6503 124.028 46.0203 120.868 48.443C117.708 50.813 116.128 52.1033 116.128 52.314C116.128 52.5247 116.418 52.63 116.997 52.63ZM137.063 19.292C137.642 19.292 138.274 19.7397 138.959 20.635C139.644 21.4777 139.986 22.1097 139.986 22.531C139.986 22.9523 139.907 23.242 139.749 23.4C136.115 26.56 132.586 29.878 129.163 33.354C125.74 36.83 123.212 39.516 121.579 41.412L119.209 44.256C118.788 44.6773 118.577 44.967 118.577 45.125C118.577 45.283 118.63 45.362 118.735 45.362C118.84 45.362 118.972 45.283 119.13 45.125L119.841 44.572C128.478 36.8827 135.193 33.038 139.986 33.038C140.618 33.038 141.197 33.2223 141.724 33.591C143.515 35.0657 144.41 36.751 144.41 38.647C144.41 40.4903 143.067 42.8603 140.381 45.757C137.748 48.6537 134.482 51.208 130.585 53.42C126.688 55.5793 123.422 56.659 120.789 56.659C118.208 56.659 116.497 55.9743 115.654 54.605L114.785 53.341C114.732 53.2883 114.653 53.262 114.548 53.262C113.389 53.262 109.571 56.9487 103.093 64.322C96.5622 71.6953 92.3752 77.041 90.5318 80.359C90.3212 81.307 89.8998 81.781 89.2678 81.781C88.9518 81.781 88.6622 81.6757 88.3988 81.465L84.8438 78.7C84.6332 78.5947 84.5278 78.3577 84.5278 77.989C84.5278 77.357 88.5305 72.1693 96.5358 62.426C104.489 52.7353 112.836 43.1237 121.579 33.591C130.322 24.0583 135.483 19.292 137.063 19.292ZM165.511 31.142C164.142 31.142 161.825 32.564 158.559 35.408C155.294 38.1993 153.661 39.911 153.661 40.543C153.661 40.6483 153.74 40.701 153.898 40.701C155.057 40.701 157.348 39.4107 160.771 36.83C164.247 34.2493 165.985 32.485 165.985 31.537C165.985 31.2737 165.827 31.142 165.511 31.142ZM148.684 56.422C144.629 56.422 142.601 53.9467 142.601 48.996C142.601 45.8887 143.944 42.597 146.63 39.121C149.369 35.5923 152.582 32.722 156.268 30.51C159.955 28.2453 163.22 27.113 166.064 27.113C167.328 27.113 168.487 27.6133 169.54 28.614C170.646 29.6147 171.199 30.589 171.199 31.537C171.199 33.275 169.962 35.25 167.486 37.462C165.011 39.6213 162.404 41.3857 159.665 42.755C156.979 44.0717 155.189 44.73 154.293 44.73C153.451 44.73 152.819 44.335 152.397 43.545C152.187 43.387 151.897 43.308 151.528 43.308C151.16 43.308 150.554 44.019 149.711 45.441C148.869 46.8103 148.447 47.9427 148.447 48.838C148.447 49.6807 148.763 50.2073 149.395 50.418C153.398 50.418 157.743 49.2593 162.43 46.942C167.118 44.572 173.596 40.4377 181.864 34.539C182.444 34.1177 183.313 33.4857 184.471 32.643C185.683 31.8003 186.394 31.3 186.604 31.142C187.078 31.5107 187.315 31.9583 187.315 32.485C187.315 33.0117 187.078 33.4857 186.604 33.907C183.971 36.5403 180.548 39.4897 176.334 42.755C172.174 46.0203 167.381 49.1277 161.956 52.077C156.532 54.9737 152.108 56.422 148.684 56.422ZM173.415 40.227C176.312 38.2257 179.34 36.0663 182.5 33.749C180.815 32.5903 179.735 31.458 179.261 30.352C179.103 29.9833 179.024 29.72 179.024 29.562C179.024 28.5087 179.367 27.824 180.051 27.508C180.736 27.1393 181.842 26.955 183.369 26.955C183.949 26.955 185.66 27.666 188.504 29.088C191.348 30.51 193.139 31.221 193.876 31.221C194.666 31.221 195.746 31.0103 197.115 30.589C198.485 30.115 199.564 29.878 200.354 29.878C201.197 29.878 201.803 30.0623 202.171 30.431C203.488 32.169 204.146 33.2223 204.146 33.591C204.146 33.9597 203.962 34.2757 203.593 34.539C203.277 34.7497 202.198 35.487 200.354 36.751C198.564 38.015 196.799 39.3053 195.061 40.622C193.323 41.9387 191.691 43.4133 190.163 45.046C188.636 46.6787 187.872 47.9953 187.872 48.996C187.872 49.154 188.004 49.233 188.267 49.233C191.111 49.233 200.697 43.466 217.023 31.932C217.392 31.932 217.576 32.2743 217.576 32.959C217.576 33.591 215.496 35.8557 211.335 39.753C207.175 43.5977 202.461 47.3897 197.194 51.129C191.98 54.8157 188.188 56.659 185.818 56.659C182.132 56.659 180.288 54.8157 180.288 51.129C180.288 49.1277 180.947 47.2053 182.263 45.362C183.633 43.466 186.477 40.938 190.795 37.778C189.9 37.778 188.689 37.5673 187.161 37.146C185.634 36.672 184.66 36.119 184.238 35.487C182.869 36.6983 180.499 38.726 177.128 41.57C176.338 42.1493 175.311 42.439 174.047 42.439C172.783 42.439 172.151 42.2547 172.151 41.886C172.151 41.4647 172.573 40.9117 173.415 40.227ZM239.541 18.502L243.57 18.423C248.784 18.423 252.576 19.1603 254.946 20.635C256.105 21.0037 256.684 21.4777 256.684 22.057C256.684 22.4783 256.158 22.768 255.104 22.926C254.104 23.084 250.549 23.5053 244.439 24.19C238.383 24.822 234.222 25.1907 231.957 25.296C230.957 25.3487 228.639 27.0867 225.005 30.51C221.424 33.9333 218.001 37.699 214.735 41.807C211.47 45.915 209.837 48.7853 209.837 50.418C209.837 50.6813 209.969 50.9183 210.232 51.129C210.496 51.287 210.812 51.366 211.18 51.366C211.602 51.366 212.234 51.208 213.076 50.892C223.083 44.9933 232.8 38.5417 242.227 31.537C242.701 31.9057 242.938 32.3533 242.938 32.88C242.938 33.4067 242.675 33.9333 242.148 34.46C241.622 34.934 240.832 35.645 239.778 36.593C238.778 37.541 236.882 39.2527 234.09 41.728C231.299 44.2033 228.666 46.4153 226.19 48.364C219.554 53.736 214.92 56.8433 212.286 57.686C211.338 57.9493 210.206 58.081 208.889 58.081C207.625 58.081 206.44 57.4227 205.334 56.106C204.281 54.7893 203.754 52.9987 203.754 50.734C203.754 48.4693 205.203 45.204 208.099 40.938C211.049 36.672 215.051 32.3007 220.107 27.824C220.581 27.4553 220.818 27.113 220.818 26.797C220.818 26.481 220.265 26.323 219.159 26.323L214.182 26.481C207.178 26.481 203.57 25.691 203.359 24.111C201.727 23.795 200.91 23.321 200.91 22.689C200.91 22.4783 201.016 22.373 201.226 22.373C201.437 22.3203 201.621 22.294 201.779 22.294C201.937 22.2413 202.201 22.1887 202.569 22.136C202.938 22.0833 205.835 21.662 211.259 20.872C216.737 20.082 222.951 19.4237 229.903 18.897L235.354 11.629C235.67 10.997 236.776 10.681 238.672 10.681C240.568 10.681 241.516 11.076 241.516 11.866C241.516 12.1293 241.306 12.6033 240.884 13.288L238.909 16.053C238.646 16.8957 238.488 17.5277 238.435 17.949C238.435 18.3177 238.804 18.502 239.541 18.502ZM255.774 15.895C256.301 15.895 256.643 16.0003 256.801 16.211C257.538 17.1063 257.907 17.8437 257.907 18.423C257.907 18.9497 257.749 19.4237 257.433 19.845C257.117 20.2137 256.722 20.6613 256.248 21.188C255.827 21.662 254.931 22.3467 253.562 23.242C252.245 24.0847 250.955 24.506 249.691 24.506C248.743 24.348 248.269 23.7687 248.269 22.768C248.269 21.188 249.217 19.6607 251.113 18.186C253.009 16.6587 254.563 15.895 255.774 15.895ZM236.814 47.021C236.393 47.7583 236.182 48.4167 236.182 48.996C236.182 49.5753 236.498 49.865 237.13 49.865C237.499 49.865 238.131 49.707 239.026 49.391C248.875 44.2297 258.513 38.1467 267.94 31.142C268.414 31.5107 268.651 31.9583 268.651 32.485C268.651 33.0117 268.388 33.512 267.861 33.986C267.334 34.46 266.571 35.1447 265.57 36.04C264.622 36.9353 262.779 38.5417 260.04 40.859C257.301 43.1763 254.747 45.283 252.377 47.179C246.162 52.1823 241.58 55.1317 238.631 56.027C237.683 56.2903 236.656 56.422 235.55 56.422C231.495 56.422 229.467 54.2627 229.467 49.944C229.467 48.2587 230.389 45.8623 232.232 42.755C234.075 39.595 235.971 36.83 237.92 34.46C239.869 32.0373 241.159 30.6943 241.791 30.431C242.739 29.8517 243.766 29.562 244.872 29.562C245.978 29.562 247.031 29.7727 248.032 30.194C248.348 30.352 248.506 30.5627 248.506 30.826C248.506 31.0893 248.243 31.4843 247.716 32.011C247.242 32.5377 246.478 33.354 245.425 34.46C244.424 35.566 242.897 37.4883 240.843 40.227C238.842 42.913 237.499 45.1777 236.814 47.021ZM276.219 31.142C274.85 31.142 272.533 32.564 269.267 35.408C266.002 38.1993 264.369 39.911 264.369 40.543C264.369 40.6483 264.448 40.701 264.606 40.701C265.765 40.701 268.056 39.4107 271.479 36.83C274.955 34.2493 276.693 32.485 276.693 31.537C276.693 31.2737 276.535 31.142 276.219 31.142ZM259.392 56.422C255.337 56.422 253.309 53.9467 253.309 48.996C253.309 45.8887 254.652 42.597 257.338 39.121C260.077 35.5923 263.29 32.722 266.976 30.51C270.663 28.2453 273.928 27.113 276.772 27.113C278.036 27.113 279.195 27.6133 280.248 28.614C281.354 29.6147 281.907 30.589 281.907 31.537C281.907 33.275 280.67 35.25 278.194 37.462C275.719 39.6213 273.112 41.3857 270.373 42.755C267.687 44.0717 265.897 44.73 265.001 44.73C264.159 44.73 263.527 44.335 263.105 43.545C262.895 43.387 262.605 43.308 262.236 43.308C261.868 43.308 261.262 44.019 260.419 45.441C259.577 46.8103 259.155 47.9427 259.155 48.838C259.155 49.6807 259.471 50.2073 260.103 50.418C264.106 50.418 268.451 49.2593 273.138 46.942C277.826 44.572 284.304 40.4377 292.572 34.539C293.152 34.1177 294.021 33.4857 295.179 32.643C296.391 31.8003 297.102 31.3 297.312 31.142C297.786 31.5107 298.023 31.9583 298.023 32.485C298.023 33.0117 297.786 33.4857 297.312 33.907C294.679 36.5403 291.256 39.4897 287.042 42.755C282.882 46.0203 278.089 49.1277 272.664 52.077C267.24 54.9737 262.816 56.422 259.392 56.422ZM291.525 49.233C293.368 49.233 295.054 48.127 296.581 45.915C298.161 43.6503 299.267 41.3857 299.899 39.121C300.531 36.8037 300.847 34.9603 300.847 33.591C300.847 33.2223 300.557 33.038 299.978 33.038C299.451 33.038 298.819 33.3277 298.082 33.907L287.733 41.886C286.996 42.3073 286.153 42.518 285.205 42.518C284.257 42.518 283.783 42.1757 283.783 41.491C283.783 41.017 283.836 40.701 283.941 40.543C284.099 40.385 284.494 40.1217 285.126 39.753C289.023 37.067 294.343 32.6957 301.084 26.639C301.874 25.5857 302.585 25.059 303.217 25.059C303.849 25.059 304.902 25.2697 306.377 25.691C307.852 26.0597 308.589 26.5073 308.589 27.034C308.589 30.194 308.299 33.0643 307.72 35.645C307.141 38.2257 306.535 40.2007 305.903 41.57C305.324 42.8867 305.034 43.5977 305.034 43.703C305.034 43.8083 305.087 43.861 305.192 43.861C305.297 43.861 305.508 43.782 305.824 43.624C309.774 41.6227 314.804 38.3573 320.913 33.828L322.809 32.406C323.283 32.7747 323.52 33.2223 323.52 33.749C323.52 34.2757 323.283 34.7497 322.809 35.171C322.704 35.171 321.334 36.277 318.701 38.489C316.12 40.701 313.224 43.1237 310.011 45.757C306.851 48.3377 303.454 50.7077 299.82 52.867C296.186 55.0263 293.368 56.106 291.367 56.106C286.416 56.106 283.941 53.1303 283.941 47.179C283.941 46.705 284.125 46.2837 284.494 45.915C284.915 45.4937 285.442 45.283 286.074 45.283C286.074 45.5463 286.206 45.9677 286.469 46.547C286.785 47.0737 287.101 47.5213 287.417 47.89C288.365 48.7853 289.734 49.233 291.525 49.233Z" fill="#E4E7E6"/>
</svg>
