<svg width="300" height="40" viewBox="0 0 300 40" fill="none" xmlns="http://www.w3.org/2000/svg">
<rect x="208" width="40" height="40" rx="5" fill="#2D4864"/>
<path d="M228 12C223.6 12 220 15.6 220 20C220 23.3 222 26.1 224.8 27.3C224.8 26.7 224.8 26.1 224.9 25.5C225.1 24.8 225.9 21.1 225.9 21.1C225.9 21.1 225.6 20.6 225.6 19.8C225.6 18.6 226.3 17.7 227.1 17.7C227.8 17.7 228.2 18.2 228.2 18.9C228.2 19.6 227.7 20.7 227.5 21.7C227.3 22.5 227.9 23.2 228.8 23.2C230.3 23.2 231.3 21.3 231.3 18.9C231.3 17.1 230.1 15.8 228 15.8C225.6 15.8 224.1 17.6 224.1 19.6C224.1 20.3 224.3 20.8 224.6 21.2C224.7 21.4 224.8 21.4 224.7 21.6C224.7 21.7 224.6 22.1 224.5 22.2C224.4 22.4 224.3 22.5 224.1 22.4C223 21.9 222.5 20.7 222.5 19.3C222.5 17 224.4 14.3 228.2 14.3C231.3 14.3 233.3 16.5 233.3 18.9C233.3 22 231.6 24.4 229 24.4C228.1 24.4 227.3 23.9 227 23.4C227 23.4 226.5 25.2 226.4 25.6C226.2 26.2 225.9 26.8 225.6 27.3C226.3 27.5 227.1 27.6 227.9 27.6C232.3 27.6 235.9 24 235.9 19.6C236 15.6 232.4 12 228 12Z" fill="white"/>
<rect x="156" width="40" height="40" rx="5" fill="#2D4864"/>
<path d="M176.3 13.5C178.5 13.5 178.8 13.5 179.7 13.5C180.5 13.5 180.9 13.7 181.2 13.8C181.6 14 181.9 14.1 182.2 14.4C182.5 14.7 182.7 15 182.8 15.4C182.9 15.7 183 16.1 183.1 16.9C183.1 17.8 183.1 18 183.1 20.3C183.1 22.6 183.1 22.8 183.1 23.7C183.1 24.5 182.9 24.9 182.8 25.2C182.6 25.6 182.5 25.9 182.2 26.2C181.9 26.5 181.6 26.7 181.2 26.8C180.9 26.9 180.5 27 179.7 27.1C178.8 27.1 178.6 27.1 176.3 27.1C174 27.1 173.8 27.1 172.9 27.1C172.1 27.1 171.7 26.9 171.4 26.8C171 26.6 170.7 26.5 170.4 26.2C170.1 25.9 169.9 25.6 169.8 25.2C169.7 24.9 169.6 24.5 169.5 23.7C169.5 22.8 169.5 22.6 169.5 20.3C169.5 18 169.5 17.8 169.5 16.9C169.5 16.1 169.7 15.7 169.8 15.4C170 15 170.1 14.7 170.4 14.4C170.7 14.1 171 13.9 171.4 13.8C171.7 13.7 172.1 13.6 172.9 13.5C173.8 13.5 174.1 13.5 176.3 13.5ZM176.3 12C174 12 173.8 12 172.9 12C172 12 171.4 12.2 170.9 12.4C170.4 12.6 169.9 12.9 169.4 13.4C168.9 13.9 168.7 14.3 168.4 14.9C168.2 15.4 168.1 16 168 16.9C168 17.8 168 18.1 168 20.3C168 22.6 168 22.8 168 23.7C168 24.6 168.2 25.2 168.4 25.7C168.6 26.2 168.9 26.7 169.4 27.2C169.9 27.7 170.3 27.9 170.9 28.2C171.4 28.4 172 28.5 172.9 28.6C173.8 28.6 174.1 28.6 176.3 28.6C178.5 28.6 178.8 28.6 179.7 28.6C180.6 28.6 181.2 28.4 181.7 28.2C182.2 28 182.7 27.7 183.2 27.2C183.7 26.7 183.9 26.3 184.2 25.7C184.4 25.2 184.5 24.6 184.6 23.7C184.6 22.8 184.6 22.5 184.6 20.3C184.6 18.1 184.6 17.8 184.6 16.9C184.6 16 184.4 15.4 184.2 14.9C184 14.4 183.7 13.9 183.2 13.4C182.7 12.9 182.3 12.7 181.7 12.4C181.2 12.2 180.6 12.1 179.7 12C178.8 12 178.6 12 176.3 12Z" fill="white"/>
<path d="M176.3 16C173.9 16 172 17.9 172 20.3C172 22.7 173.9 24.6 176.3 24.6C178.7 24.6 180.6 22.7 180.6 20.3C180.6 17.9 178.7 16 176.3 16ZM176.3 23.1C174.8 23.1 173.5 21.9 173.5 20.3C173.5 18.8 174.7 17.5 176.3 17.5C177.8 17.5 179.1 18.7 179.1 20.3C179.1 21.8 177.8 23.1 176.3 23.1Z" fill="white"/>
<path d="M180.7 16.9C181.252 16.9 181.7 16.4523 181.7 15.9C181.7 15.3477 181.252 14.9 180.7 14.9C180.148 14.9 179.7 15.3477 179.7 15.9C179.7 16.4523 180.148 16.9 180.7 16.9Z" fill="white"/>
<rect x="52" width="40" height="40" rx="5" fill="#2D4864"/>
<path d="M80 20C80 15.6 76.4 12 72 12C67.6 12 64 15.6 64 20C64 24 66.9 27.3 70.7 27.9V22.3H68.7V20H70.7V18.2C70.7 16.2 71.9 15.1 73.7 15.1C74.6 15.1 75.5 15.3 75.5 15.3V17.3H74.5C73.5 17.3 73.2 17.9 73.2 18.5V20H75.4L75 22.3H73.1V28C77.1 27.4 80 24 80 20Z" fill="white"/>
<rect x="104" width="40" height="40" rx="5" fill="#00C194"/>
<path d="M119.6 28H116.2V17.3H119.6V28ZM117.9 15.8C116.8 15.8 116 15 116 13.9C116 12.8 116.9 12 117.9 12C119 12 119.8 12.8 119.8 13.9C119.8 15 119 15.8 117.9 15.8ZM132 28H128.6V22.2C128.6 20.5 127.9 20 126.9 20C125.9 20 124.9 20.8 124.9 22.3V28H121.5V17.3H124.7V18.8C125 18.1 126.2 17 127.9 17C129.8 17 131.8 18.1 131.8 21.4V28H132Z" fill="white"/>
<rect width="40" height="40" rx="5" fill="#2D4864"/>
<path d="M28 15.5C27.4 15.8 26.8 15.9 26.1 16C26.8 15.6 27.3 15 27.5 14.2C26.9 14.6 26.2 14.8 25.4 15C24.8 14.4 23.9 14 23 14C20.9 14 19.3 16 19.8 18C17.1 17.9 14.7 16.6 13 14.6C12.1 16.1 12.6 18 14 19C13.5 19 13 18.8 12.5 18.6C12.5 20.1 13.6 21.5 15.1 21.9C14.6 22 14.1 22.1 13.6 22C14 23.3 15.2 24.3 16.7 24.3C15.5 25.2 13.7 25.7 12 25.5C13.5 26.4 15.2 27 17 27C23.1 27 26.5 21.9 26.3 17.2C27 16.8 27.6 16.2 28 15.5Z" fill="white"/>
<rect x="260" width="40" height="40" rx="5" fill="#2D4864"/>
<path d="M280.1 24.8C277.4 24.8 276.2 23.4 276.2 22.4C276.2 22.2 276.3 21.9 276.5 21.8C276.7 21.6 276.9 21.6 277.1 21.6C278.2 21.6 277.9 23.3 280.1 23.3C281.2 23.3 281.8 22.6 281.8 22C281.8 21.6 281.6 21.2 280.9 21L278.5 20.4C276.6 19.9 276.3 18.8 276.3 17.9C276.3 15.8 278.2 15.1 280 15.1C281.6 15.1 283.6 16 283.6 17.2C283.6 17.7 283.2 18 282.6 18C281.6 18 281.8 16.6 279.8 16.6C278.8 16.6 278.3 17.1 278.3 17.7C278.3 18.3 279.1 18.6 279.7 18.7L281.5 19.1C283.4 19.5 283.9 20.7 283.9 21.7C283.9 23.6 282.6 24.8 280.1 24.8ZM287.5 21.3C287.6 20.9 287.6 20.4 287.6 20C287.6 17.8 286.6 15.7 284.9 14.2C283.2 12.7 280.9 12.2 278.7 12.5C278.1 12.2 277.3 12 276.5 12C274.9 12 273.4 12.9 272.6 14.3C271.8 15.7 271.8 17.4 272.6 18.8C272.2 21.2 272.9 23.7 274.7 25.5C276.4 27.2 278.9 28 281.3 27.6C282 28 282.7 28.2 283.5 28.2C285.1 28.2 286.6 27.3 287.4 25.9C288.2 24.4 288.3 22.7 287.5 21.3Z" fill="white"/>
</svg>
