<svg width="97" height="13" viewBox="0 0 97 13" fill="none" xmlns="http://www.w3.org/2000/svg">
<path d="M4.016 10.496C4.74133 10.496 5.26933 10.3733 5.6 10.128C5.93067 9.88267 6.096 9.536 6.096 9.088C6.096 8.82133 6.03733 8.592 5.92 8.4C5.81333 8.208 5.65333 8.03733 5.44 7.888C5.23733 7.728 4.98667 7.584 4.688 7.456C4.38933 7.31733 4.048 7.184 3.664 7.056C3.28 6.91733 2.90667 6.768 2.544 6.608C2.192 6.43733 1.87733 6.22933 1.6 5.984C1.33333 5.73867 1.11467 5.44533 0.944 5.104C0.784 4.76267 0.704 4.352 0.704 3.872C0.704 2.86933 1.05067 2.08533 1.744 1.52C2.43733 0.943999 3.38133 0.655999 4.576 0.655999C5.26933 0.655999 5.88267 0.735999 6.416 0.896C6.96 1.04533 7.38667 1.21067 7.696 1.392L7.072 3.024C6.70933 2.82133 6.30933 2.66667 5.872 2.56C5.44533 2.45333 5.00267 2.4 4.544 2.4C4 2.4 3.57333 2.512 3.264 2.736C2.96533 2.96 2.816 3.27467 2.816 3.68C2.816 3.92533 2.864 4.13867 2.96 4.32C3.06667 4.49067 3.21067 4.64533 3.392 4.784C3.584 4.92267 3.80267 5.05067 4.048 5.168C4.304 5.28533 4.58133 5.39733 4.88 5.504C5.40267 5.696 5.86667 5.89333 6.272 6.096C6.688 6.288 7.03467 6.52267 7.312 6.8C7.6 7.06667 7.81867 7.38667 7.968 7.76C8.11733 8.12267 8.192 8.56533 8.192 9.088C8.192 10.0907 7.83467 10.8693 7.12 11.424C6.416 11.968 5.38133 12.24 4.016 12.24C3.55733 12.24 3.136 12.208 2.752 12.144C2.37867 12.0907 2.04267 12.0213 1.744 11.936C1.456 11.8507 1.20533 11.7653 0.992 11.68C0.778667 11.584 0.608 11.4987 0.48 11.424L1.072 9.776C1.36 9.936 1.74933 10.096 2.24 10.256C2.73067 10.416 3.32267 10.496 4.016 10.496ZM14.8646 6.736C14.6193 7.67467 14.3526 8.592 14.0646 9.488C13.7873 10.3733 13.51 11.2107 13.2326 12H11.6486C11.4353 11.5093 11.2113 10.9493 10.9766 10.32C10.742 9.69067 10.5073 9.01867 10.2726 8.304C10.038 7.58933 9.80329 6.83733 9.56863 6.048C9.33396 5.25867 9.10463 4.45333 8.88063 3.632H10.9286C11.0246 4.08 11.1366 4.56533 11.2646 5.088C11.3926 5.6 11.526 6.128 11.6646 6.672C11.8033 7.20533 11.9473 7.728 12.0966 8.24C12.246 8.752 12.3953 9.22133 12.5446 9.648C12.7046 9.15733 12.8593 8.65067 13.0086 8.128C13.1686 7.60533 13.318 7.08267 13.4566 6.56C13.5953 6.03733 13.7233 5.53067 13.8406 5.04C13.9686 4.53867 14.0806 4.06933 14.1766 3.632H15.6646C15.7606 4.06933 15.8673 4.53867 15.9846 5.04C16.102 5.53067 16.2246 6.03733 16.3526 6.56C16.4913 7.08267 16.6353 7.60533 16.7846 8.128C16.9446 8.65067 17.1046 9.15733 17.2646 9.648C17.4033 9.22133 17.5473 8.752 17.6966 8.24C17.846 7.728 17.99 7.20533 18.1286 6.672C18.278 6.128 18.4166 5.6 18.5446 5.088C18.6726 4.56533 18.7846 4.08 18.8806 3.632H20.8806C20.6566 4.45333 20.4273 5.25867 20.1926 6.048C19.958 6.83733 19.7233 7.58933 19.4886 8.304C19.254 9.01867 19.0193 9.69067 18.7846 10.32C18.55 10.9493 18.3206 11.5093 18.0966 12H16.5286C16.2513 11.2107 15.9633 10.3733 15.6646 9.488C15.3766 8.592 15.11 7.67467 14.8646 6.736ZM21.893 7.856C21.893 7.12 21.9997 6.47467 22.213 5.92C22.437 5.36533 22.7303 4.90667 23.093 4.544C23.4557 4.17067 23.8717 3.89333 24.341 3.712C24.8103 3.52 25.2903 3.424 25.781 3.424C26.933 3.424 27.829 3.78133 28.469 4.496C29.1197 5.21067 29.445 6.27733 29.445 7.696C29.445 7.80267 29.4397 7.92533 29.429 8.064C29.429 8.192 29.4237 8.30933 29.413 8.416H23.893C23.9463 9.088 24.181 9.61067 24.597 9.984C25.0237 10.3467 25.637 10.528 26.437 10.528C26.9063 10.528 27.333 10.4853 27.717 10.4C28.1117 10.3147 28.421 10.224 28.645 10.128L28.901 11.712C28.7943 11.7653 28.645 11.824 28.453 11.888C28.2717 11.9413 28.0583 11.9893 27.813 12.032C27.5783 12.0853 27.3223 12.128 27.045 12.16C26.7677 12.192 26.485 12.208 26.197 12.208C25.461 12.208 24.821 12.1013 24.277 11.888C23.733 11.664 23.285 11.36 22.933 10.976C22.581 10.5813 22.3197 10.1227 22.149 9.6C21.9783 9.06667 21.893 8.48533 21.893 7.856ZM27.509 6.992C27.509 6.72533 27.4717 6.47467 27.397 6.24C27.3223 5.99467 27.2103 5.78667 27.061 5.616C26.9223 5.43467 26.7463 5.296 26.533 5.2C26.3303 5.09333 26.085 5.04 25.797 5.04C25.4983 5.04 25.237 5.09867 25.013 5.216C24.789 5.32267 24.597 5.46667 24.437 5.648C24.2877 5.82933 24.1703 6.03733 24.085 6.272C23.9997 6.50667 23.941 6.74667 23.909 6.992H27.509ZM31.0336 7.856C31.0336 7.12 31.1403 6.47467 31.3536 5.92C31.5776 5.36533 31.871 4.90667 32.2336 4.544C32.5963 4.17067 33.0123 3.89333 33.4816 3.712C33.951 3.52 34.431 3.424 34.9216 3.424C36.0736 3.424 36.9696 3.78133 37.6096 4.496C38.2603 5.21067 38.5856 6.27733 38.5856 7.696C38.5856 7.80267 38.5803 7.92533 38.5696 8.064C38.5696 8.192 38.5643 8.30933 38.5536 8.416H33.0336C33.087 9.088 33.3216 9.61067 33.7376 9.984C34.1643 10.3467 34.7776 10.528 35.5776 10.528C36.047 10.528 36.4736 10.4853 36.8576 10.4C37.2523 10.3147 37.5616 10.224 37.7856 10.128L38.0416 11.712C37.935 11.7653 37.7856 11.824 37.5936 11.888C37.4123 11.9413 37.199 11.9893 36.9536 12.032C36.719 12.0853 36.463 12.128 36.1856 12.16C35.9083 12.192 35.6256 12.208 35.3376 12.208C34.6016 12.208 33.9616 12.1013 33.4176 11.888C32.8736 11.664 32.4256 11.36 32.0736 10.976C31.7216 10.5813 31.4603 10.1227 31.2896 9.6C31.119 9.06667 31.0336 8.48533 31.0336 7.856ZM36.6496 6.992C36.6496 6.72533 36.6123 6.47467 36.5376 6.24C36.463 5.99467 36.351 5.78667 36.2016 5.616C36.063 5.43467 35.887 5.296 35.6736 5.2C35.471 5.09333 35.2256 5.04 34.9376 5.04C34.639 5.04 34.3776 5.09867 34.1536 5.216C33.9296 5.32267 33.7376 5.46667 33.5776 5.648C33.4283 5.82933 33.311 6.03733 33.2256 6.272C33.1403 6.50667 33.0816 6.74667 33.0496 6.992H36.6496ZM40.5423 1.424L42.4783 1.104V3.632H45.4543V5.248H42.4783V8.656C42.4783 9.328 42.5849 9.808 42.7983 10.096C43.0116 10.384 43.3743 10.528 43.8863 10.528C44.2383 10.528 44.5476 10.4907 44.8143 10.416C45.0916 10.3413 45.3103 10.272 45.4703 10.208L45.7903 11.744C45.5663 11.84 45.2729 11.936 44.9103 12.032C44.5476 12.1387 44.1209 12.192 43.6302 12.192C43.0329 12.192 42.5316 12.112 42.1263 11.952C41.7316 11.792 41.4169 11.5627 41.1823 11.264C40.9476 10.9547 40.7823 10.5867 40.6863 10.16C40.5903 9.72267 40.5423 9.22667 40.5423 8.672V1.424ZM61.7225 0.912H63.7385V12H61.7225V7.088H56.9065V12H54.8905V0.912H56.9065V5.344H61.7225V0.912ZM73.8625 7.808C73.8625 8.46933 73.7665 9.072 73.5745 9.616C73.3825 10.16 73.1105 10.624 72.7585 11.008C72.4065 11.392 71.9798 11.6907 71.4785 11.904C70.9878 12.1173 70.4438 12.224 69.8465 12.224C69.2492 12.224 68.7052 12.1173 68.2145 11.904C67.7238 11.6907 67.3025 11.392 66.9505 11.008C66.5985 10.624 66.3212 10.16 66.1185 9.616C65.9265 9.072 65.8305 8.46933 65.8305 7.808C65.8305 7.14667 65.9265 6.54933 66.1185 6.016C66.3212 5.472 66.5985 5.008 66.9505 4.624C67.3132 4.24 67.7398 3.94667 68.2305 3.744C68.7212 3.53067 69.2598 3.424 69.8465 3.424C70.4332 3.424 70.9718 3.53067 71.4625 3.744C71.9638 3.94667 72.3905 4.24 72.7425 4.624C73.0945 5.008 73.3665 5.472 73.5585 6.016C73.7612 6.54933 73.8625 7.14667 73.8625 7.808ZM71.8785 7.808C71.8785 6.976 71.6972 6.32 71.3345 5.84C70.9825 5.34933 70.4865 5.104 69.8465 5.104C69.2065 5.104 68.7052 5.34933 68.3425 5.84C67.9905 6.32 67.8145 6.976 67.8145 7.808C67.8145 8.65067 67.9905 9.31733 68.3425 9.808C68.7052 10.2987 69.2065 10.544 69.8465 10.544C70.4865 10.544 70.9825 10.2987 71.3345 9.808C71.6972 9.31733 71.8785 8.65067 71.8785 7.808ZM80.625 7.6C80.625 6.72533 80.513 6.096 80.289 5.712C80.0757 5.31733 79.6703 5.12 79.073 5.12C78.8597 5.12 78.625 5.136 78.369 5.168C78.113 5.2 77.921 5.22667 77.793 5.248V12H75.857V3.904C76.2303 3.79733 76.7157 3.696 77.313 3.6C77.921 3.504 78.561 3.456 79.233 3.456C79.809 3.456 80.2783 3.53067 80.641 3.68C81.0143 3.82933 81.3237 4.02667 81.569 4.272C81.6863 4.18667 81.8357 4.096 82.017 4C82.1983 3.904 82.401 3.81867 82.625 3.744C82.849 3.65867 83.0837 3.58933 83.329 3.536C83.585 3.48267 83.841 3.456 84.097 3.456C84.7477 3.456 85.281 3.552 85.697 3.744C86.1237 3.92533 86.4543 4.18667 86.689 4.528C86.9343 4.85867 87.0997 5.264 87.185 5.744C87.281 6.21333 87.329 6.73067 87.329 7.296V12H85.393V7.6C85.393 6.72533 85.2863 6.096 85.073 5.712C84.8597 5.31733 84.449 5.12 83.841 5.12C83.5317 5.12 83.2383 5.17333 82.961 5.28C82.6837 5.376 82.4757 5.472 82.337 5.568C82.4223 5.83467 82.481 6.11733 82.513 6.416C82.545 6.71467 82.561 7.03467 82.561 7.376V12H80.625V7.6ZM89.2368 7.856C89.2368 7.12 89.3434 6.47467 89.5568 5.92C89.7808 5.36533 90.0741 4.90667 90.4368 4.544C90.7994 4.17067 91.2154 3.89333 91.6848 3.712C92.1541 3.52 92.6341 3.424 93.1248 3.424C94.2768 3.424 95.1728 3.78133 95.8128 4.496C96.4634 5.21067 96.7888 6.27733 96.7888 7.696C96.7888 7.80267 96.7834 7.92533 96.7728 8.064C96.7728 8.192 96.7674 8.30933 96.7568 8.416H91.2368C91.2901 9.088 91.5248 9.61067 91.9408 9.984C92.3674 10.3467 92.9808 10.528 93.7808 10.528C94.2501 10.528 94.6768 10.4853 95.0608 10.4C95.4554 10.3147 95.7648 10.224 95.9888 10.128L96.2448 11.712C96.1381 11.7653 95.9888 11.824 95.7968 11.888C95.6154 11.9413 95.4021 11.9893 95.1568 12.032C94.9221 12.0853 94.6661 12.128 94.3888 12.16C94.1114 12.192 93.8288 12.208 93.5408 12.208C92.8048 12.208 92.1648 12.1013 91.6208 11.888C91.0768 11.664 90.6288 11.36 90.2768 10.976C89.9248 10.5813 89.6634 10.1227 89.4928 9.6C89.3221 9.06667 89.2368 8.48533 89.2368 7.856ZM94.8528 6.992C94.8528 6.72533 94.8154 6.47467 94.7408 6.24C94.6661 5.99467 94.5541 5.78667 94.4048 5.616C94.2661 5.43467 94.0901 5.296 93.8768 5.2C93.6741 5.09333 93.4288 5.04 93.1408 5.04C92.8421 5.04 92.5808 5.09867 92.3568 5.216C92.1328 5.32267 91.9408 5.46667 91.7808 5.648C91.6314 5.82933 91.5141 6.03733 91.4288 6.272C91.3434 6.50667 91.2848 6.74667 91.2528 6.992H94.8528Z" fill="#00C194"/>
</svg>
