<svg width="171" height="18" viewBox="0 0 171 18" fill="none" xmlns="http://www.w3.org/2000/svg">
<path d="M33.256 15.24C32.424 15.24 31.6773 15.112 31.016 14.856C30.3547 14.6 29.7947 14.2267 29.336 13.736C28.8773 13.2347 28.5253 12.6267 28.28 11.912C28.0347 11.1973 27.912 10.376 27.912 9.448C27.912 8.52 28.0507 7.69867 28.328 6.984C28.616 6.26933 29.0053 5.66667 29.496 5.176C29.9867 4.67467 30.5627 4.296 31.224 4.04C31.8853 3.784 32.5947 3.656 33.352 3.656C33.8107 3.656 34.2267 3.69333 34.6 3.768C34.9733 3.832 35.2987 3.90667 35.576 3.992C35.8533 4.07733 36.0827 4.168 36.264 4.264C36.4453 4.36 36.5733 4.42933 36.648 4.472L36.056 6.12C35.8 5.96 35.432 5.81067 34.952 5.672C34.4827 5.52267 33.9707 5.448 33.416 5.448C32.936 5.448 32.488 5.53333 32.072 5.704C31.656 5.864 31.2933 6.10933 30.984 6.44C30.6853 6.77067 30.4507 7.18667 30.28 7.688C30.1093 8.18933 30.024 8.77067 30.024 9.432C30.024 10.0187 30.088 10.5573 30.216 11.048C30.3547 11.5387 30.5627 11.9653 30.84 12.328C31.1173 12.68 31.4693 12.9573 31.896 13.16C32.3227 13.352 32.8347 13.448 33.432 13.448C34.1467 13.448 34.728 13.3787 35.176 13.24C35.624 13.0907 35.9707 12.952 36.216 12.824L36.76 14.472C36.632 14.5573 36.456 14.6427 36.232 14.728C36.0187 14.8133 35.7627 14.8987 35.464 14.984C35.1653 15.0587 34.8293 15.1173 34.456 15.16C34.0827 15.2133 33.6827 15.24 33.256 15.24ZM41.3791 13.64C41.9765 13.64 42.4298 13.608 42.7391 13.544V11.4C42.6325 11.368 42.4778 11.336 42.2751 11.304C42.0725 11.272 41.8485 11.256 41.6031 11.256C41.3898 11.256 41.1711 11.272 40.9471 11.304C40.7338 11.336 40.5365 11.3947 40.3551 11.48C40.1845 11.5653 40.0458 11.688 39.9391 11.848C39.8325 11.9973 39.7791 12.1893 39.7791 12.424C39.7791 12.8827 39.9231 13.2027 40.2111 13.384C40.4991 13.5547 40.8885 13.64 41.3791 13.64ZM41.2191 6.424C41.8591 6.424 42.3978 6.504 42.8351 6.664C43.2725 6.824 43.6191 7.048 43.8751 7.336C44.1418 7.624 44.3285 7.976 44.4351 8.392C44.5525 8.79733 44.6111 9.24533 44.6111 9.736V14.808C44.3125 14.872 43.8591 14.9467 43.2511 15.032C42.6538 15.128 41.9765 15.176 41.2191 15.176C40.7178 15.176 40.2591 15.128 39.8431 15.032C39.4271 14.936 39.0698 14.7813 38.7711 14.568C38.4831 14.3547 38.2538 14.0773 38.0831 13.736C37.9231 13.3947 37.8431 12.9733 37.8431 12.472C37.8431 11.992 37.9338 11.5867 38.1151 11.256C38.3071 10.9253 38.5631 10.6587 38.8831 10.456C39.2031 10.2427 39.5711 10.0933 39.9871 10.008C40.4138 9.912 40.8565 9.864 41.3151 9.864C41.5285 9.864 41.7525 9.88 41.9871 9.912C42.2218 9.93333 42.4725 9.976 42.7391 10.04V9.72C42.7391 9.496 42.7125 9.28267 42.6591 9.08C42.6058 8.87733 42.5098 8.70133 42.3711 8.552C42.2431 8.392 42.0671 8.26933 41.8431 8.184C41.6298 8.09867 41.3578 8.056 41.0271 8.056C40.5791 8.056 40.1685 8.088 39.7951 8.152C39.4218 8.216 39.1178 8.29067 38.8831 8.376L38.6431 6.808C38.8885 6.72267 39.2458 6.63733 39.7151 6.552C40.1845 6.46667 40.6858 6.424 41.2191 6.424ZM49.894 15.16C49.318 15.1493 48.838 15.0853 48.454 14.968C48.0807 14.8507 47.782 14.6853 47.558 14.472C47.334 14.248 47.174 13.976 47.078 13.656C46.9927 13.3253 46.95 12.952 46.95 12.536V2.904L48.886 2.584V12.168C48.886 12.4027 48.902 12.6 48.934 12.76C48.9767 12.92 49.046 13.0587 49.142 13.176C49.238 13.2827 49.366 13.368 49.526 13.432C49.6967 13.4853 49.91 13.528 50.166 13.56L49.894 15.16ZM54.644 15.16C54.068 15.1493 53.588 15.0853 53.204 14.968C52.8307 14.8507 52.532 14.6853 52.308 14.472C52.084 14.248 51.924 13.976 51.828 13.656C51.7427 13.3253 51.7 12.952 51.7 12.536V2.904L53.636 2.584V12.168C53.636 12.4027 53.652 12.6 53.684 12.76C53.7267 12.92 53.796 13.0587 53.892 13.176C53.988 13.2827 54.116 13.368 54.276 13.432C54.4467 13.4853 54.66 13.528 54.916 13.56L54.644 15.16ZM58.658 7.96C58.658 8.33333 58.53 8.63733 58.274 8.872C58.0287 9.10667 57.73 9.224 57.378 9.224C57.0153 9.224 56.7113 9.10667 56.466 8.872C56.2207 8.63733 56.098 8.33333 56.098 7.96C56.098 7.58667 56.2207 7.28267 56.466 7.048C56.7113 6.80267 57.0153 6.68 57.378 6.68C57.73 6.68 58.0287 6.80267 58.274 7.048C58.53 7.28267 58.658 7.58667 58.658 7.96ZM58.658 13.944C58.658 14.3173 58.53 14.6213 58.274 14.856C58.0287 15.0907 57.73 15.208 57.378 15.208C57.0153 15.208 56.7113 15.0907 56.466 14.856C56.2207 14.6213 56.098 14.3173 56.098 13.944C56.098 13.5707 56.2207 13.2667 56.466 13.032C56.7113 12.7867 57.0153 12.664 57.378 12.664C57.73 12.664 58.0287 12.7867 58.274 13.032C58.53 13.2667 58.658 13.5707 58.658 13.944ZM64.0664 9.608H66.9144V6.472H68.6424V9.608H71.4904V11.24H68.6424V14.376H66.9144V11.24H64.0664V9.608ZM73.7681 6.216C74.3868 5.97067 75.0055 5.656 75.6241 5.272C76.2535 4.888 76.8081 4.43467 77.2881 3.912H78.6481V15H76.7121V6.504C76.4241 6.728 76.0615 6.94667 75.6241 7.16C75.1868 7.37333 74.7655 7.54933 74.3601 7.688L73.7681 6.216ZM89.1179 6.792C89.1179 7.176 89.0379 7.55467 88.8779 7.928C88.7179 8.29067 88.5099 8.648 88.2539 9C88.0085 9.34133 87.7259 9.67733 87.4059 10.008C87.0859 10.328 86.7659 10.6427 86.4459 10.952C86.2752 11.112 86.0832 11.304 85.8699 11.528C85.6565 11.752 85.4539 11.976 85.2619 12.2C85.0699 12.424 84.9045 12.6427 84.7659 12.856C84.6272 13.0587 84.5525 13.2293 84.5419 13.368H89.4699V15H82.4139C82.4032 14.9147 82.3979 14.8133 82.3979 14.696C82.3979 14.568 82.3979 14.472 82.3979 14.408C82.3979 13.896 82.4779 13.4267 82.6379 13C82.8085 12.5627 83.0272 12.1573 83.2939 11.784C83.5605 11.4107 83.8592 11.0587 84.1899 10.728C84.5205 10.3973 84.8512 10.072 85.1819 9.752C85.4379 9.50667 85.6832 9.26667 85.9179 9.032C86.1525 8.79733 86.3552 8.568 86.5259 8.344C86.7072 8.10933 86.8512 7.87467 86.9579 7.64C87.0645 7.39467 87.1179 7.144 87.1179 6.888C87.1179 6.33333 86.9579 5.93867 86.6379 5.704C86.3179 5.46933 85.9285 5.352 85.4699 5.352C85.1712 5.352 84.8939 5.39467 84.6379 5.48C84.3819 5.56533 84.1525 5.66667 83.9499 5.784C83.7579 5.90133 83.5872 6.024 83.4379 6.152C83.2885 6.26933 83.1765 6.36533 83.1019 6.44L82.1419 5.08C82.5899 4.65333 83.1125 4.312 83.7099 4.056C84.3179 3.78933 84.9685 3.656 85.6619 3.656C86.8459 3.656 87.7152 3.93867 88.2699 4.504C88.8352 5.05867 89.1179 5.82133 89.1179 6.792ZM91.9556 6.216C92.5743 5.97067 93.193 5.656 93.8116 5.272C94.441 4.888 94.9956 4.43467 95.4756 3.912H96.8356V15H94.8996V6.504C94.6116 6.728 94.249 6.94667 93.8116 7.16C93.3743 7.37333 92.953 7.54933 92.5476 7.688L91.9556 6.216ZM109.472 11.832C109.472 11.48 109.402 11.1653 109.264 10.888C109.125 10.6107 108.88 10.376 108.528 10.184C108.186 9.992 107.722 9.848 107.136 9.752C106.56 9.656 105.829 9.608 104.944 9.608C105.061 8.584 105.152 7.61333 105.216 6.696C105.28 5.768 105.333 4.84 105.376 3.912H111.04V5.544H107.024C107.013 5.72533 106.997 5.93333 106.976 6.168C106.965 6.392 106.949 6.62133 106.928 6.856C106.917 7.09067 106.901 7.31467 106.88 7.528C106.858 7.74133 106.837 7.92267 106.816 8.072C108.394 8.15733 109.557 8.52 110.304 9.16C111.061 9.78933 111.44 10.6533 111.44 11.752C111.44 12.2533 111.354 12.7173 111.184 13.144C111.013 13.5707 110.752 13.9387 110.4 14.248C110.048 14.5573 109.605 14.8027 109.072 14.984C108.538 15.1547 107.914 15.24 107.2 15.24C106.912 15.24 106.618 15.2187 106.32 15.176C106.021 15.1333 105.733 15.08 105.456 15.016C105.189 14.9627 104.949 14.904 104.736 14.84C104.522 14.776 104.362 14.7173 104.256 14.664L104.624 13.032C104.848 13.1387 105.168 13.256 105.584 13.384C106.01 13.5013 106.528 13.56 107.136 13.56C107.552 13.56 107.909 13.5173 108.208 13.432C108.506 13.336 108.746 13.208 108.928 13.048C109.12 12.888 109.258 12.7067 109.344 12.504C109.429 12.2907 109.472 12.0667 109.472 11.832ZM113.878 6.216C114.496 5.97067 115.115 5.656 115.734 5.272C116.363 4.888 116.918 4.43467 117.398 3.912H118.758V15H116.822V6.504C116.534 6.728 116.171 6.94667 115.734 7.16C115.296 7.37333 114.875 7.54933 114.47 7.688L113.878 6.216ZM122.971 6.216C123.59 5.97067 124.209 5.656 124.827 5.272C125.457 4.888 126.011 4.43467 126.491 3.912H127.851V15H125.915V6.504C125.627 6.728 125.265 6.94667 124.827 7.16C124.39 7.37333 123.969 7.54933 123.563 7.688L122.971 6.216ZM139.751 6.296C139.495 6.60533 139.229 6.936 138.951 7.288C138.685 7.64 138.423 8.008 138.167 8.392C137.911 8.776 137.666 9.17067 137.431 9.576C137.197 9.97067 136.983 10.3653 136.791 10.76H139.751V6.296ZM141.639 3.912V10.76H142.887V12.344H141.639V15H139.751V12.344H134.887V10.968C135.101 10.4987 135.383 9.96 135.735 9.352C136.098 8.744 136.498 8.12 136.935 7.48C137.373 6.84 137.837 6.21067 138.327 5.592C138.818 4.97333 139.309 4.41333 139.799 3.912H141.639ZM149.581 11.832C149.581 11.48 149.512 11.1653 149.373 10.888C149.234 10.6107 148.989 10.376 148.637 10.184C148.296 9.992 147.832 9.848 147.245 9.752C146.669 9.656 145.938 9.608 145.053 9.608C145.17 8.584 145.261 7.61333 145.325 6.696C145.389 5.768 145.442 4.84 145.485 3.912H151.149V5.544H147.133C147.122 5.72533 147.106 5.93333 147.085 6.168C147.074 6.392 147.058 6.62133 147.037 6.856C147.026 7.09067 147.01 7.31467 146.989 7.528C146.968 7.74133 146.946 7.92267 146.925 8.072C148.504 8.15733 149.666 8.52 150.413 9.16C151.17 9.78933 151.549 10.6533 151.549 11.752C151.549 12.2533 151.464 12.7173 151.293 13.144C151.122 13.5707 150.861 13.9387 150.509 14.248C150.157 14.5573 149.714 14.8027 149.181 14.984C148.648 15.1547 148.024 15.24 147.309 15.24C147.021 15.24 146.728 15.2187 146.429 15.176C146.13 15.1333 145.842 15.08 145.565 15.016C145.298 14.9627 145.058 14.904 144.845 14.84C144.632 14.776 144.472 14.7173 144.365 14.664L144.733 13.032C144.957 13.1387 145.277 13.256 145.693 13.384C146.12 13.5013 146.637 13.56 147.245 13.56C147.661 13.56 148.018 13.5173 148.317 13.432C148.616 13.336 148.856 13.208 149.037 13.048C149.229 12.888 149.368 12.7067 149.453 12.504C149.538 12.2907 149.581 12.0667 149.581 11.832ZM160.243 6.792C160.243 7.176 160.163 7.55467 160.003 7.928C159.843 8.29067 159.635 8.648 159.379 9C159.134 9.34133 158.851 9.67733 158.531 10.008C158.211 10.328 157.891 10.6427 157.571 10.952C157.4 11.112 157.208 11.304 156.995 11.528C156.782 11.752 156.579 11.976 156.387 12.2C156.195 12.424 156.03 12.6427 155.891 12.856C155.752 13.0587 155.678 13.2293 155.667 13.368H160.595V15H153.539C153.528 14.9147 153.523 14.8133 153.523 14.696C153.523 14.568 153.523 14.472 153.523 14.408C153.523 13.896 153.603 13.4267 153.763 13C153.934 12.5627 154.152 12.1573 154.419 11.784C154.686 11.4107 154.984 11.0587 155.315 10.728C155.646 10.3973 155.976 10.072 156.307 9.752C156.563 9.50667 156.808 9.26667 157.043 9.032C157.278 8.79733 157.48 8.568 157.651 8.344C157.832 8.10933 157.976 7.87467 158.083 7.64C158.19 7.39467 158.243 7.144 158.243 6.888C158.243 6.33333 158.083 5.93867 157.763 5.704C157.443 5.46933 157.054 5.352 156.595 5.352C156.296 5.352 156.019 5.39467 155.763 5.48C155.507 5.56533 155.278 5.66667 155.075 5.784C154.883 5.90133 154.712 6.024 154.563 6.152C154.414 6.26933 154.302 6.36533 154.227 6.44L153.267 5.08C153.715 4.65333 154.238 4.312 154.835 4.056C155.443 3.78933 156.094 3.656 156.787 3.656C157.971 3.656 158.84 3.93867 159.395 4.504C159.96 5.05867 160.243 5.82133 160.243 6.792ZM169.337 6.792C169.337 7.176 169.257 7.55467 169.097 7.928C168.937 8.29067 168.729 8.648 168.473 9C168.227 9.34133 167.945 9.67733 167.625 10.008C167.305 10.328 166.985 10.6427 166.665 10.952C166.494 11.112 166.302 11.304 166.089 11.528C165.875 11.752 165.673 11.976 165.481 12.2C165.289 12.424 165.123 12.6427 164.985 12.856C164.846 13.0587 164.771 13.2293 164.761 13.368H169.689V15H162.633C162.622 14.9147 162.617 14.8133 162.617 14.696C162.617 14.568 162.617 14.472 162.617 14.408C162.617 13.896 162.697 13.4267 162.857 13C163.027 12.5627 163.246 12.1573 163.513 11.784C163.779 11.4107 164.078 11.0587 164.409 10.728C164.739 10.3973 165.07 10.072 165.401 9.752C165.657 9.50667 165.902 9.26667 166.137 9.032C166.371 8.79733 166.574 8.568 166.745 8.344C166.926 8.10933 167.07 7.87467 167.177 7.64C167.283 7.39467 167.337 7.144 167.337 6.888C167.337 6.33333 167.177 5.93867 166.857 5.704C166.537 5.46933 166.147 5.352 165.689 5.352C165.39 5.352 165.113 5.39467 164.857 5.48C164.601 5.56533 164.371 5.66667 164.169 5.784C163.977 5.90133 163.806 6.024 163.657 6.152C163.507 6.26933 163.395 6.36533 163.321 6.44L162.361 5.08C162.809 4.65333 163.331 4.312 163.929 4.056C164.537 3.78933 165.187 3.656 165.881 3.656C167.065 3.656 167.934 3.93867 168.489 4.504C169.054 5.05867 169.337 5.82133 169.337 6.792Z" fill="black"/>
<path d="M17.9849 1.51722V4.51722C17.9849 4.71613 17.9059 4.9069 17.7652 5.04755C17.6246 5.1882 17.4338 5.26722 17.2349 5.26722C17.036 5.26722 16.8452 5.1882 16.7046 5.04755C16.5639 4.9069 16.4849 4.71613 16.4849 4.51722V2.59497L12.5099 6.54897C12.3681 6.68524 12.1784 6.76035 11.9817 6.75811C11.785 6.75586 11.5971 6.67645 11.4584 6.53698C11.3198 6.39751 11.2414 6.20914 11.2403 6.01246C11.2392 5.81578 11.3153 5.62653 11.4524 5.48547L15.4424 1.51722H13.4849C13.286 1.51722 13.0952 1.4382 12.9546 1.29755C12.8139 1.1569 12.7349 0.966134 12.7349 0.767221C12.7349 0.568309 12.8139 0.377544 12.9546 0.236891C13.0952 0.096239 13.286 0.0172213 13.4849 0.0172213H16.4849C16.8827 0.0172213 17.2643 0.175257 17.5456 0.456561C17.8269 0.737866 17.9849 1.1194 17.9849 1.51722ZM17.3062 12.5715C17.7408 13.0073 17.9849 13.5977 17.9849 14.2132C17.9849 14.8287 17.7408 15.4191 17.3062 15.855L16.6222 16.6425C10.4789 22.521 -4.46785 7.57872 1.32215 1.41747L2.1839 0.667471C2.62047 0.24505 3.20566 0.011267 3.81311 0.0165993C4.42057 0.0219315 5.00156 0.265951 5.43065 0.695971C5.45315 0.719221 6.8429 2.52522 6.8429 2.52522C7.25515 2.95831 7.4847 3.53357 7.48387 4.1315C7.48303 4.72942 7.25186 5.30404 6.8384 5.73597L5.96915 6.82872C6.44979 7.99655 7.15645 9.05791 8.04853 9.95179C8.94061 10.8457 10.0005 11.5545 11.1674 12.0375L12.2661 11.1637C12.698 10.7505 13.2725 10.5194 13.8702 10.5186C14.468 10.5178 15.0431 10.7472 15.4761 11.1592C15.4761 11.1592 17.2829 12.549 17.3062 12.5715ZM16.2749 13.662C16.2749 13.662 14.4801 12.2805 14.4569 12.258C14.3024 12.1048 14.0936 12.0188 13.876 12.0188C13.6584 12.0188 13.4497 12.1048 13.2951 12.258C13.2749 12.2775 11.7621 13.4835 11.7621 13.4835C11.6602 13.5646 11.5389 13.6178 11.4101 13.6378C11.2814 13.6578 11.1496 13.6439 11.0279 13.5975C9.51531 13.035 8.14144 12.1537 6.99954 11.0133C5.85764 9.87297 4.97444 8.5003 4.4099 6.98847C4.36051 6.86556 4.34456 6.73176 4.36366 6.60068C4.38276 6.46961 4.43624 6.34593 4.51865 6.24222C4.51865 6.24222 5.7239 4.72947 5.74415 4.70922C5.89735 4.55471 5.98331 4.34593 5.98331 4.12835C5.98331 3.91076 5.89735 3.70198 5.74415 3.54747C5.72165 3.52497 4.34015 1.72947 4.34015 1.72947C4.18342 1.58875 3.9788 1.51331 3.76823 1.51861C3.55767 1.52391 3.3571 1.60955 3.20765 1.75797L2.3459 2.50797C-1.8871 7.59447 11.0676 19.8315 15.5249 15.6195L16.2089 14.832C16.3702 14.684 16.4673 14.4789 16.4796 14.2604C16.4919 14.0419 16.4185 13.8272 16.2749 13.662Z" fill="#00C194"/>
</svg>
